RiseStarHandLight.ufo
<glyph name="exclam" format="1">
  <advance width="156"/>
  <unicode hex="0021"/>
  <outline>
    <contour>
      <point x="85" y="74" type="qcurve"/>
      <point x="81" y="56"/>
      <point x="84" y="44" type="qcurve"/>
      <point x="85" y="43"/>
      <point x="85" y="41" type="qcurve"/>
      <point x="93" y="45"/>
      <point x="97" y="53" type="qcurve"/>
      <point x="100" y="59"/>
      <point x="97" y="62" type="qcurve"/>
      <point x="93" y="67"/>
    </contour>
    <contour>
      <point x="66" y="88" type="qcurve"/>
      <point x="62" y="92" type="line"/>
      <point x="54" y="98"/>
      <point x="60" y="107" type="qcurve"/>
      <point x="65" y="113"/>
      <point x="73" y="110" type="qcurve"/>
      <point x="74" y="113"/>
      <point x="75" y="115" type="qcurve"/>
      <point x="81" y="127" type="line"/>
      <point x="85" y="137"/>
      <point x="104" y="129"/>
      <point x="100" y="119" type="qcurve"/>
      <point x="94" y="106" type="line"/>
      <point x="92" y="102"/>
      <point x="90" y="96" type="qcurve"/>
      <point x="106" y="84"/>
      <point x="114" y="75" type="qcurve"/>
      <point x="124" y="62"/>
      <point x="116" y="44" type="qcurve"/>
      <point x="108" y="28"/>
      <point x="93" y="22" type="qcurve"/>
      <point x="83" y="18"/>
      <point x="67" y="28"/>
      <point x="64" y="39" type="qcurve"/>
      <point x="59" y="55"/>
      <point x="64" y="79" type="qcurve"/>
      <point x="65" y="84"/>
    </contour>
    <contour>
      <point x="78" y="294" type="qcurve"/>
      <point x="80" y="304"/>
      <point x="83" y="316" type="qcurve"/>
      <point x="93" y="361"/>
      <point x="102" y="414" type="qcurve"/>
      <point x="110" y="466"/>
      <point x="109" y="505" type="qcurve"/>
      <point x="107" y="543"/>
      <point x="89" y="577" type="qcurve"/>
      <point x="80" y="595"/>
      <point x="74" y="602" type="qcurve"/>
      <point x="68" y="592"/>
      <point x="61" y="567" type="qcurve"/>
      <point x="48" y="527"/>
      <point x="48" y="468" type="qcurve"/>
      <point x="48" y="408"/>
      <point x="66" y="339" type="qcurve"/>
      <point x="72" y="315"/>
    </contour>
    <contour>
      <point x="98" y="187" type="qcurve"/>
      <point x="81" y="225" type="line"/>
      <point x="79" y="228"/>
      <point x="77" y="233" type="qcurve"/>
      <point x="75" y="233"/>
      <point x="74" y="233" type="qcurve"/>
      <point x="64" y="236"/>
      <point x="67" y="246" type="qcurve"/>
      <point x="69" y="255" type="line"/>
      <point x="67" y="261"/>
      <point x="65" y="267" type="qcurve"/>
      <point x="55" y="296"/>
      <point x="45" y="334" type="qcurve"/>
      <point x="27" y="406"/>
      <point x="27" y="468" type="qcurve"/>
      <point x="27" y="531"/>
      <point x="41" y="574" type="qcurve"/>
      <point x="41" y="576"/>
      <point x="42" y="579" type="qcurve"/>
      <point x="47" y="594"/>
      <point x="52" y="609"/>
      <point x="62" y="623"/>
      <point x="68" y="625" type="qcurve"/>
      <point x="76" y="628"/>
      <point x="91" y="617"/>
      <point x="99" y="605"/>
      <point x="105" y="592" type="qcurve"/>
      <point x="107" y="589"/>
      <point x="108" y="587" type="qcurve"/>
      <point x="127" y="549"/>
      <point x="130" y="506" type="qcurve"/>
      <point x="132" y="465"/>
      <point x="123" y="410" type="qcurve"/>
      <point x="114" y="357"/>
      <point x="104" y="311" type="qcurve"/>
      <point x="97" y="281"/>
      <point x="93" y="265" type="qcurve"/>
      <point x="92" y="260"/>
      <point x="91" y="256" type="qcurve"/>
      <point x="92" y="253"/>
      <point x="93" y="251" type="qcurve"/>
      <point x="96" y="241"/>
      <point x="100" y="234" type="qcurve"/>
      <point x="117" y="196" type="line"/>
      <point x="122" y="187"/>
      <point x="103" y="178"/>
    </contour>
  </outline>
</glyph>
<glyph name="quotedbl" format="1">
  <advance width="192"/>
  <unicode hex="0022"/>
  <outline>
    <contour>
      <point x="137" y="594" type="qcurve"/>
      <point x="150" y="585" type="line"/>
      <point x="167" y="572"/>
      <point x="165" y="528" type="qcurve"/>
      <point x="163" y="490" type="line"/>
      <point x="163" y="486"/>
      <point x="157" y="480"/>
      <point x="148" y="480"/>
      <point x="142" y="486"/>
      <point x="142" y="491" type="qcurve"/>
      <point x="144" y="529" type="line"/>
      <point x="146" y="562"/>
      <point x="138" y="568" type="qcurve"/>
      <point x="125" y="577" type="line"/>
      <point x="116" y="583"/>
      <point x="129" y="600"/>
    </contour>
    <contour>
      <point x="79" y="589" type="qcurve"/>
      <point x="76" y="556" type="line"/>
      <point x="73" y="520"/>
      <point x="59" y="499" type="qcurve"/>
      <point x="46" y="480" type="line"/>
      <point x="40" y="471"/>
      <point x="23" y="482"/>
      <point x="29" y="491" type="qcurve"/>
      <point x="41" y="510" type="line"/>
      <point x="52" y="527"/>
      <point x="55" y="558" type="qcurve"/>
      <point x="58" y="591" type="line"/>
      <point x="59" y="601"/>
      <point x="80" y="600"/>
    </contour>
  </outline>
</glyph>
<glyph name="numbersign" format="1">
  <advance width="591"/>
  <unicode hex="0023"/>
  <outline>
    <contour>
      <point x="35" y="186" type="qcurve"/>
      <point x="56" y="193" type="line"/>
      <point x="78" y="199"/>
      <point x="149" y="219" type="qcurve"/>
      <point x="184" y="228"/>
      <point x="224" y="237" type="qcurve"/>
      <point x="233" y="297"/>
      <point x="245" y="368" type="qcurve"/>
      <point x="232" y="366"/>
      <point x="218" y="364" type="qcurve"/>
      <point x="120" y="350"/>
      <point x="108" y="353" type="qcurve"/>
      <point x="99" y="356" type="line"/>
      <point x="89" y="358"/>
      <point x="94" y="379"/>
      <point x="104" y="376" type="qcurve"/>
      <point x="114" y="374" type="line"/>
      <point x="126" y="372"/>
      <point x="215" y="385" type="qcurve"/>
      <point x="232" y="387"/>
      <point x="249" y="389" type="qcurve"/>
      <point x="269" y="505"/>
      <point x="277" y="541" type="qcurve"/>
      <point x="286" y="579" type="line"/>
      <point x="289" y="590"/>
      <point x="309" y="585"/>
      <point x="307" y="575" type="qcurve"/>
      <point x="298" y="536" type="line"/>
      <point x="290" y="502"/>
      <point x="271" y="392" type="qcurve"/>
      <point x="320" y="399"/>
      <point x="367" y="404" type="qcurve"/>
      <point x="374" y="440"/>
      <point x="381" y="473" type="qcurve"/>
      <point x="396" y="546"/>
      <point x="407" y="576" type="qcurve"/>
      <point x="417" y="604" type="line"/>
      <point x="421" y="614"/>
      <point x="441" y="607"/>
      <point x="437" y="597" type="qcurve"/>
      <point x="426" y="569" type="line"/>
      <point x="416" y="541"/>
      <point x="402" y="469" type="qcurve"/>
      <point x="395" y="439"/>
      <point x="389" y="407" type="qcurve"/>
      <point x="392" y="407"/>
      <point x="395" y="407" type="qcurve"/>
      <point x="479" y="417"/>
      <point x="488" y="416" type="qcurve"/>
      <point x="496" y="415" type="line"/>
      <point x="506" y="414"/>
      <point x="504" y="393"/>
      <point x="493" y="394" type="qcurve"/>
      <point x="486" y="395" type="line"/>
      <point x="476" y="395"/>
      <point x="397" y="386" type="qcurve"/>
      <point x="391" y="386"/>
      <point x="384" y="385" type="qcurve"/>
      <point x="377" y="350"/>
      <point x="369" y="311" type="qcurve"/>
      <point x="365" y="287"/>
      <point x="359" y="263" type="qcurve"/>
      <point x="418" y="273"/>
      <point x="462" y="279" type="qcurve"/>
      <point x="524" y="286"/>
      <point x="539" y="288" type="qcurve"/>
      <point x="553" y="289" type="line"/>
      <point x="564" y="290"/>
      <point x="566" y="269"/>
      <point x="555" y="268" type="qcurve"/>
      <point x="541" y="267" type="line"/>
      <point x="526" y="265"/>
      <point x="465" y="258" type="qcurve"/>
      <point x="418" y="252"/>
      <point x="355" y="241" type="qcurve"/>
      <point x="344" y="192"/>
      <point x="332" y="146" type="qcurve"/>
      <point x="313" y="67"/>
      <point x="305" y="41" type="qcurve"/>
      <point x="297" y="15" type="line"/>
      <point x="294" y="5"/>
      <point x="274" y="12"/>
      <point x="277" y="22" type="qcurve"/>
      <point x="285" y="47" type="line"/>
      <point x="293" y="72"/>
      <point x="312" y="151" type="qcurve"/>
      <point x="323" y="193"/>
      <point x="332" y="237" type="qcurve"/>
      <point x="324" y="236"/>
      <point x="314" y="234" type="qcurve"/>
      <point x="277" y="227"/>
      <point x="242" y="220" type="qcurve"/>
      <point x="236" y="176"/>
      <point x="230" y="138" type="qcurve"/>
      <point x="217" y="46"/>
      <point x="216" y="11" type="qcurve"/>
      <point x="214" y="-24" type="line"/>
      <point x="214" y="-29"/>
      <point x="207" y="-35"/>
      <point x="199" y="-34"/>
      <point x="193" y="-28"/>
      <point x="193" y="-23" type="qcurve"/>
      <point x="195" y="12" type="line"/>
      <point x="197" y="48"/>
      <point x="210" y="141" type="qcurve"/>
      <point x="214" y="175"/>
      <point x="220" y="215" type="qcurve"/>
      <point x="186" y="207"/>
      <point x="155" y="198" type="qcurve"/>
      <point x="84" y="179"/>
      <point x="62" y="173" type="qcurve"/>
      <point x="40" y="166" type="line"/>
      <point x="30" y="163"/>
      <point x="24" y="184"/>
    </contour>
    <contour>
      <point x="362" y="382" type="qcurve"/>
      <point x="317" y="377"/>
      <point x="267" y="370" type="qcurve"/>
      <point x="267" y="368"/>
      <point x="266" y="365" type="qcurve"/>
      <point x="255" y="298"/>
      <point x="246" y="242" type="qcurve"/>
      <point x="277" y="249"/>
      <point x="311" y="255" type="qcurve"/>
      <point x="324" y="257"/>
      <point x="337" y="259" type="qcurve"/>
      <point x="343" y="287"/>
      <point x="349" y="315" type="qcurve"/>
      <point x="356" y="350"/>
    </contour>
  </outline>
</glyph>
<glyph name="dollar" format="1">
  <advance width="354"/>
  <unicode hex="0024"/>
  <outline>
    <contour>
      <point x="209" y="664" type="qcurve"/>
      <point x="208" y="615" type="line"/>
      <point x="208" y="613"/>
      <point x="208" y="611" type="qcurve"/>
      <point x="209" y="611"/>
      <point x="209" y="610" type="qcurve"/>
      <point x="245" y="599"/>
      <point x="277" y="562" type="qcurve"/>
      <point x="308" y="527"/>
      <point x="315" y="513" type="qcurve"/>
      <point x="321" y="501" type="line"/>
      <point x="326" y="491"/>
      <point x="307" y="482"/>
      <point x="302" y="491" type="qcurve"/>
      <point x="296" y="504" type="line"/>
      <point x="290" y="515"/>
      <point x="261" y="548" type="qcurve"/>
      <point x="235" y="578"/>
      <point x="208" y="588" type="qcurve"/>
      <point x="208" y="546"/>
      <point x="210" y="484" type="qcurve"/>
      <point x="211" y="446"/>
      <point x="212" y="408" type="qcurve"/>
      <point x="248" y="389"/>
      <point x="277" y="363" type="qcurve"/>
      <point x="321" y="324"/>
      <point x="326" y="271" type="qcurve"/>
      <point x="332" y="219"/>
      <point x="301" y="181" type="qcurve"/>
      <point x="278" y="152"/>
      <point x="234" y="136" type="qcurve"/>
      <point x="242" y="82" type="line"/>
      <point x="244" y="71"/>
      <point x="223" y="68"/>
      <point x="221" y="79" type="qcurve"/>
      <point x="213" y="129" type="line"/>
      <point x="209" y="128"/>
      <point x="204" y="126" type="qcurve"/>
      <point x="181" y="120"/>
      <point x="161" y="118" type="qcurve"/>
      <point x="161" y="90"/>
      <point x="162" y="74" type="qcurve"/>
      <point x="163" y="41" type="line"/>
      <point x="164" y="37"/>
      <point x="158" y="30"/>
      <point x="149" y="30"/>
      <point x="143" y="36"/>
      <point x="143" y="40" type="qcurve"/>
      <point x="141" y="74" type="line"/>
      <point x="140" y="89"/>
      <point x="140" y="116" type="qcurve"/>
      <point x="115" y="115"/>
      <point x="95" y="121" type="qcurve"/>
      <point x="49" y="133"/>
      <point x="37" y="172" type="qcurve"/>
      <point x="27" y="204" type="line"/>
      <point x="24" y="214"/>
      <point x="45" y="221"/>
      <point x="48" y="210" type="qcurve"/>
      <point x="57" y="178" type="line"/>
      <point x="66" y="150"/>
      <point x="101" y="141" type="qcurve"/>
      <point x="118" y="136"/>
      <point x="140" y="137" type="qcurve"/>
      <point x="140" y="161"/>
      <point x="140" y="191" type="qcurve"/>
      <point x="140" y="275"/>
      <point x="136" y="375" type="qcurve"/>
      <point x="135" y="399"/>
      <point x="134" y="422" type="qcurve"/>
      <point x="102" y="438"/>
      <point x="79" y="454" type="qcurve"/>
      <point x="42" y="481"/>
      <point x="38" y="546"/>
      <point x="73" y="576" type="qcurve"/>
      <point x="99" y="599"/>
      <point x="126" y="609" type="qcurve"/>
      <point x="126" y="637"/>
      <point x="126" y="658" type="qcurve"/>
      <point x="128" y="702" type="line"/>
      <point x="128" y="706"/>
      <point x="135" y="712"/>
      <point x="143" y="712"/>
      <point x="149" y="705"/>
      <point x="149" y="701" type="qcurve"/>
      <point x="147" y="657" type="line"/>
      <point x="147" y="639"/>
      <point x="147" y="615" type="qcurve"/>
      <point x="167" y="619"/>
      <point x="187" y="616" type="qcurve"/>
      <point x="188" y="664" type="line"/>
      <point x="188" y="668"/>
      <point x="194" y="674"/>
      <point x="203" y="674"/>
      <point x="209" y="668"/>
    </contour>
    <contour>
      <point x="156" y="412" type="qcurve"/>
      <point x="157" y="395"/>
      <point x="157" y="376" type="qcurve"/>
      <point x="161" y="275"/>
      <point x="161" y="191" type="qcurve"/>
      <point x="161" y="162"/>
      <point x="161" y="139" type="qcurve"/>
      <point x="179" y="141"/>
      <point x="199" y="147" type="qcurve"/>
      <point x="205" y="148"/>
      <point x="210" y="150" type="qcurve"/>
      <point x="209" y="156" type="line"/>
      <point x="197" y="234"/>
      <point x="194" y="318" type="qcurve"/>
      <point x="193" y="358"/>
      <point x="192" y="395" type="qcurve"/>
      <point x="181" y="401"/>
      <point x="169" y="406" type="qcurve"/>
      <point x="162" y="409"/>
    </contour>
    <contour>
      <point x="213" y="383" type="qcurve"/>
      <point x="214" y="351"/>
      <point x="215" y="319" type="qcurve"/>
      <point x="218" y="236"/>
      <point x="230" y="159" type="qcurve"/>
      <point x="230" y="157" type="line"/>
      <point x="266" y="171"/>
      <point x="285" y="194" type="qcurve"/>
      <point x="310" y="225"/>
      <point x="306" y="269" type="qcurve"/>
      <point x="301" y="313"/>
      <point x="263" y="347" type="qcurve"/>
      <point x="240" y="367"/>
    </contour>
    <contour>
      <point x="191" y="419" type="qcurve"/>
      <point x="190" y="451"/>
      <point x="189" y="484" type="qcurve"/>
      <point x="187" y="550"/>
      <point x="187" y="594" type="qcurve"/>
      <point x="167" y="598"/>
      <point x="148" y="594" type="qcurve"/>
      <point x="148" y="571"/>
      <point x="150" y="546" type="qcurve"/>
      <point x="152" y="496"/>
      <point x="155" y="435" type="qcurve"/>
      <point x="166" y="430"/>
      <point x="178" y="425" type="qcurve"/>
      <point x="185" y="422"/>
    </contour>
    <contour>
      <point x="133" y="446" type="qcurve"/>
      <point x="131" y="501"/>
      <point x="129" y="544" type="qcurve"/>
      <point x="127" y="567"/>
      <point x="127" y="587" type="qcurve"/>
      <point x="106" y="578"/>
      <point x="87" y="560" type="qcurve"/>
      <point x="60" y="537"/>
      <point x="62" y="492"/>
      <point x="92" y="472" type="qcurve"/>
      <point x="109" y="459"/>
    </contour>
  </outline>
</glyph>
<glyph name="percent" format="1">
  <advance width="532"/>
  <unicode hex="0025"/>
  <outline>
    <contour>
      <point x="434" y="212" type="qcurve"/>
      <point x="431" y="211"/>
      <point x="428" y="209" type="qcurve"/>
      <point x="396" y="188"/>
      <point x="376" y="157" type="qcurve"/>
      <point x="356" y="128"/>
      <point x="364" y="101" type="qcurve"/>
      <point x="371" y="77"/>
      <point x="400" y="77" type="qcurve"/>
      <point x="431" y="76"/>
      <point x="463" y="119" type="qcurve"/>
      <point x="494" y="161"/>
      <point x="481" y="188" type="qcurve"/>
      <point x="470" y="208"/>
      <point x="444" y="211" type="qcurve"/>
      <point x="439" y="212"/>
    </contour>
    <contour>
      <point x="464" y="228" type="qcurve"/>
      <point x="488" y="219"/>
      <point x="499" y="197" type="qcurve"/>
      <point x="519" y="159"/>
      <point x="480" y="106" type="qcurve"/>
      <point x="442" y="55"/>
      <point x="399" y="56" type="qcurve"/>
      <point x="355" y="56"/>
      <point x="344" y="95" type="qcurve"/>
      <point x="334" y="131"/>
      <point x="358" y="169" type="qcurve"/>
      <point x="374" y="192"/>
      <point x="395" y="211" type="qcurve"/>
      <point x="374" y="209"/>
      <point x="368" y="208" type="qcurve"/>
      <point x="358" y="205" type="line"/>
      <point x="347" y="203"/>
      <point x="342" y="223"/>
      <point x="353" y="226" type="qcurve"/>
      <point x="363" y="228" type="line"/>
      <point x="374" y="231"/>
      <point x="424" y="233" type="qcurve"/>
      <point x="425" y="233"/>
      <point x="428" y="233" type="qcurve"/>
      <point x="437" y="239"/>
      <point x="444" y="242" type="qcurve"/>
      <point x="459" y="250"/>
      <point x="467" y="249" type="qcurve"/>
      <point x="477" y="248" type="line"/>
      <point x="487" y="247"/>
      <point x="485" y="226"/>
      <point x="475" y="227" type="qcurve"/>
      <point x="465" y="228" type="line"/>
      <point x="465" y="228"/>
    </contour>
    <contour>
      <point x="149" y="578" type="qcurve"/>
      <point x="117" y="570" type="line"/>
      <point x="87" y="562"/>
      <point x="66" y="538" type="qcurve"/>
      <point x="47" y="515"/>
      <point x="48" y="464" type="qcurve"/>
      <point x="50" y="414"/>
      <point x="71" y="400" type="qcurve"/>
      <point x="90" y="388"/>
      <point x="122" y="415" type="qcurve"/>
      <point x="156" y="445"/>
      <point x="166" y="497" type="qcurve"/>
      <point x="176" y="548"/>
      <point x="159" y="569" type="qcurve"/>
      <point x="155" y="575"/>
    </contour>
    <contour>
      <point x="87" y="581" type="qcurve"/>
      <point x="74" y="579" type="line"/>
      <point x="64" y="577"/>
      <point x="61" y="598"/>
      <point x="71" y="600" type="qcurve"/>
      <point x="109" y="605" type="line"/>
      <point x="116" y="606"/>
      <point x="123" y="606" type="qcurve"/>
      <point x="156" y="606"/>
      <point x="176" y="582" type="qcurve"/>
      <point x="198" y="554"/>
      <point x="187" y="493" type="qcurve"/>
      <point x="176" y="434"/>
      <point x="135" y="399" type="qcurve"/>
      <point x="92" y="362"/>
      <point x="59" y="383" type="qcurve"/>
      <point x="29" y="403"/>
      <point x="27" y="463" type="qcurve"/>
      <point x="25" y="522"/>
      <point x="50" y="552" type="qcurve"/>
      <point x="66" y="570"/>
    </contour>
    <contour>
      <point x="421" y="564" type="qcurve"/>
      <point x="410" y="550" type="line"/>
      <point x="400" y="538"/>
      <point x="363" y="477" type="qcurve"/>
      <point x="326" y="416"/>
      <point x="247" y="282"/>
      <point x="174" y="147"/>
      <point x="104" y="21"/>
      <point x="94" y="5" type="qcurve"/>
      <point x="85" y="-11" type="line"/>
      <point x="80" y="-20"/>
      <point x="62" y="-9"/>
      <point x="67" y="0" type="qcurve"/>
      <point x="76" y="16" type="line"/>
      <point x="86" y="32"/>
      <point x="121" y="94" type="qcurve"/>
      <point x="156" y="158"/>
      <point x="192" y="225" type="qcurve"/>
      <point x="229" y="292"/>
      <point x="308" y="427"/>
      <point x="345" y="488" type="qcurve"/>
      <point x="383" y="550"/>
      <point x="394" y="564" type="qcurve"/>
      <point x="405" y="577" type="line"/>
      <point x="412" y="585"/>
      <point x="428" y="572"/>
    </contour>
  </outline>
</glyph>
<glyph name="ampersand" format="1">
  <advance width="635"/>
  <unicode hex="0026"/>
  <outline>
    <contour>
      <point x="109" y="363" type="qcurve"/>
      <point x="128" y="383"/>
      <point x="150" y="402" type="qcurve"/>
      <point x="196" y="441"/>
      <point x="225" y="474" type="qcurve"/>
      <point x="252" y="505"/>
      <point x="261" y="555"/>
      <point x="251" y="586" type="qcurve"/>
      <point x="241" y="615"/>
      <point x="214" y="627" type="qcurve"/>
      <point x="186" y="640"/>
      <point x="153" y="635" type="qcurve"/>
      <point x="121" y="631"/>
      <point x="91" y="602" type="qcurve"/>
      <point x="61" y="573"/>
      <point x="42" y="495"/>
      <point x="58" y="449" type="qcurve"/>
      <point x="75" y="403"/>
      <point x="107" y="366" type="qcurve"/>
      <point x="107" y="366"/>
    </contour>
    <contour>
      <point x="296" y="121" type="qcurve"/>
      <point x="290" y="127"/>
      <point x="285" y="133" type="qcurve"/>
      <point x="236" y="190"/>
      <point x="180" y="252" type="qcurve"/>
      <point x="139" y="298"/>
      <point x="109" y="332" type="qcurve"/>
      <point x="97" y="316"/>
      <point x="86" y="301" type="qcurve"/>
      <point x="57" y="257"/>
      <point x="57" y="213" type="qcurve"/>
      <point x="57" y="169"/>
      <point x="87" y="137" type="qcurve"/>
      <point x="117" y="104"/>
      <point x="178" y="98" type="qcurve"/>
      <point x="239" y="92"/>
      <point x="292" y="119" type="qcurve"/>
      <point x="294" y="119"/>
    </contour>
    <contour>
      <point x="330" y="117" type="qcurve"/>
      <point x="362" y="87"/>
      <point x="392" y="75" type="qcurve"/>
      <point x="431" y="60"/>
      <point x="470" y="102" type="qcurve"/>
      <point x="513" y="149"/>
      <point x="545" y="246" type="qcurve"/>
      <point x="577" y="344"/>
      <point x="582" y="365" type="qcurve"/>
      <point x="588" y="387" type="line"/>
      <point x="590" y="397"/>
      <point x="610" y="392"/>
      <point x="608" y="382" type="qcurve"/>
      <point x="603" y="360" type="line"/>
      <point x="597" y="338"/>
      <point x="565" y="239" type="qcurve"/>
      <point x="532" y="138"/>
      <point x="486" y="88" type="qcurve"/>
      <point x="436" y="35"/>
      <point x="384" y="56" type="qcurve"/>
      <point x="349" y="70"/>
      <point x="312" y="105" type="qcurve"/>
      <point x="306" y="102"/>
      <point x="301" y="100" type="qcurve"/>
      <point x="243" y="71"/>
      <point x="176" y="77" type="qcurve"/>
      <point x="107" y="84"/>
      <point x="71" y="122" type="qcurve"/>
      <point x="36" y="161"/>
      <point x="36" y="213" type="qcurve"/>
      <point x="36" y="264"/>
      <point x="69" y="312" type="qcurve"/>
      <point x="81" y="330"/>
      <point x="95" y="348" type="qcurve"/>
      <point x="92" y="351"/>
      <point x="91" y="352" type="qcurve"/>
      <point x="56" y="393"/>
      <point x="38" y="442" type="qcurve"/>
      <point x="20" y="493"/>
      <point x="42" y="583"/>
      <point x="76" y="617" type="qcurve"/>
      <point x="111" y="650"/>
      <point x="150" y="656" type="qcurve"/>
      <point x="189" y="661"/>
      <point x="222" y="646" type="qcurve"/>
      <point x="257" y="631"/>
      <point x="271" y="593" type="qcurve"/>
      <point x="283" y="557"/>
      <point x="277" y="526" type="qcurve"/>
      <point x="271" y="496"/>
      <point x="241" y="460" type="qcurve"/>
      <point x="211" y="426"/>
      <point x="163" y="386" type="qcurve"/>
      <point x="142" y="367"/>
      <point x="123" y="347" type="qcurve"/>
      <point x="153" y="313"/>
      <point x="196" y="266" type="qcurve"/>
      <point x="252" y="204"/>
      <point x="301" y="147" type="qcurve"/>
      <point x="308" y="139"/>
      <point x="315" y="132" type="qcurve"/>
      <point x="352" y="155"/>
      <point x="374" y="187" type="qcurve"/>
      <point x="404" y="230"/>
      <point x="410" y="261" type="qcurve"/>
      <point x="417" y="293"/>
      <point x="417" y="306" type="qcurve"/>
      <point x="417" y="321" type="line"/>
      <point x="417" y="325"/>
      <point x="423" y="332"/>
      <point x="432" y="332"/>
      <point x="438" y="325"/>
      <point x="438" y="321" type="qcurve"/>
      <point x="438" y="306" type="line"/>
      <point x="438" y="291"/>
      <point x="431" y="256" type="qcurve"/>
      <point x="424" y="221"/>
      <point x="392" y="175" type="qcurve"/>
      <point x="368" y="142"/>
    </contour>
  </outline>
</glyph>
<glyph name="quotesingle" format="1">
  <advance width="104"/>
  <unicode hex="0027"/>
  <outline>
    <contour>
      <point x="47" y="623" type="qcurve"/>
      <point x="63" y="590" type="line"/>
      <point x="81" y="555"/>
      <point x="77" y="517" type="qcurve"/>
      <point x="74" y="483" type="line"/>
      <point x="73" y="472"/>
      <point x="52" y="474"/>
      <point x="53" y="485" type="qcurve"/>
      <point x="56" y="519" type="line"/>
      <point x="59" y="551"/>
      <point x="44" y="581" type="qcurve"/>
      <point x="28" y="613" type="line"/>
      <point x="23" y="623"/>
      <point x="42" y="632"/>
    </contour>
  </outline>
</glyph>
<glyph name="parenleft" format="1">
  <advance width="311"/>
  <unicode hex="0028"/>
  <outline>
    <contour>
      <point x="207" y="620" type="qcurve"/>
      <point x="187" y="612" type="line"/>
      <point x="170" y="605"/>
      <point x="135" y="566" type="qcurve"/>
      <point x="100" y="526"/>
      <point x="72" y="444" type="qcurve"/>
      <point x="45" y="361"/>
      <point x="48" y="268" type="qcurve"/>
      <point x="52" y="175"/>
      <point x="86" y="84" type="qcurve"/>
      <point x="119" y="-4"/>
      <point x="191" y="-44" type="qcurve"/>
      <point x="260" y="-82"/>
      <point x="270" y="-86" type="qcurve"/>
      <point x="276" y="-87" type="line"/>
      <point x="287" y="-90"/>
      <point x="282" y="-110"/>
      <point x="272" y="-108" type="qcurve"/>
      <point x="265" y="-106" type="line"/>
      <point x="257" y="-105"/>
      <point x="181" y="-62" type="qcurve"/>
      <point x="102" y="-18"/>
      <point x="66" y="77" type="qcurve"/>
      <point x="31" y="170"/>
      <point x="27" y="267" type="qcurve"/>
      <point x="24" y="364"/>
      <point x="52" y="450" type="qcurve"/>
      <point x="81" y="537"/>
      <point x="119" y="580" type="qcurve"/>
      <point x="158" y="623"/>
      <point x="180" y="631" type="qcurve"/>
      <point x="199" y="639" type="line"/>
      <point x="209" y="643"/>
      <point x="217" y="623"/>
    </contour>
  </outline>
</glyph>
<glyph name="parenright" format="1">
  <advance width="265"/>
  <unicode hex="0029"/>
  <outline>
    <contour>
      <point x="43" y="669" type="qcurve"/>
      <point x="80" y="645" type="line"/>
      <point x="119" y="619"/>
      <point x="168" y="548" type="qcurve"/>
      <point x="217" y="477"/>
      <point x="234" y="335" type="qcurve"/>
      <point x="252" y="193"/>
      <point x="182" y="61" type="qcurve"/>
      <point x="113" y="-69"/>
      <point x="81" y="-98" type="qcurve"/>
      <point x="51" y="-126" type="line"/>
      <point x="44" y="-134"/>
      <point x="29" y="-118"/>
      <point x="37" y="-111" type="qcurve"/>
      <point x="67" y="-83" type="line"/>
      <point x="96" y="-56"/>
      <point x="163" y="71" type="qcurve"/>
      <point x="231" y="197"/>
      <point x="214" y="333" type="qcurve"/>
      <point x="197" y="469"/>
      <point x="151" y="536" type="qcurve"/>
      <point x="105" y="604"/>
      <point x="69" y="627" type="qcurve"/>
      <point x="32" y="652" type="line"/>
      <point x="23" y="657"/>
      <point x="34" y="675"/>
    </contour>
  </outline>
</glyph>
<glyph name="asterisk" format="1">
  <advance width="379"/>
  <unicode hex="002A"/>
  <outline>
    <contour>
      <point x="35" y="318" type="qcurve"/>
      <point x="83" y="330" type="line"/>
      <point x="105" y="335"/>
      <point x="128" y="342" type="qcurve"/>
      <point x="99" y="369"/>
      <point x="72" y="393" type="qcurve"/>
      <point x="34" y="428" type="line"/>
      <point x="26" y="435"/>
      <point x="40" y="450"/>
      <point x="48" y="443" type="qcurve"/>
      <point x="86" y="408" type="line"/>
      <point x="117" y="381"/>
      <point x="152" y="348" type="qcurve"/>
      <point x="153" y="349"/>
      <point x="155" y="349" type="qcurve"/>
      <point x="162" y="361"/>
      <point x="169" y="371" type="qcurve"/>
      <point x="163" y="403"/>
      <point x="157" y="428" type="qcurve"/>
      <point x="146" y="470"/>
      <point x="144" y="478" type="qcurve"/>
      <point x="142" y="486" type="line"/>
      <point x="139" y="496"/>
      <point x="159" y="502"/>
      <point x="162" y="492" type="qcurve"/>
      <point x="164" y="484" type="line"/>
      <point x="167" y="476"/>
      <point x="178" y="433" type="qcurve"/>
      <point x="182" y="416"/>
      <point x="186" y="395" type="qcurve"/>
      <point x="197" y="410"/>
      <point x="206" y="422" type="qcurve"/>
      <point x="231" y="453"/>
      <point x="242" y="465" type="qcurve"/>
      <point x="253" y="477" type="line"/>
      <point x="260" y="485"/>
      <point x="276" y="470"/>
      <point x="269" y="463" type="qcurve"/>
      <point x="258" y="451" type="line"/>
      <point x="247" y="439"/>
      <point x="223" y="409" type="qcurve"/>
      <point x="208" y="391"/>
      <point x="192" y="367" type="qcurve"/>
      <point x="192" y="364"/>
      <point x="193" y="361" type="qcurve"/>
      <point x="244" y="376"/>
      <point x="290" y="389" type="qcurve"/>
      <point x="339" y="403" type="line"/>
      <point x="349" y="406"/>
      <point x="355" y="386"/>
      <point x="345" y="383" type="qcurve"/>
      <point x="296" y="369" type="line"/>
      <point x="249" y="356"/>
      <point x="197" y="340" type="qcurve"/>
      <point x="197" y="334"/>
      <point x="199" y="328" type="qcurve"/>
      <point x="201" y="313"/>
      <point x="203" y="300" type="qcurve"/>
      <point x="228" y="277"/>
      <point x="248" y="258" type="qcurve"/>
      <point x="281" y="228" type="line"/>
      <point x="289" y="220"/>
      <point x="275" y="205"/>
      <point x="267" y="212" type="qcurve"/>
      <point x="234" y="243" type="line"/>
      <point x="222" y="253"/>
      <point x="208" y="266" type="qcurve"/>
      <point x="211" y="241"/>
      <point x="214" y="218" type="qcurve"/>
      <point x="219" y="169" type="line"/>
      <point x="220" y="159"/>
      <point x="199" y="157"/>
      <point x="198" y="167" type="qcurve"/>
      <point x="193" y="215" type="line"/>
      <point x="189" y="249"/>
      <point x="183" y="289" type="qcurve"/>
      <point x="171" y="301"/>
      <point x="157" y="314" type="qcurve"/>
      <point x="134" y="276"/>
      <point x="118" y="244" type="qcurve"/>
      <point x="99" y="206" type="line"/>
      <point x="94" y="197"/>
      <point x="76" y="206"/>
      <point x="80" y="215" type="qcurve"/>
      <point x="100" y="254" type="line"/>
      <point x="115" y="285"/>
      <point x="138" y="323" type="qcurve"/>
      <point x="112" y="315"/>
      <point x="88" y="309" type="qcurve"/>
      <point x="40" y="298" type="line"/>
      <point x="30" y="295"/>
      <point x="25" y="316"/>
    </contour>
    <contour>
      <point x="176" y="334" type="qcurve"/>
      <point x="173" y="333"/>
      <point x="169" y="332" type="qcurve"/>
      <point x="170" y="331"/>
      <point x="170" y="331" type="qcurve"/>
      <point x="173" y="328"/>
      <point x="178" y="323" type="qcurve"/>
      <point x="178" y="323"/>
      <point x="178" y="324" type="qcurve"/>
      <point x="177" y="329"/>
    </contour>
  </outline>
</glyph>
<glyph name="plus" format="1">
  <advance width="487"/>
  <unicode hex="002B"/>
  <outline>
    <contour>
      <point x="38" y="298" type="qcurve"/>
      <point x="47" y="297" type="line"/>
      <point x="56" y="296"/>
      <point x="128" y="299" type="qcurve"/>
      <point x="160" y="300"/>
      <point x="199" y="300" type="qcurve"/>
      <point x="201" y="376"/>
      <point x="201" y="440" type="qcurve"/>
      <point x="202" y="506" type="line"/>
      <point x="202" y="510"/>
      <point x="208" y="516"/>
      <point x="216" y="516"/>
      <point x="223" y="510"/>
      <point x="223" y="506" type="qcurve"/>
      <point x="222" y="439" type="line"/>
      <point x="222" y="376"/>
      <point x="220" y="300" type="qcurve"/>
      <point x="260" y="301"/>
      <point x="308" y="301" type="qcurve"/>
      <point x="414" y="300"/>
      <point x="432" y="300" type="qcurve"/>
      <point x="450" y="299" type="line"/>
      <point x="455" y="299"/>
      <point x="460" y="292"/>
      <point x="460" y="284"/>
      <point x="454" y="278"/>
      <point x="449" y="278" type="qcurve"/>
      <point x="432" y="279" type="line"/>
      <point x="414" y="279"/>
      <point x="308" y="280" type="qcurve"/>
      <point x="260" y="280"/>
      <point x="219" y="279" type="qcurve"/>
      <point x="218" y="209"/>
      <point x="228" y="139" type="qcurve"/>
      <point x="238" y="61" type="line"/>
      <point x="239" y="51"/>
      <point x="218" y="48"/>
      <point x="217" y="58" type="qcurve"/>
      <point x="207" y="136" type="line"/>
      <point x="197" y="207"/>
      <point x="198" y="279" type="qcurve"/>
      <point x="160" y="279"/>
      <point x="129" y="278" type="qcurve"/>
      <point x="55" y="275"/>
      <point x="46" y="276" type="qcurve"/>
      <point x="37" y="277" type="line"/>
      <point x="26" y="278"/>
      <point x="28" y="299"/>
    </contour>
  </outline>
</glyph>
<glyph name="comma" format="1">
  <advance width="144"/>
  <unicode hex="002C"/>
  <outline>
    <contour>
      <point x="108" y="65" type="qcurve"/>
      <point x="115" y="46" type="line"/>
      <point x="122" y="25"/>
      <point x="101" y="-47"/>
      <point x="71" y="-69" type="qcurve"/>
      <point x="44" y="-90" type="line"/>
      <point x="36" y="-97"/>
      <point x="23" y="-80"/>
      <point x="31" y="-74" type="qcurve"/>
      <point x="58" y="-53" type="line"/>
      <point x="83" y="-34"/>
      <point x="100" y="24"/>
      <point x="95" y="39" type="qcurve"/>
      <point x="88" y="57" type="line"/>
      <point x="85" y="67"/>
      <point x="104" y="74"/>
    </contour>
  </outline>
</glyph>
<glyph name="hyphen" format="1">
  <advance width="400"/>
  <unicode hex="002D"/>
  <outline>
    <contour>
      <point x="39" y="291" type="qcurve"/>
      <point x="99" y="284" type="line"/>
      <point x="158" y="278"/>
      <point x="261" y="275" type="qcurve"/>
      <point x="363" y="272" type="line"/>
      <point x="368" y="272"/>
      <point x="374" y="265"/>
      <point x="373" y="257"/>
      <point x="367" y="251"/>
      <point x="363" y="251" type="qcurve"/>
      <point x="260" y="254" type="line"/>
      <point x="157" y="257"/>
      <point x="96" y="264" type="qcurve"/>
      <point x="36" y="270" type="line"/>
      <point x="26" y="271"/>
      <point x="28" y="292"/>
    </contour>
  </outline>
</glyph>
<glyph name="period" format="1">
  <advance width="77"/>
  <unicode hex="002E"/>
  <outline>
    <contour>
      <point x="45" y="82" type="qcurve"/>
      <point x="48" y="79" type="line"/>
      <point x="55" y="71"/>
      <point x="41" y="56"/>
      <point x="33" y="64" type="qcurve"/>
      <point x="30" y="67" type="line"/>
      <point x="23" y="74"/>
      <point x="37" y="89"/>
    </contour>
  </outline>
</glyph>
<glyph name="slash" format="1">
  <advance width="377"/>
  <unicode hex="002F"/>
  <outline>
    <contour>
      <point x="350" y="588" type="qcurve"/>
      <point x="318" y="523" type="line"/>
      <point x="286" y="459"/>
      <point x="199" y="266"/>
      <point x="62" y="-64"/>
      <point x="55" y="-82" type="qcurve"/>
      <point x="47" y="-101" type="line"/>
      <point x="43" y="-110"/>
      <point x="24" y="-103"/>
      <point x="28" y="-93" type="qcurve"/>
      <point x="35" y="-74" type="line"/>
      <point x="43" y="-56"/>
      <point x="180" y="274"/>
      <point x="267" y="468"/>
      <point x="299" y="533" type="qcurve"/>
      <point x="331" y="597" type="line"/>
      <point x="335" y="607"/>
      <point x="354" y="597"/>
    </contour>
  </outline>
</glyph>
<glyph name="zero" format="1">
  <advance width="493"/>
  <unicode hex="0030"/>
  <outline>
    <contour>
      <point x="130" y="509" type="qcurve"/>
      <point x="128" y="496"/>
      <point x="117" y="448" type="qcurve"/>
      <point x="107" y="401"/>
      <point x="108" y="330" type="qcurve"/>
      <point x="110" y="260"/>
      <point x="170" y="117"/>
      <point x="211" y="74" type="qcurve"/>
      <point x="251" y="34"/>
      <point x="359" y="46"/>
      <point x="399" y="113" type="qcurve"/>
      <point x="440" y="181"/>
      <point x="445" y="256" type="qcurve"/>
      <point x="450" y="332"/>
      <point x="432" y="403" type="qcurve"/>
      <point x="415" y="474"/>
      <point x="382" y="520" type="qcurve"/>
      <point x="350" y="565"/>
      <point x="306" y="573" type="qcurve"/>
      <point x="262" y="581"/>
      <point x="192" y="547" type="qcurve"/>
      <point x="160" y="531"/>
      <point x="135" y="512" type="qcurve"/>
      <point x="132" y="511"/>
    </contour>
    <contour>
      <point x="104" y="485" type="qcurve"/>
      <point x="93" y="474"/>
      <point x="85" y="462" type="qcurve"/>
      <point x="46" y="409" type="line"/>
      <point x="40" y="400"/>
      <point x="23" y="413"/>
      <point x="29" y="421" type="qcurve"/>
      <point x="68" y="474" type="line"/>
      <point x="83" y="495"/>
      <point x="103" y="513" type="qcurve"/>
      <point x="106" y="516"/>
      <point x="110" y="520" type="qcurve"/>
      <point x="111" y="522"/>
      <point x="111" y="523" type="qcurve"/>
      <point x="112" y="531"/>
      <point x="113" y="540" type="qcurve"/>
      <point x="115" y="559" type="line"/>
      <point x="116" y="570"/>
      <point x="137" y="567"/>
      <point x="136" y="557" type="qcurve"/>
      <point x="133" y="537" type="line"/>
      <point x="156" y="553"/>
      <point x="183" y="566" type="qcurve"/>
      <point x="259" y="603"/>
      <point x="310" y="593" type="qcurve"/>
      <point x="362" y="584"/>
      <point x="399" y="532" type="qcurve"/>
      <point x="434" y="483"/>
      <point x="453" y="408" type="qcurve"/>
      <point x="471" y="334"/>
      <point x="466" y="255" type="qcurve"/>
      <point x="460" y="175"/>
      <point x="417" y="102" type="qcurve"/>
      <point x="371" y="27"/>
      <point x="243" y="12"/>
      <point x="196" y="60" type="qcurve"/>
      <point x="152" y="105"/>
      <point x="89" y="255"/>
      <point x="87" y="330" type="qcurve"/>
      <point x="86" y="403"/>
      <point x="97" y="453" type="qcurve"/>
      <point x="101" y="472"/>
    </contour>
  </outline>
</glyph>
<glyph name="one" format="1">
  <advance width="136"/>
  <unicode hex="0031"/>
  <outline>
    <contour>
      <point x="48" y="639" type="qcurve"/>
      <point x="48" y="626" type="line"/>
      <point x="49" y="614"/>
      <point x="58" y="558" type="qcurve"/>
      <point x="69" y="496"/>
      <point x="77" y="437" type="qcurve"/>
      <point x="85" y="378"/>
      <point x="90" y="301" type="qcurve"/>
      <point x="94" y="226"/>
      <point x="103" y="110"/>
      <point x="106" y="85" type="qcurve"/>
      <point x="108" y="59"/>
      <point x="109" y="39" type="qcurve"/>
      <point x="110" y="19"/>
      <point x="110" y="4" type="qcurve"/>
      <point x="110" y="-11" type="line"/>
      <point x="110" y="-15"/>
      <point x="103" y="-22"/>
      <point x="95" y="-22"/>
      <point x="89" y="-15"/>
      <point x="89" y="-11" type="qcurve"/>
      <point x="89" y="4" type="line"/>
      <point x="89" y="19"/>
      <point x="88" y="38" type="qcurve"/>
      <point x="87" y="57"/>
      <point x="85" y="82" type="qcurve"/>
      <point x="82" y="108"/>
      <point x="73" y="224"/>
      <point x="69" y="300" type="qcurve"/>
      <point x="65" y="375"/>
      <point x="56" y="434" type="qcurve"/>
      <point x="48" y="493"/>
      <point x="38" y="552" type="qcurve"/>
      <point x="28" y="612"/>
      <point x="27" y="626" type="qcurve"/>
      <point x="27" y="639" type="line"/>
      <point x="27" y="643"/>
      <point x="33" y="649"/>
      <point x="41" y="650"/>
      <point x="48" y="644"/>
    </contour>
  </outline>
</glyph>
<glyph name="two" format="1">
  <advance width="466"/>
  <unicode hex="0032"/>
  <outline>
    <contour>
      <point x="28" y="403" type="qcurve"/>
      <point x="27" y="413" type="line"/>
      <point x="26" y="425"/>
      <point x="44" y="467" type="qcurve"/>
      <point x="62" y="508"/>
      <point x="115" y="553" type="qcurve"/>
      <point x="170" y="599"/>
      <point x="209" y="586" type="qcurve"/>
      <point x="246" y="573"/>
      <point x="263" y="513" type="qcurve"/>
      <point x="278" y="455"/>
      <point x="255" y="380" type="qcurve"/>
      <point x="232" y="308"/>
      <point x="183" y="232" type="qcurve"/>
      <point x="135" y="158"/>
      <point x="103" y="105" type="qcurve"/>
      <point x="72" y="53"/>
      <point x="66" y="39" type="qcurve"/>
      <point x="65" y="37"/>
      <point x="65" y="35" type="qcurve"/>
      <point x="66" y="35"/>
      <point x="69" y="34" type="qcurve"/>
      <point x="82" y="30"/>
      <point x="144" y="30" type="qcurve"/>
      <point x="206" y="30"/>
      <point x="275" y="38" type="qcurve"/>
      <point x="345" y="47"/>
      <point x="377" y="48" type="qcurve"/>
      <point x="411" y="49"/>
      <point x="422" y="46" type="qcurve"/>
      <point x="432" y="44" type="line"/>
      <point x="442" y="41"/>
      <point x="436" y="21"/>
      <point x="426" y="23" type="qcurve"/>
      <point x="417" y="26" type="line"/>
      <point x="409" y="28"/>
      <point x="378" y="27" type="qcurve"/>
      <point x="346" y="26"/>
      <point x="277" y="17" type="qcurve"/>
      <point x="207" y="9"/>
      <point x="144" y="9" type="qcurve"/>
      <point x="79" y="9"/>
      <point x="63" y="14" type="qcurve"/>
      <point x="50" y="17"/>
      <point x="42" y="35"/>
      <point x="47" y="47" type="qcurve"/>
      <point x="53" y="62"/>
      <point x="85" y="116" type="qcurve"/>
      <point x="117" y="169"/>
      <point x="166" y="244" type="qcurve"/>
      <point x="213" y="317"/>
      <point x="235" y="387" type="qcurve"/>
      <point x="256" y="455"/>
      <point x="242" y="507" type="qcurve"/>
      <point x="229" y="557"/>
      <point x="202" y="566" type="qcurve"/>
      <point x="175" y="576"/>
      <point x="128" y="537" type="qcurve"/>
      <point x="79" y="495"/>
      <point x="63" y="458" type="qcurve"/>
      <point x="48" y="423"/>
      <point x="48" y="415" type="qcurve"/>
      <point x="49" y="406" type="line"/>
      <point x="51" y="395"/>
      <point x="30" y="393"/>
    </contour>
  </outline>
</glyph>
<glyph name="three" format="1">
  <advance width="380"/>
  <unicode hex="0033"/>
  <outline>
    <contour>
      <point x="28" y="507" type="qcurve"/>
      <point x="34" y="520" type="line"/>
      <point x="42" y="536"/>
      <point x="86" y="567" type="qcurve"/>
      <point x="130" y="599"/>
      <point x="182" y="598" type="qcurve"/>
      <point x="235" y="596"/>
      <point x="277" y="546" type="qcurve"/>
      <point x="319" y="496"/>
      <point x="305" y="430" type="qcurve"/>
      <point x="292" y="366"/>
      <point x="241" y="320" type="qcurve"/>
      <point x="224" y="304"/>
      <point x="211" y="293" type="qcurve"/>
      <point x="214" y="293"/>
      <point x="216" y="294" type="qcurve"/>
      <point x="270" y="302"/>
      <point x="306" y="276" type="qcurve"/>
      <point x="340" y="250"/>
      <point x="360" y="156"/>
      <point x="335" y="115" type="qcurve"/>
      <point x="311" y="74"/>
      <point x="243" y="48" type="qcurve"/>
      <point x="175" y="21"/>
      <point x="127" y="38" type="qcurve"/>
      <point x="79" y="55"/>
      <point x="61" y="100" type="qcurve"/>
      <point x="44" y="140" type="line"/>
      <point x="40" y="149"/>
      <point x="59" y="157"/>
      <point x="63" y="148" type="qcurve"/>
      <point x="80" y="108" type="line"/>
      <point x="95" y="73"/>
      <point x="134" y="58" type="qcurve"/>
      <point x="175" y="44"/>
      <point x="235" y="67" type="qcurve"/>
      <point x="297" y="91"/>
      <point x="317" y="126" type="qcurve"/>
      <point x="338" y="160"/>
      <point x="322" y="238"/>
      <point x="293" y="259" type="qcurve"/>
      <point x="265" y="280"/>
      <point x="219" y="273" type="qcurve"/>
      <point x="194" y="269"/>
      <point x="172" y="278" type="qcurve"/>
      <point x="158" y="283"/>
      <point x="172" y="290" type="qcurve"/>
      <point x="180" y="293"/>
      <point x="227" y="336" type="qcurve"/>
      <point x="273" y="377"/>
      <point x="285" y="434" type="qcurve"/>
      <point x="297" y="490"/>
      <point x="261" y="533" type="qcurve"/>
      <point x="225" y="576"/>
      <point x="181" y="577" type="qcurve"/>
      <point x="137" y="578"/>
      <point x="98" y="550" type="qcurve"/>
      <point x="59" y="522"/>
      <point x="53" y="511" type="qcurve"/>
      <point x="47" y="498" type="line"/>
      <point x="42" y="489"/>
      <point x="23" y="498"/>
    </contour>
  </outline>
</glyph>
<glyph name="four" format="1">
  <advance width="476"/>
  <unicode hex="0034"/>
  <outline>
    <contour>
      <point x="295" y="597" type="qcurve"/>
      <point x="293" y="570" type="line"/>
      <point x="291" y="545"/>
      <point x="283" y="422"/>
      <point x="281" y="314" type="qcurve"/>
      <point x="281" y="273"/>
      <point x="281" y="237" type="qcurve"/>
      <point x="291" y="238"/>
      <point x="299" y="239" type="qcurve"/>
      <point x="342" y="244"/>
      <point x="387" y="268" type="qcurve"/>
      <point x="434" y="293" type="line"/>
      <point x="443" y="298"/>
      <point x="453" y="279"/>
      <point x="444" y="274" type="qcurve"/>
      <point x="397" y="249" type="line"/>
      <point x="348" y="223"/>
      <point x="302" y="218" type="qcurve"/>
      <point x="292" y="217"/>
      <point x="282" y="216" type="qcurve"/>
      <point x="283" y="169"/>
      <point x="286" y="130" type="qcurve"/>
      <point x="293" y="53"/>
      <point x="293" y="22" type="qcurve"/>
      <point x="294" y="-9" type="line"/>
      <point x="294" y="-13"/>
      <point x="288" y="-20"/>
      <point x="279" y="-20"/>
      <point x="273" y="-14"/>
      <point x="273" y="-9" type="qcurve"/>
      <point x="272" y="21" type="line"/>
      <point x="272" y="52"/>
      <point x="265" y="128" type="qcurve"/>
      <point x="262" y="168"/>
      <point x="261" y="215" type="qcurve"/>
      <point x="228" y="214"/>
      <point x="187" y="217" type="qcurve"/>
      <point x="116" y="221"/>
      <point x="73" y="239" type="qcurve"/>
      <point x="49" y="249"/>
      <point x="25" y="269"/>
      <point x="27" y="283" type="qcurve"/>
      <point x="30" y="300"/>
      <point x="55" y="336" type="qcurve"/>
      <point x="78" y="371"/>
      <point x="119" y="436" type="qcurve"/>
      <point x="160" y="502"/>
      <point x="253" y="618"/>
      <point x="260" y="625" type="qcurve"/>
      <point x="267" y="632" type="line"/>
      <point x="274" y="640"/>
      <point x="290" y="626"/>
      <point x="282" y="618" type="qcurve"/>
      <point x="276" y="611" type="line"/>
      <point x="269" y="604"/>
      <point x="177" y="490"/>
      <point x="136" y="425" type="qcurve"/>
      <point x="95" y="359"/>
      <point x="72" y="325" type="qcurve"/>
      <point x="50" y="292"/>
      <point x="48" y="279" type="qcurve"/>
      <point x="48" y="278"/>
      <point x="53" y="273"/>
      <point x="70" y="263"/>
      <point x="81" y="258" type="qcurve"/>
      <point x="121" y="242"/>
      <point x="188" y="238" type="qcurve"/>
      <point x="228" y="235"/>
      <point x="260" y="236" type="qcurve"/>
      <point x="260" y="273"/>
      <point x="260" y="315" type="qcurve"/>
      <point x="262" y="423"/>
      <point x="270" y="546"/>
      <point x="272" y="572" type="qcurve"/>
      <point x="274" y="598" type="line"/>
      <point x="275" y="609"/>
      <point x="296" y="607"/>
    </contour>
  </outline>
</glyph>
<glyph name="five" format="1">
  <advance width="374"/>
  <unicode hex="0035"/>
  <outline>
    <contour>
      <point x="331" y="623" type="qcurve"/>
      <point x="308" y="613" type="line"/>
      <point x="284" y="602"/>
      <point x="252" y="596" type="qcurve"/>
      <point x="221" y="591"/>
      <point x="174" y="588" type="qcurve"/>
      <point x="129" y="585"/>
      <point x="106" y="578" type="qcurve"/>
      <point x="87" y="573"/>
      <point x="74" y="526" type="qcurve"/>
      <point x="60" y="474"/>
      <point x="53" y="409" type="qcurve"/>
      <point x="46" y="346"/>
      <point x="49" y="331" type="qcurve"/>
      <point x="57" y="328"/>
      <point x="82" y="337" type="qcurve"/>
      <point x="126" y="353"/>
      <point x="179" y="356" type="qcurve"/>
      <point x="234" y="359"/>
      <point x="287" y="321" type="qcurve"/>
      <point x="339" y="283"/>
      <point x="354" y="155"/>
      <point x="309" y="106" type="qcurve"/>
      <point x="265" y="58"/>
      <point x="140" y="43"/>
      <point x="56" y="100"/>
      <point x="48" y="134" type="qcurve"/>
      <point x="40" y="165"/>
      <point x="40" y="179" type="qcurve"/>
      <point x="40" y="191" type="line"/>
      <point x="40" y="195"/>
      <point x="46" y="202"/>
      <point x="55" y="202"/>
      <point x="61" y="195"/>
      <point x="61" y="191" type="qcurve"/>
      <point x="61" y="179" type="line"/>
      <point x="61" y="167"/>
      <point x="68" y="139" type="qcurve"/>
      <point x="74" y="113"/>
      <point x="146" y="64"/>
      <point x="254" y="78"/>
      <point x="293" y="121" type="qcurve"/>
      <point x="332" y="162"/>
      <point x="326" y="217" type="qcurve"/>
      <point x="320" y="270"/>
      <point x="274" y="304" type="qcurve"/>
      <point x="228" y="337"/>
      <point x="180" y="335" type="qcurve"/>
      <point x="130" y="333"/>
      <point x="89" y="318" type="qcurve"/>
      <point x="36" y="298"/>
      <point x="29" y="325" type="qcurve"/>
      <point x="24" y="343"/>
      <point x="32" y="411" type="qcurve"/>
      <point x="39" y="478"/>
      <point x="54" y="532" type="qcurve"/>
      <point x="70" y="590"/>
      <point x="100" y="598" type="qcurve"/>
      <point x="126" y="606"/>
      <point x="173" y="609" type="qcurve"/>
      <point x="218" y="612"/>
      <point x="248" y="617" type="qcurve"/>
      <point x="278" y="622"/>
      <point x="299" y="632" type="qcurve"/>
      <point x="322" y="642" type="line"/>
      <point x="332" y="647"/>
      <point x="340" y="627"/>
    </contour>
  </outline>
</glyph>
<glyph name="six" format="1">
  <advance width="460"/>
  <unicode hex="0036"/>
  <outline>
    <contour>
      <point x="68" y="183" type="line"/>
      <point x="68" y="182"/>
      <point x="68" y="181" type="qcurve"/>
      <point x="79" y="146"/>
      <point x="99" y="120" type="qcurve"/>
      <point x="135" y="70"/>
      <point x="201" y="56" type="qcurve"/>
      <point x="268" y="41"/>
      <point x="386" y="93"/>
      <point x="404" y="121" type="qcurve"/>
      <point x="421" y="148"/>
      <point x="405" y="195" type="qcurve"/>
      <point x="389" y="242"/>
      <point x="342" y="266" type="qcurve"/>
      <point x="295" y="290"/>
      <point x="205" y="266" type="qcurve"/>
      <point x="115" y="243"/>
      <point x="81" y="200" type="qcurve"/>
    </contour>
    <contour>
      <point x="52" y="163" type="qcurve"/>
      <point x="46" y="155" type="line"/>
      <point x="39" y="147"/>
      <point x="23" y="160"/>
      <point x="29" y="168" type="qcurve"/>
      <point x="44" y="186" type="line"/>
      <point x="44" y="187"/>
      <point x="44" y="187"/>
      <point x="45" y="188" type="qcurve"/>
      <point x="44" y="190"/>
      <point x="44" y="191" type="qcurve"/>
      <point x="37" y="220"/>
      <point x="34" y="254" type="qcurve"/>
      <point x="28" y="344"/>
      <point x="51" y="412" type="qcurve"/>
      <point x="74" y="480"/>
      <point x="107" y="522" type="qcurve"/>
      <point x="141" y="565"/>
      <point x="206" y="592" type="qcurve"/>
      <point x="270" y="619"/>
      <point x="305" y="625" type="qcurve"/>
      <point x="339" y="631" type="line"/>
      <point x="350" y="633"/>
      <point x="353" y="613"/>
      <point x="343" y="611" type="qcurve"/>
      <point x="309" y="605" type="line"/>
      <point x="276" y="599"/>
      <point x="214" y="573" type="qcurve"/>
      <point x="154" y="547"/>
      <point x="124" y="509" type="qcurve"/>
      <point x="93" y="470"/>
      <point x="71" y="405" type="qcurve"/>
      <point x="49" y="341"/>
      <point x="55" y="255" type="qcurve"/>
      <point x="57" y="231"/>
      <point x="61" y="209" type="qcurve"/>
      <point x="65" y="213" type="line"/>
      <point x="103" y="261"/>
      <point x="200" y="287" type="qcurve"/>
      <point x="297" y="312"/>
      <point x="351" y="285" type="qcurve"/>
      <point x="406" y="257"/>
      <point x="424" y="202" type="qcurve"/>
      <point x="444" y="146"/>
      <point x="421" y="110" type="qcurve"/>
      <point x="400" y="76"/>
      <point x="270" y="19"/>
      <point x="197" y="35" type="qcurve"/>
      <point x="123" y="52"/>
      <point x="82" y="107" type="qcurve"/>
      <point x="64" y="131"/>
    </contour>
  </outline>
</glyph>
<glyph name="seven" format="1">
  <advance width="371"/>
  <unicode hex="0037"/>
  <outline>
    <contour>
      <point x="37" y="624" type="qcurve"/>
      <point x="111" y="630" type="line"/>
      <point x="186" y="635"/>
      <point x="251" y="633" type="qcurve"/>
      <point x="320" y="631"/>
      <point x="334" y="616" type="qcurve"/>
      <point x="349" y="601"/>
      <point x="341" y="543" type="qcurve"/>
      <point x="333" y="489"/>
      <point x="295" y="399" type="qcurve"/>
      <point x="258" y="310"/>
      <point x="229" y="239" type="qcurve"/>
      <point x="200" y="169"/>
      <point x="185" y="101" type="qcurve"/>
      <point x="170" y="33"/>
      <point x="171" y="1" type="qcurve"/>
      <point x="172" y="-31"/>
      <point x="174" y="-41" type="qcurve"/>
      <point x="175" y="-53" type="line"/>
      <point x="177" y="-63"/>
      <point x="156" y="-66"/>
      <point x="154" y="-56" type="qcurve"/>
      <point x="153" y="-45" type="line"/>
      <point x="151" y="-33"/>
      <point x="150" y="1" type="qcurve"/>
      <point x="149" y="35"/>
      <point x="165" y="105" type="qcurve"/>
      <point x="180" y="175"/>
      <point x="210" y="247" type="qcurve"/>
      <point x="239" y="318"/>
      <point x="276" y="407" type="qcurve"/>
      <point x="313" y="494"/>
      <point x="320" y="546" type="qcurve"/>
      <point x="327" y="594"/>
      <point x="319" y="602" type="qcurve"/>
      <point x="311" y="610"/>
      <point x="250" y="612" type="qcurve"/>
      <point x="186" y="614"/>
      <point x="113" y="609" type="qcurve"/>
      <point x="38" y="603" type="line"/>
      <point x="28" y="603"/>
      <point x="26" y="623"/>
    </contour>
  </outline>
</glyph>
<glyph name="eight" format="1">
  <advance width="457"/>
  <unicode hex="0038"/>
  <outline>
    <contour>
      <point x="199" y="325" type="qcurve"/>
      <point x="161" y="280"/>
      <point x="143" y="247" type="qcurve"/>
      <point x="112" y="190"/>
      <point x="116" y="156" type="qcurve"/>
      <point x="120" y="124"/>
      <point x="162" y="96" type="qcurve"/>
      <point x="206" y="68"/>
      <point x="256" y="76" type="qcurve"/>
      <point x="306" y="84"/>
      <point x="346" y="126" type="qcurve"/>
      <point x="384" y="167"/>
      <point x="374" y="204" type="qcurve"/>
      <point x="363" y="243"/>
      <point x="282" y="313"/>
      <point x="219" y="322" type="qcurve"/>
      <point x="209" y="323"/>
    </contour>
    <contour>
      <point x="191" y="348" type="qcurve"/>
      <point x="218" y="379"/>
      <point x="253" y="413" type="qcurve"/>
      <point x="348" y="508"/>
      <point x="381" y="536" type="qcurve"/>
      <point x="414" y="564" type="line"/>
      <point x="422" y="571"/>
      <point x="435" y="555"/>
      <point x="427" y="548" type="qcurve"/>
      <point x="395" y="520" type="line"/>
      <point x="362" y="492"/>
      <point x="268" y="399" type="qcurve"/>
      <point x="238" y="369"/>
      <point x="215" y="343" type="qcurve"/>
      <point x="219" y="343"/>
      <point x="222" y="342" type="qcurve"/>
      <point x="291" y="333"/>
      <point x="382" y="255"/>
      <point x="394" y="209" type="qcurve"/>
      <point x="407" y="161"/>
      <point x="361" y="112" type="qcurve"/>
      <point x="316" y="64"/>
      <point x="259" y="55" type="qcurve"/>
      <point x="201" y="46"/>
      <point x="151" y="79" type="qcurve"/>
      <point x="100" y="112"/>
      <point x="95" y="154" type="qcurve"/>
      <point x="91" y="194"/>
      <point x="124" y="257" type="qcurve"/>
      <point x="141" y="289"/>
      <point x="175" y="329" type="qcurve"/>
      <point x="131" y="340"/>
      <point x="90" y="358" type="qcurve"/>
      <point x="24" y="387"/>
      <point x="27" y="436" type="qcurve"/>
      <point x="30" y="483"/>
      <point x="82" y="533" type="qcurve"/>
      <point x="133" y="583"/>
      <point x="201" y="598" type="qcurve"/>
      <point x="269" y="613"/>
      <point x="329" y="604" type="qcurve"/>
      <point x="388" y="596" type="line"/>
      <point x="398" y="594"/>
      <point x="395" y="573"/>
      <point x="384" y="575" type="qcurve"/>
      <point x="326" y="584" type="line"/>
      <point x="269" y="592"/>
      <point x="206" y="578" type="qcurve"/>
      <point x="143" y="564"/>
      <point x="96" y="518" type="qcurve"/>
      <point x="50" y="473"/>
      <point x="48" y="435" type="qcurve"/>
      <point x="46" y="400"/>
      <point x="99" y="377" type="qcurve"/>
      <point x="142" y="357"/>
    </contour>
  </outline>
</glyph>
<glyph name="nine" format="1">
  <advance width="383"/>
  <unicode hex="0039"/>
  <outline>
    <contour>
      <point x="286" y="510" type="qcurve"/>
      <point x="265" y="532" type="line"/>
      <point x="246" y="553"/>
      <point x="216" y="569" type="qcurve"/>
      <point x="187" y="584"/>
      <point x="168" y="583" type="qcurve"/>
      <point x="148" y="581"/>
      <point x="81" y="534"/>
      <point x="63" y="494" type="qcurve"/>
      <point x="45" y="454"/>
      <point x="49" y="414" type="qcurve"/>
      <point x="53" y="373"/>
      <point x="72" y="346" type="qcurve"/>
      <point x="89" y="320"/>
      <point x="130" y="314" type="qcurve"/>
      <point x="172" y="309"/>
      <point x="211" y="331" type="qcurve"/>
      <point x="250" y="353"/>
      <point x="270" y="388" type="qcurve"/>
      <point x="291" y="424"/>
      <point x="299" y="453" type="qcurve"/>
      <point x="306" y="482"/>
      <point x="308" y="496" type="qcurve"/>
      <point x="309" y="510"/>
      <point x="315" y="514" type="qcurve"/>
      <point x="321" y="517"/>
      <point x="329" y="514"/>
      <point x="331" y="510" type="qcurve"/>
      <point x="333" y="507" type="line"/>
      <point x="337" y="498"/>
      <point x="341" y="477" type="qcurve"/>
      <point x="346" y="456"/>
      <point x="349" y="432" type="qcurve"/>
      <point x="352" y="408"/>
      <point x="357" y="330"/>
      <point x="357" y="293" type="qcurve"/>
      <point x="356" y="255"/>
      <point x="348" y="221" type="qcurve"/>
      <point x="340" y="186"/>
      <point x="321" y="156" type="qcurve"/>
      <point x="303" y="125"/>
      <point x="277" y="104" type="qcurve"/>
      <point x="251" y="84"/>
      <point x="183" y="57"/>
      <point x="116" y="51"/>
      <point x="90" y="57" type="qcurve"/>
      <point x="65" y="63"/>
      <point x="49" y="69" type="qcurve"/>
      <point x="34" y="75" type="line"/>
      <point x="25" y="78"/>
      <point x="32" y="98"/>
      <point x="42" y="94" type="qcurve"/>
      <point x="57" y="88" type="line"/>
      <point x="71" y="83"/>
      <point x="95" y="77" type="qcurve"/>
      <point x="117" y="72"/>
      <point x="178" y="78"/>
      <point x="240" y="102"/>
      <point x="264" y="121" type="qcurve"/>
      <point x="287" y="139"/>
      <point x="303" y="166" type="qcurve"/>
      <point x="320" y="194"/>
      <point x="328" y="226" type="qcurve"/>
      <point x="335" y="258"/>
      <point x="336" y="293" type="qcurve"/>
      <point x="336" y="329"/>
      <point x="331" y="406"/>
      <point x="328" y="430" type="qcurve"/>
      <point x="326" y="448"/>
      <point x="323" y="464" type="qcurve"/>
      <point x="321" y="456"/>
      <point x="319" y="447" type="qcurve"/>
      <point x="311" y="416"/>
      <point x="289" y="377" type="qcurve"/>
      <point x="265" y="338"/>
      <point x="221" y="312" type="qcurve"/>
      <point x="176" y="287"/>
      <point x="127" y="294" type="qcurve"/>
      <point x="77" y="300"/>
      <point x="54" y="334" type="qcurve"/>
      <point x="33" y="366"/>
      <point x="28" y="412" type="qcurve"/>
      <point x="23" y="458"/>
      <point x="64" y="547"/>
      <point x="102" y="575" type="qcurve"/>
      <point x="141" y="602"/>
      <point x="166" y="604" type="qcurve"/>
      <point x="192" y="605"/>
      <point x="225" y="587" type="qcurve"/>
      <point x="259" y="570"/>
      <point x="281" y="547" type="qcurve"/>
      <point x="301" y="524" type="line"/>
      <point x="308" y="517"/>
      <point x="293" y="502"/>
    </contour>
  </outline>
</glyph>
<glyph name="colon" format="1">
  <advance width="110"/>
  <unicode hex="003A"/>
  <outline>
    <contour>
      <point x="78" y="53" type="qcurve"/>
      <point x="81" y="50" type="line"/>
      <point x="88" y="42"/>
      <point x="73" y="28"/>
      <point x="66" y="35" type="qcurve"/>
      <point x="63" y="38" type="line"/>
      <point x="55" y="46"/>
      <point x="70" y="60"/>
    </contour>
    <contour>
      <point x="45" y="442" type="qcurve"/>
      <point x="48" y="439" type="line"/>
      <point x="55" y="432"/>
      <point x="41" y="417"/>
      <point x="33" y="424" type="qcurve"/>
      <point x="30" y="427" type="line"/>
      <point x="23" y="435"/>
      <point x="37" y="450"/>
    </contour>
  </outline>
</glyph>
<glyph name="semicolon" format="1">
  <advance width="134"/>
  <unicode hex="003B"/>
  <outline>
    <contour>
      <point x="105" y="85" type="qcurve"/>
      <point x="107" y="42" type="line"/>
      <point x="110" y="-5"/>
      <point x="77" y="-51" type="qcurve"/>
      <point x="46" y="-94" type="line"/>
      <point x="40" y="-102"/>
      <point x="23" y="-90"/>
      <point x="29" y="-82" type="qcurve"/>
      <point x="60" y="-39" type="line"/>
      <point x="88" y="1"/>
      <point x="86" y="41" type="qcurve"/>
      <point x="84" y="84" type="line"/>
      <point x="84" y="89"/>
      <point x="90" y="95"/>
      <point x="99" y="95"/>
      <point x="105" y="90"/>
    </contour>
    <contour>
      <point x="62" y="464" type="qcurve"/>
      <point x="65" y="461" type="line"/>
      <point x="72" y="454"/>
      <point x="57" y="439"/>
      <point x="50" y="446" type="qcurve"/>
      <point x="47" y="449" type="line"/>
      <point x="39" y="457"/>
      <point x="54" y="472"/>
    </contour>
  </outline>
</glyph>
<glyph name="less" format="1">
  <advance width="371"/>
  <unicode hex="003C"/>
  <outline>
    <contour>
      <point x="303" y="374" type="qcurve"/>
      <point x="295" y="372" type="line"/>
      <point x="289" y="370"/>
      <point x="253" y="352" type="qcurve"/>
      <point x="218" y="334"/>
      <point x="103" y="256"/>
      <point x="73" y="232" type="qcurve"/>
      <point x="47" y="210"/>
      <point x="48" y="194" type="qcurve"/>
      <point x="48" y="190"/>
      <point x="59" y="179"/>
      <point x="87" y="161"/>
      <point x="108" y="152" type="qcurve"/>
      <point x="171" y="122"/>
      <point x="233" y="94" type="qcurve"/>
      <point x="294" y="64"/>
      <point x="317" y="50" type="qcurve"/>
      <point x="340" y="36" type="line"/>
      <point x="349" y="30"/>
      <point x="338" y="12"/>
      <point x="329" y="18" type="qcurve"/>
      <point x="306" y="32" type="line"/>
      <point x="284" y="46"/>
      <point x="224" y="75" type="qcurve"/>
      <point x="163" y="103"/>
      <point x="99" y="132" type="qcurve"/>
      <point x="64" y="148"/>
      <point x="28" y="176"/>
      <point x="27" y="192" type="qcurve"/>
      <point x="25" y="219"/>
      <point x="60" y="248" type="qcurve"/>
      <point x="91" y="273"/>
      <point x="207" y="352"/>
      <point x="244" y="371" type="qcurve"/>
      <point x="281" y="390"/>
      <point x="289" y="392" type="qcurve"/>
      <point x="297" y="394" type="line"/>
      <point x="307" y="397"/>
      <point x="313" y="377"/>
    </contour>
  </outline>
</glyph>
<glyph name="equal" format="1">
  <advance width="538"/>
  <unicode hex="003D"/>
  <outline>
    <contour>
      <point x="90" y="219" type="qcurve"/>
      <point x="111" y="218" type="line"/>
      <point x="132" y="218"/>
      <point x="251" y="220"/>
      <point x="480" y="230"/>
      <point x="491" y="231" type="qcurve"/>
      <point x="501" y="231" type="line"/>
      <point x="505" y="231"/>
      <point x="512" y="225"/>
      <point x="512" y="217"/>
      <point x="506" y="210"/>
      <point x="502" y="210" type="qcurve"/>
      <point x="491" y="210" type="line"/>
      <point x="481" y="209"/>
      <point x="251" y="199"/>
      <point x="132" y="197"/>
      <point x="110" y="197" type="qcurve"/>
      <point x="90" y="198" type="line"/>
      <point x="85" y="198"/>
      <point x="79" y="204"/>
      <point x="79" y="213"/>
      <point x="86" y="219"/>
    </contour>
    <contour>
      <point x="39" y="414" type="qcurve"/>
      <point x="60" y="412" type="line"/>
      <point x="82" y="410"/>
      <point x="155" y="406" type="qcurve"/>
      <point x="227" y="402"/>
      <point x="311" y="393" type="qcurve"/>
      <point x="394" y="383"/>
      <point x="414" y="384" type="qcurve"/>
      <point x="435" y="385" type="line"/>
      <point x="439" y="385"/>
      <point x="446" y="379"/>
      <point x="446" y="370"/>
      <point x="440" y="364"/>
      <point x="436" y="364" type="qcurve"/>
      <point x="415" y="363" type="line"/>
      <point x="393" y="362"/>
      <point x="308" y="372" type="qcurve"/>
      <point x="225" y="381"/>
      <point x="154" y="385" type="qcurve"/>
      <point x="80" y="389"/>
      <point x="58" y="391" type="qcurve"/>
      <point x="36" y="393" type="line"/>
      <point x="26" y="394"/>
      <point x="28" y="415"/>
    </contour>
  </outline>
</glyph>
<glyph name="greater" format="1">
  <advance width="324"/>
  <unicode hex="003E"/>
  <outline>
    <contour>
      <point x="41" y="405" type="qcurve"/>
      <point x="74" y="395" type="line"/>
      <point x="107" y="385"/>
      <point x="190" y="351"/>
      <point x="235" y="330" type="qcurve"/>
      <point x="281" y="308"/>
      <point x="291" y="299" type="qcurve"/>
      <point x="297" y="293"/>
      <point x="298" y="280"/>
      <point x="289" y="262"/>
      <point x="280" y="250"/>
      <point x="272" y="239" type="qcurve"/>
      <point x="242" y="202"/>
      <point x="198" y="167" type="qcurve"/>
      <point x="156" y="134"/>
      <point x="59" y="44"/>
      <point x="52" y="37" type="qcurve"/>
      <point x="45" y="29" type="line"/>
      <point x="38" y="21"/>
      <point x="23" y="35"/>
      <point x="30" y="43" type="qcurve"/>
      <point x="37" y="50" type="line"/>
      <point x="44" y="59"/>
      <point x="142" y="150"/>
      <point x="185" y="184" type="qcurve"/>
      <point x="227" y="217"/>
      <point x="256" y="252" type="qcurve"/>
      <point x="274" y="275"/>
      <point x="276" y="284" type="qcurve"/>
      <point x="265" y="293"/>
      <point x="226" y="311" type="qcurve"/>
      <point x="181" y="332"/>
      <point x="100" y="365"/>
      <point x="68" y="375" type="qcurve"/>
      <point x="35" y="385" type="line"/>
      <point x="25" y="389"/>
      <point x="31" y="409"/>
    </contour>
  </outline>
</glyph>
<glyph name="question" format="1">
  <advance width="279"/>
  <unicode hex="003F"/>
  <outline>
    <contour>
      <point x="179" y="31" type="line"/>
      <point x="187" y="29" type="line"/>
      <point x="193" y="27"/>
      <point x="194" y="27"/>
      <point x="196" y="32"/>
      <point x="196" y="33" type="qcurve"/>
      <point x="195" y="33"/>
      <point x="194" y="34" type="qcurve"/>
      <point x="187" y="36"/>
      <point x="183" y="33" type="qcurve"/>
    </contour>
    <contour>
      <point x="159" y="33" type="qcurve"/>
      <point x="156" y="41"/>
      <point x="163" y="45" type="qcurve"/>
      <point x="171" y="51" type="line"/>
      <point x="183" y="59"/>
      <point x="200" y="54" type="qcurve"/>
      <point x="210" y="50"/>
      <point x="218" y="33"/>
      <point x="215" y="23" type="qcurve"/>
      <point x="211" y="11"/>
      <point x="190" y="4"/>
      <point x="179" y="9" type="qcurve"/>
      <point x="162" y="15" type="line"/>
      <point x="152" y="19"/>
      <point x="156" y="29" type="qcurve"/>
      <point x="157" y="31"/>
    </contour>
    <contour>
      <point x="31" y="439" type="qcurve"/>
      <point x="27" y="482" type="line"/>
      <point x="23" y="529"/>
      <point x="62" y="575" type="qcurve"/>
      <point x="101" y="621"/>
      <point x="154" y="613" type="qcurve"/>
      <point x="205" y="605"/>
      <point x="232" y="572" type="qcurve"/>
      <point x="259" y="538"/>
      <point x="251" y="476" type="qcurve"/>
      <point x="243" y="416"/>
      <point x="210" y="377" type="qcurve"/>
      <point x="179" y="339"/>
      <point x="157" y="319" type="qcurve"/>
      <point x="140" y="302"/>
      <point x="143" y="234" type="qcurve"/>
      <point x="146" y="163"/>
      <point x="150" y="145" type="qcurve"/>
      <point x="153" y="126" type="line"/>
      <point x="155" y="116"/>
      <point x="135" y="112"/>
      <point x="133" y="122" type="qcurve"/>
      <point x="129" y="141" type="line"/>
      <point x="125" y="161"/>
      <point x="122" y="233" type="qcurve"/>
      <point x="118" y="310"/>
      <point x="143" y="334" type="qcurve"/>
      <point x="164" y="354"/>
      <point x="194" y="390" type="qcurve"/>
      <point x="223" y="425"/>
      <point x="230" y="479" type="qcurve"/>
      <point x="237" y="532"/>
      <point x="215" y="559" type="qcurve"/>
      <point x="193" y="586"/>
      <point x="151" y="593" type="qcurve"/>
      <point x="110" y="599"/>
      <point x="78" y="561" type="qcurve"/>
      <point x="45" y="522"/>
      <point x="48" y="484" type="qcurve"/>
      <point x="52" y="441" type="line"/>
      <point x="53" y="431"/>
      <point x="32" y="429"/>
    </contour>
  </outline>
</glyph>
<glyph name="at" format="1">
  <advance width="636"/>
  <unicode hex="0040"/>
  <outline>
    <contour>
      <point x="423" y="323" type="qcurve"/>
      <point x="415" y="330" type="line"/>
      <point x="408" y="336"/>
      <point x="368" y="349" type="qcurve"/>
      <point x="330" y="361"/>
      <point x="292" y="334" type="qcurve"/>
      <point x="251" y="306"/>
      <point x="224" y="255" type="qcurve"/>
      <point x="198" y="204"/>
      <point x="207" y="148" type="qcurve"/>
      <point x="216" y="96"/>
      <point x="239" y="93" type="qcurve"/>
      <point x="265" y="90"/>
      <point x="316" y="130" type="qcurve"/>
      <point x="367" y="171"/>
      <point x="382" y="221" type="qcurve"/>
      <point x="397" y="274"/>
      <point x="399" y="299" type="qcurve"/>
      <point x="392" y="318"/>
      <point x="409" y="320" type="qcurve"/>
      <point x="416" y="320"/>
      <point x="423" y="311"/>
      <point x="424" y="300"/>
      <point x="423" y="284"/>
      <point x="423" y="283" type="qcurve"/>
      <point x="426" y="241"/>
      <point x="442" y="186" type="qcurve"/>
      <point x="459" y="134"/>
      <point x="488" y="114" type="qcurve"/>
      <point x="514" y="97"/>
      <point x="544" y="125" type="qcurve"/>
      <point x="577" y="158"/>
      <point x="585" y="222" type="qcurve"/>
      <point x="594" y="289"/>
      <point x="577" y="355" type="qcurve"/>
      <point x="561" y="420"/>
      <point x="505" y="475" type="qcurve"/>
      <point x="449" y="530"/>
      <point x="381" y="535" type="qcurve"/>
      <point x="312" y="539"/>
      <point x="254" y="511" type="qcurve"/>
      <point x="195" y="483"/>
      <point x="77" y="349"/>
      <point x="57" y="277" type="qcurve"/>
      <point x="38" y="206"/>
      <point x="79" y="47"/>
      <point x="138" y="-11" type="qcurve"/>
      <point x="196" y="-70"/>
      <point x="299" y="-75" type="qcurve"/>
      <point x="402" y="-81"/>
      <point x="490" y="-3" type="qcurve"/>
      <point x="581" y="77" type="line"/>
      <point x="588" y="84"/>
      <point x="602" y="69"/>
      <point x="595" y="62" type="qcurve"/>
      <point x="503" y="-19" type="line"/>
      <point x="409" y="-103"/>
      <point x="298" y="-96" type="qcurve"/>
      <point x="186" y="-90"/>
      <point x="123" y="-26" type="qcurve"/>
      <point x="61" y="37"/>
      <point x="16" y="207"/>
      <point x="37" y="283" type="qcurve"/>
      <point x="58" y="359"/>
      <point x="182" y="501"/>
      <point x="244" y="530" type="qcurve"/>
      <point x="307" y="561"/>
      <point x="382" y="556" type="qcurve"/>
      <point x="458" y="551"/>
      <point x="519" y="490" type="qcurve"/>
      <point x="580" y="431"/>
      <point x="598" y="360" type="qcurve"/>
      <point x="615" y="290"/>
      <point x="606" y="220" type="qcurve"/>
      <point x="597" y="148"/>
      <point x="558" y="110" type="qcurve"/>
      <point x="516" y="70"/>
      <point x="476" y="97" type="qcurve"/>
      <point x="441" y="121"/>
      <point x="422" y="180" type="qcurve"/>
      <point x="413" y="210"/>
      <point x="408" y="237" type="qcurve"/>
      <point x="405" y="226"/>
      <point x="402" y="216" type="qcurve"/>
      <point x="386" y="159"/>
      <point x="329" y="114" type="qcurve"/>
      <point x="271" y="68"/>
      <point x="236" y="73" type="qcurve"/>
      <point x="198" y="78"/>
      <point x="187" y="145" type="qcurve"/>
      <point x="176" y="208"/>
      <point x="206" y="264" type="qcurve"/>
      <point x="235" y="320"/>
      <point x="280" y="352" type="qcurve"/>
      <point x="327" y="385"/>
      <point x="374" y="369" type="qcurve"/>
      <point x="418" y="354"/>
      <point x="428" y="347" type="qcurve"/>
      <point x="436" y="340" type="line"/>
      <point x="445" y="333"/>
      <point x="432" y="317"/>
    </contour>
  </outline>
</glyph>
<glyph name="A" format="1">
  <advance width="509"/>
  <unicode hex="0041"/>
  <outline>
    <contour>
      <point x="28" y="31" type="qcurve"/>
      <point x="38" y="56" type="line"/>
      <point x="49" y="80"/>
      <point x="88" y="188"/>
      <point x="132" y="321"/>
      <point x="173" y="455"/>
      <point x="204" y="555"/>
      <point x="211" y="578" type="qcurve"/>
      <point x="218" y="601"/>
      <point x="221" y="610" type="qcurve"/>
      <point x="231" y="638"/>
      <point x="263" y="585" type="qcurve"/>
      <point x="285" y="550"/>
      <point x="331" y="444"/>
      <point x="381" y="300"/>
      <point x="398" y="254" type="qcurve"/>
      <point x="399" y="252"/>
      <point x="399" y="251" type="qcurve"/>
      <point x="421" y="255"/>
      <point x="432" y="259" type="qcurve"/>
      <point x="463" y="268" type="line"/>
      <point x="473" y="271"/>
      <point x="479" y="251"/>
      <point x="469" y="248" type="qcurve"/>
      <point x="438" y="239" type="line"/>
      <point x="427" y="235"/>
      <point x="407" y="231" type="qcurve"/>
      <point x="420" y="197"/>
      <point x="437" y="164" type="qcurve"/>
      <point x="460" y="118"/>
      <point x="468" y="100" type="qcurve"/>
      <point x="476" y="82"/>
      <point x="479" y="73" type="qcurve"/>
      <point x="482" y="65" type="line"/>
      <point x="486" y="55"/>
      <point x="466" y="48"/>
      <point x="463" y="58" type="qcurve"/>
      <point x="460" y="66" type="line"/>
      <point x="457" y="74"/>
      <point x="441" y="110"/>
      <point x="418" y="155" type="qcurve"/>
      <point x="400" y="190"/>
      <point x="386" y="226" type="qcurve"/>
      <point x="357" y="220"/>
      <point x="314" y="213" type="qcurve"/>
      <point x="222" y="196"/>
      <point x="167" y="184" type="qcurve"/>
      <point x="111" y="173" type="line"/>
      <point x="108" y="172"/>
      <point x="105" y="173" type="qcurve"/>
      <point x="96" y="149"/>
      <point x="88" y="127" type="qcurve"/>
      <point x="68" y="73"/>
      <point x="58" y="47" type="qcurve"/>
      <point x="47" y="23" type="line"/>
      <point x="43" y="13"/>
      <point x="24" y="21"/>
    </contour>
    <contour>
      <point x="112" y="194" type="qcurve"/>
      <point x="162" y="205" type="line"/>
      <point x="218" y="217"/>
      <point x="311" y="233" type="qcurve"/>
      <point x="350" y="240"/>
      <point x="379" y="246" type="qcurve"/>
      <point x="379" y="246"/>
      <point x="378" y="247" type="qcurve"/>
      <point x="362" y="293"/>
      <point x="337" y="365" type="qcurve"/>
      <point x="312" y="436"/>
      <point x="289" y="488" type="qcurve"/>
      <point x="266" y="540"/>
      <point x="245" y="574" type="qcurve"/>
      <point x="241" y="582"/>
      <point x="236" y="588" type="qcurve"/>
      <point x="234" y="581"/>
      <point x="231" y="572" type="qcurve"/>
      <point x="224" y="549"/>
      <point x="193" y="449"/>
      <point x="152" y="314"/>
      <point x="130" y="248" type="qcurve"/>
      <point x="121" y="220"/>
    </contour>
  </outline>
</glyph>
<glyph name="B" format="1">
  <advance width="470"/>
  <unicode hex="0042"/>
  <outline>
    <contour>
      <point x="235" y="340" type="qcurve"/>
      <point x="194" y="340"/>
      <point x="159" y="321" type="qcurve"/>
      <point x="145" y="313"/>
      <point x="135" y="307" type="qcurve"/>
      <point x="139" y="307"/>
      <point x="140" y="308" type="qcurve"/>
      <point x="163" y="309"/>
      <point x="217" y="332" type="qcurve"/>
      <point x="226" y="336"/>
    </contour>
    <contour>
      <point x="68" y="587" type="qcurve"/>
      <point x="87" y="601" type="line"/>
      <point x="107" y="616"/>
      <point x="168" y="638" type="qcurve"/>
      <point x="231" y="661"/>
      <point x="280" y="652" type="qcurve"/>
      <point x="330" y="643"/>
      <point x="375" y="598"/>
      <point x="397" y="507"/>
      <point x="384" y="466" type="qcurve"/>
      <point x="371" y="426"/>
      <point x="327" y="381" type="qcurve"/>
      <point x="313" y="367"/>
      <point x="297" y="355" type="qcurve"/>
      <point x="314" y="351"/>
      <point x="330" y="344" type="qcurve"/>
      <point x="374" y="328"/>
      <point x="400" y="298" type="qcurve"/>
      <point x="426" y="269"/>
      <point x="436" y="237" type="qcurve"/>
      <point x="447" y="205"/>
      <point x="442" y="163" type="qcurve"/>
      <point x="436" y="121"/>
      <point x="392" y="74" type="qcurve"/>
      <point x="348" y="28"/>
      <point x="302" y="14" type="qcurve"/>
      <point x="256" y="0"/>
      <point x="207" y="7" type="qcurve"/>
      <point x="160" y="14"/>
      <point x="96" y="45" type="qcurve"/>
      <point x="94" y="45" type="line"/>
      <point x="93" y="38"/>
      <point x="85" y="38" type="qcurve"/>
      <point x="75" y="36"/>
      <point x="74" y="47" type="qcurve"/>
      <point x="73" y="56" type="line"/>
      <point x="33" y="75" type="line"/>
      <point x="23" y="80"/>
      <point x="33" y="99"/>
      <point x="42" y="94" type="qcurve"/>
      <point x="70" y="80" type="line"/>
      <point x="67" y="110"/>
      <point x="57" y="176" type="qcurve"/>
      <point x="47" y="248"/>
      <point x="40" y="412"/>
      <point x="41" y="477" type="qcurve"/>
      <point x="42" y="542"/>
      <point x="43" y="555" type="qcurve"/>
      <point x="43" y="568" type="line"/>
      <point x="43" y="572"/>
      <point x="50" y="578"/>
      <point x="58" y="578"/>
      <point x="64" y="571"/>
      <point x="64" y="567" type="qcurve"/>
      <point x="64" y="554" type="line"/>
      <point x="63" y="542"/>
      <point x="62" y="477" type="qcurve"/>
      <point x="61" y="412"/>
      <point x="64" y="331" type="qcurve"/>
      <point x="68" y="250"/>
      <point x="78" y="179" type="qcurve"/>
      <point x="89" y="107"/>
      <point x="92" y="78" type="qcurve"/>
      <point x="93" y="70" type="line"/>
      <point x="105" y="64" type="line"/>
      <point x="166" y="34"/>
      <point x="210" y="27" type="qcurve"/>
      <point x="254" y="21"/>
      <point x="295" y="34" type="qcurve"/>
      <point x="336" y="46"/>
      <point x="377" y="89" type="qcurve"/>
      <point x="416" y="130"/>
      <point x="421" y="166" type="qcurve"/>
      <point x="426" y="202"/>
      <point x="416" y="230" type="qcurve"/>
      <point x="407" y="258"/>
      <point x="384" y="284" type="qcurve"/>
      <point x="362" y="310"/>
      <point x="322" y="325" type="qcurve"/>
      <point x="301" y="333"/>
      <point x="278" y="337" type="qcurve"/>
      <point x="276" y="337"/>
      <point x="273" y="338" type="qcurve"/>
      <point x="268" y="334"/>
      <point x="263" y="332" type="qcurve"/>
      <point x="245" y="321"/>
      <point x="225" y="312" type="qcurve"/>
      <point x="168" y="288"/>
      <point x="141" y="287" type="qcurve"/>
      <point x="135" y="287"/>
      <point x="119" y="286"/>
      <point x="106" y="293"/>
      <point x="105" y="301" type="qcurve"/>
      <point x="105" y="305"/>
      <point x="106" y="311"/>
      <point x="112" y="317"/>
      <point x="116" y="322"/>
      <point x="127" y="328"/>
      <point x="133" y="331"/>
      <point x="146" y="338"/>
      <point x="149" y="339" type="qcurve"/>
      <point x="191" y="361"/>
      <point x="239" y="361" type="qcurve"/>
      <point x="247" y="361"/>
      <point x="255" y="361" type="qcurve"/>
      <point x="261" y="360"/>
      <point x="268" y="359" type="qcurve"/>
      <point x="271" y="362"/>
      <point x="273" y="363" type="qcurve"/>
      <point x="294" y="378"/>
      <point x="312" y="396" type="qcurve"/>
      <point x="352" y="437"/>
      <point x="364" y="473" type="qcurve"/>
      <point x="376" y="508"/>
      <point x="356" y="587"/>
      <point x="319" y="623"/>
      <point x="276" y="631" type="qcurve"/>
      <point x="233" y="639"/>
      <point x="176" y="619" type="qcurve"/>
      <point x="117" y="598"/>
      <point x="100" y="584" type="qcurve"/>
      <point x="81" y="570" type="line"/>
      <point x="73" y="564"/>
      <point x="60" y="581"/>
    </contour>
  </outline>
</glyph>
<glyph name="C" format="1">
  <advance width="540"/>
  <unicode hex="0043"/>
  <outline>
    <contour>
      <point x="440" y="429" type="qcurve"/>
      <point x="435" y="443" type="line"/>
      <point x="429" y="457"/>
      <point x="417" y="493" type="qcurve"/>
      <point x="405" y="527"/>
      <point x="377" y="556" type="qcurve"/>
      <point x="351" y="585"/>
      <point x="252" y="607"/>
      <point x="209" y="590" type="qcurve"/>
      <point x="165" y="572"/>
      <point x="129" y="535" type="qcurve"/>
      <point x="93" y="497"/>
      <point x="52" y="411"/>
      <point x="45" y="327"/>
      <point x="62" y="275" type="qcurve"/>
      <point x="79" y="222"/>
      <point x="110" y="166" type="qcurve"/>
      <point x="141" y="111"/>
      <point x="204" y="60"/>
      <point x="241" y="47" type="qcurve"/>
      <point x="277" y="36"/>
      <point x="327" y="60" type="qcurve"/>
      <point x="378" y="85"/>
      <point x="417" y="139" type="qcurve"/>
      <point x="457" y="194"/>
      <point x="475" y="243" type="qcurve"/>
      <point x="493" y="294" type="line"/>
      <point x="497" y="304"/>
      <point x="517" y="297"/>
      <point x="513" y="287" type="qcurve"/>
      <point x="495" y="236" type="line"/>
      <point x="476" y="184"/>
      <point x="434" y="126" type="qcurve"/>
      <point x="392" y="68"/>
      <point x="336" y="41" type="qcurve"/>
      <point x="279" y="13"/>
      <point x="235" y="28" type="qcurve"/>
      <point x="193" y="41"/>
      <point x="124" y="97"/>
      <point x="92" y="156" type="qcurve"/>
      <point x="59" y="214"/>
      <point x="42" y="269" type="qcurve"/>
      <point x="24" y="325"/>
      <point x="31" y="416"/>
      <point x="75" y="509"/>
      <point x="114" y="550" type="qcurve"/>
      <point x="153" y="590"/>
      <point x="201" y="609" type="qcurve"/>
      <point x="250" y="629"/>
      <point x="362" y="604"/>
      <point x="393" y="570" type="qcurve"/>
      <point x="423" y="538"/>
      <point x="436" y="500" type="qcurve"/>
      <point x="449" y="465"/>
      <point x="454" y="451" type="qcurve"/>
      <point x="460" y="437" type="line"/>
      <point x="464" y="427"/>
      <point x="444" y="419"/>
    </contour>
  </outline>
</glyph>
<glyph name="D" format="1">
  <advance width="537"/>
  <unicode hex="0044"/>
  <outline>
    <contour>
      <point x="79" y="549" type="qcurve"/>
      <point x="76" y="560"/>
      <point x="86" y="563" type="qcurve"/>
      <point x="90" y="564" type="line"/>
      <point x="94" y="569"/>
      <point x="100" y="568" type="qcurve"/>
      <point x="101" y="568"/>
      <point x="102" y="567" type="qcurve"/>
      <point x="135" y="577" type="line"/>
      <point x="185" y="592"/>
      <point x="240" y="596" type="qcurve"/>
      <point x="297" y="600"/>
      <point x="363" y="574" type="qcurve"/>
      <point x="431" y="547"/>
      <point x="469" y="479" type="qcurve"/>
      <point x="507" y="412"/>
      <point x="510" y="342" type="qcurve"/>
      <point x="513" y="272"/>
      <point x="462" y="135"/>
      <point x="413" y="85" type="qcurve"/>
      <point x="364" y="35"/>
      <point x="233" y="0"/>
      <point x="165" y="21" type="qcurve"/>
      <point x="140" y="29"/>
      <point x="120" y="36" type="qcurve"/>
      <point x="121" y="28"/>
      <point x="120" y="24" type="qcurve"/>
      <point x="120" y="16" type="line"/>
      <point x="120" y="11"/>
      <point x="113" y="5"/>
      <point x="105" y="6"/>
      <point x="99" y="12"/>
      <point x="99" y="16" type="qcurve"/>
      <point x="99" y="25" type="line"/>
      <point x="100" y="29"/>
      <point x="98" y="45" type="qcurve"/>
      <point x="78" y="54"/>
      <point x="64" y="64" type="qcurve"/>
      <point x="32" y="85" type="line"/>
      <point x="23" y="91"/>
      <point x="35" y="108"/>
      <point x="43" y="103" type="qcurve"/>
      <point x="76" y="81" type="line"/>
      <point x="84" y="75"/>
      <point x="96" y="70" type="qcurve"/>
      <point x="96" y="75"/>
      <point x="95" y="80" type="qcurve"/>
      <point x="90" y="128"/>
      <point x="83" y="216" type="qcurve"/>
      <point x="76" y="304"/>
      <point x="77" y="391" type="qcurve"/>
      <point x="78" y="479"/>
      <point x="83" y="519" type="qcurve"/>
      <point x="86" y="543" type="line"/>
      <point x="81" y="544"/>
    </contour>
    <contour>
      <point x="118" y="60" type="qcurve"/>
      <point x="141" y="50"/>
      <point x="171" y="41" type="qcurve"/>
      <point x="234" y="22"/>
      <point x="353" y="54"/>
      <point x="398" y="100" type="qcurve"/>
      <point x="444" y="147"/>
      <point x="492" y="275"/>
      <point x="489" y="341" type="qcurve"/>
      <point x="486" y="406"/>
      <point x="451" y="469" type="qcurve"/>
      <point x="416" y="530"/>
      <point x="355" y="554" type="qcurve"/>
      <point x="293" y="579"/>
      <point x="242" y="575" type="qcurve"/>
      <point x="189" y="571"/>
      <point x="141" y="557" type="qcurve"/>
      <point x="108" y="547" type="line"/>
      <point x="104" y="516" type="line"/>
      <point x="99" y="477"/>
      <point x="97" y="305"/>
      <point x="104" y="217" type="qcurve"/>
      <point x="111" y="130"/>
      <point x="116" y="82" type="qcurve"/>
      <point x="117" y="69"/>
    </contour>
  </outline>
</glyph>
<glyph name="E" format="1">
  <advance width="521"/>
  <unicode hex="0045"/>
  <outline>
    <contour>
      <point x="36" y="574" type="qcurve"/>
      <point x="43" y="575" type="line"/>
      <point x="49" y="576"/>
      <point x="104" y="582" type="qcurve"/>
      <point x="160" y="588"/>
      <point x="268" y="598"/>
      <point x="360" y="605" type="qcurve"/>
      <point x="452" y="613"/>
      <point x="467" y="615" type="qcurve"/>
      <point x="482" y="618" type="line"/>
      <point x="492" y="619"/>
      <point x="496" y="598"/>
      <point x="485" y="597" type="qcurve"/>
      <point x="470" y="594" type="line"/>
      <point x="454" y="592"/>
      <point x="362" y="584" type="qcurve"/>
      <point x="270" y="577"/>
      <point x="162" y="567"/>
      <point x="51" y="555"/>
      <point x="45" y="554" type="qcurve"/>
      <point x="39" y="553" type="line"/>
      <point x="28" y="552"/>
      <point x="26" y="573"/>
    </contour>
    <contour>
      <point x="83" y="532" type="qcurve"/>
      <point x="81" y="490" type="line"/>
      <point x="79" y="447"/>
      <point x="80" y="364" type="qcurve"/>
      <point x="80" y="357"/>
      <point x="80" y="348" type="qcurve"/>
      <point x="84" y="351"/>
      <point x="88" y="350" type="qcurve"/>
      <point x="103" y="348" type="line"/>
      <point x="118" y="346"/>
      <point x="159" y="346" type="qcurve"/>
      <point x="200" y="346"/>
      <point x="263" y="347" type="qcurve"/>
      <point x="324" y="348"/>
      <point x="338" y="353" type="qcurve"/>
      <point x="353" y="359" type="line"/>
      <point x="363" y="363"/>
      <point x="371" y="344"/>
      <point x="361" y="340" type="qcurve"/>
      <point x="345" y="334" type="line"/>
      <point x="328" y="327"/>
      <point x="263" y="326" type="qcurve"/>
      <point x="200" y="325"/>
      <point x="159" y="325" type="qcurve"/>
      <point x="117" y="325"/>
      <point x="100" y="327" type="qcurve"/>
      <point x="85" y="329" type="line"/>
      <point x="82" y="330"/>
      <point x="80" y="331" type="qcurve"/>
      <point x="81" y="265"/>
      <point x="83" y="203" type="qcurve"/>
      <point x="85" y="125"/>
      <point x="91" y="95" type="qcurve"/>
      <point x="98" y="65"/>
      <point x="105" y="52" type="qcurve"/>
      <point x="112" y="41"/>
      <point x="127" y="35" type="qcurve"/>
      <point x="144" y="28"/>
      <point x="204" y="34" type="qcurve"/>
      <point x="267" y="40"/>
      <point x="326" y="41" type="qcurve"/>
      <point x="383" y="42"/>
      <point x="421" y="43" type="qcurve"/>
      <point x="458" y="44"/>
      <point x="469" y="45" type="qcurve"/>
      <point x="481" y="47" type="line"/>
      <point x="491" y="49"/>
      <point x="494" y="28"/>
      <point x="484" y="27" type="qcurve"/>
      <point x="473" y="25" type="line"/>
      <point x="460" y="23"/>
      <point x="422" y="22" type="qcurve"/>
      <point x="384" y="21"/>
      <point x="326" y="20" type="qcurve"/>
      <point x="268" y="19"/>
      <point x="206" y="13" type="qcurve"/>
      <point x="141" y="7"/>
      <point x="120" y="15" type="qcurve"/>
      <point x="97" y="24"/>
      <point x="87" y="42" type="qcurve"/>
      <point x="78" y="58"/>
      <point x="71" y="91" type="qcurve"/>
      <point x="64" y="123"/>
      <point x="62" y="202" type="qcurve"/>
      <point x="60" y="280"/>
      <point x="59" y="364" type="qcurve"/>
      <point x="58" y="448"/>
      <point x="60" y="491" type="qcurve"/>
      <point x="62" y="533" type="line"/>
      <point x="63" y="538"/>
      <point x="69" y="544"/>
      <point x="78" y="543"/>
      <point x="84" y="537"/>
    </contour>
  </outline>
</glyph>
<glyph name="F" format="1">
  <advance width="445"/>
  <unicode hex="0046"/>
  <outline>
    <contour>
      <point x="64" y="286" type="qcurve"/>
      <point x="119" y="297" type="line"/>
      <point x="175" y="308"/>
      <point x="324" y="328"/>
      <point x="366" y="331" type="qcurve"/>
      <point x="408" y="333" type="line"/>
      <point x="418" y="334"/>
      <point x="420" y="313"/>
      <point x="409" y="312" type="qcurve"/>
      <point x="367" y="310" type="line"/>
      <point x="326" y="307"/>
      <point x="178" y="287"/>
      <point x="123" y="276" type="qcurve"/>
      <point x="68" y="265" type="line"/>
      <point x="58" y="263"/>
      <point x="54" y="283"/>
    </contour>
    <contour>
      <point x="29" y="548" type="qcurve"/>
      <point x="24" y="557"/>
      <point x="33" y="562" type="qcurve"/>
      <point x="42" y="567" type="line"/>
      <point x="42" y="569"/>
      <point x="42" y="571" type="qcurve"/>
      <point x="45" y="590" type="line"/>
      <point x="46" y="600"/>
      <point x="67" y="597"/>
      <point x="66" y="587" type="qcurve"/>
      <point x="64" y="577" type="line"/>
      <point x="79" y="583"/>
      <point x="109" y="594" type="qcurve"/>
      <point x="163" y="613"/>
      <point x="238" y="626" type="qcurve"/>
      <point x="314" y="639"/>
      <point x="331" y="638" type="qcurve"/>
      <point x="346" y="637" type="line"/>
      <point x="356" y="636"/>
      <point x="355" y="615"/>
      <point x="344" y="616" type="qcurve"/>
      <point x="329" y="617" type="line"/>
      <point x="315" y="618"/>
      <point x="242" y="605" type="qcurve"/>
      <point x="169" y="592"/>
      <point x="116" y="574" type="qcurve"/>
      <point x="78" y="561"/>
      <point x="61" y="553" type="qcurve"/>
      <point x="59" y="536"/>
      <point x="57" y="509" type="qcurve"/>
      <point x="54" y="469"/>
      <point x="50" y="371" type="qcurve"/>
      <point x="46" y="273"/>
      <point x="56" y="123"/>
      <point x="70" y="51"/>
      <point x="75" y="39" type="qcurve"/>
      <point x="79" y="26" type="line"/>
      <point x="83" y="16"/>
      <point x="63" y="9"/>
      <point x="60" y="19" type="qcurve"/>
      <point x="55" y="32" type="line"/>
      <point x="50" y="45"/>
      <point x="35" y="120"/>
      <point x="25" y="272"/>
      <point x="29" y="371" type="qcurve"/>
      <point x="33" y="470"/>
      <point x="36" y="511" type="qcurve"/>
      <point x="38" y="529"/>
      <point x="39" y="543" type="qcurve"/>
      <point x="32" y="543"/>
    </contour>
  </outline>
</glyph>
<glyph name="G" format="1">
  <advance width="567"/>
  <unicode hex="0047"/>
  <outline>
    <contour>
      <point x="413" y="401" type="qcurve"/>
      <point x="413" y="409" type="line"/>
      <point x="413" y="415"/>
      <point x="407" y="445" type="qcurve"/>
      <point x="402" y="475"/>
      <point x="382" y="516" type="qcurve"/>
      <point x="362" y="556"/>
      <point x="328" y="575" type="qcurve"/>
      <point x="295" y="593"/>
      <point x="220" y="571" type="qcurve"/>
      <point x="144" y="549"/>
      <point x="105" y="502" type="qcurve"/>
      <point x="65" y="454"/>
      <point x="54" y="420" type="qcurve"/>
      <point x="43" y="386"/>
      <point x="53" y="327" type="qcurve"/>
      <point x="64" y="267"/>
      <point x="137" y="154"/>
      <point x="183" y="114" type="qcurve"/>
      <point x="227" y="75"/>
      <point x="274" y="68" type="qcurve"/>
      <point x="320" y="61"/>
      <point x="362" y="97" type="qcurve"/>
      <point x="405" y="133"/>
      <point x="407" y="187"/>
      <point x="374" y="220" type="qcurve"/>
      <point x="339" y="255"/>
      <point x="296" y="266" type="qcurve"/>
      <point x="250" y="278"/>
      <point x="235" y="279" type="qcurve"/>
      <point x="234" y="279"/>
      <point x="229" y="278"/>
      <point x="226" y="279"/>
      <point x="220" y="282"/>
      <point x="218" y="285" type="qcurve"/>
      <point x="214" y="293"/>
      <point x="219" y="302"/>
      <point x="225" y="303" type="qcurve"/>
      <point x="231" y="305" type="line"/>
      <point x="246" y="309"/>
      <point x="299" y="322" type="qcurve"/>
      <point x="351" y="334"/>
      <point x="391" y="345" type="qcurve"/>
      <point x="433" y="355"/>
      <point x="444" y="354" type="qcurve"/>
      <point x="458" y="352"/>
      <point x="466" y="338" type="qcurve"/>
      <point x="471" y="327"/>
      <point x="501" y="214"/>
      <point x="508" y="140" type="qcurve"/>
      <point x="515" y="67"/>
      <point x="524" y="26" type="qcurve"/>
      <point x="532" y="-11"/>
      <point x="535" y="-18" type="qcurve"/>
      <point x="539" y="-24" type="line"/>
      <point x="545" y="-33"/>
      <point x="527" y="-44"/>
      <point x="521" y="-35" type="qcurve"/>
      <point x="517" y="-29" type="line"/>
      <point x="512" y="-22"/>
      <point x="503" y="22" type="qcurve"/>
      <point x="494" y="64"/>
      <point x="487" y="138" type="qcurve"/>
      <point x="480" y="210"/>
      <point x="466" y="265" type="qcurve"/>
      <point x="451" y="320"/>
      <point x="447" y="328" type="qcurve"/>
      <point x="445" y="333"/>
      <point x="441" y="333" type="qcurve"/>
      <point x="435" y="334"/>
      <point x="396" y="324" type="qcurve"/>
      <point x="356" y="314"/>
      <point x="303" y="302" type="qcurve"/>
      <point x="286" y="297"/>
      <point x="272" y="294" type="qcurve"/>
      <point x="285" y="291"/>
      <point x="301" y="287" type="qcurve"/>
      <point x="350" y="274"/>
      <point x="389" y="235" type="qcurve"/>
      <point x="429" y="195"/>
      <point x="425" y="122"/>
      <point x="326" y="39"/>
      <point x="271" y="47" type="qcurve"/>
      <point x="218" y="55"/>
      <point x="169" y="98" type="qcurve"/>
      <point x="121" y="140"/>
      <point x="83" y="199" type="qcurve"/>
      <point x="44" y="260"/>
      <point x="21" y="387"/>
      <point x="34" y="426" type="qcurve"/>
      <point x="46" y="465"/>
      <point x="88" y="516" type="qcurve"/>
      <point x="132" y="568"/>
      <point x="214" y="592" type="qcurve"/>
      <point x="298" y="616"/>
      <point x="338" y="593" type="qcurve"/>
      <point x="378" y="571"/>
      <point x="401" y="525" type="qcurve"/>
      <point x="422" y="482"/>
      <point x="428" y="449" type="qcurve"/>
      <point x="434" y="417"/>
      <point x="434" y="408" type="qcurve"/>
      <point x="434" y="401" type="line"/>
      <point x="434" y="397"/>
      <point x="427" y="391"/>
      <point x="419" y="391"/>
      <point x="413" y="397"/>
    </contour>
  </outline>
</glyph>
<glyph name="H" format="1">
  <advance width="498"/>
  <unicode hex="0048"/>
  <outline>
    <contour>
      <point x="34" y="263" type="qcurve"/>
      <point x="44" y="266" type="line"/>
      <point x="47" y="267"/>
      <point x="64" y="273" type="qcurve"/>
      <point x="63" y="279"/>
      <point x="62" y="285" type="qcurve"/>
      <point x="46" y="405"/>
      <point x="42" y="482" type="qcurve"/>
      <point x="38" y="559"/>
      <point x="38" y="571" type="qcurve"/>
      <point x="37" y="583" type="line"/>
      <point x="37" y="587"/>
      <point x="43" y="594"/>
      <point x="51" y="594"/>
      <point x="58" y="588"/>
      <point x="58" y="584" type="qcurve"/>
      <point x="59" y="572" type="line"/>
      <point x="59" y="560"/>
      <point x="63" y="483" type="qcurve"/>
      <point x="67" y="407"/>
      <point x="83" y="288" type="qcurve"/>
      <point x="84" y="283"/>
      <point x="84" y="280" type="qcurve"/>
      <point x="108" y="288"/>
      <point x="143" y="300" type="qcurve"/>
      <point x="233" y="330"/>
      <point x="313" y="344" type="qcurve"/>
      <point x="356" y="352"/>
      <point x="386" y="356" type="qcurve"/>
      <point x="386" y="417"/>
      <point x="393" y="477" type="qcurve"/>
      <point x="401" y="537" type="line"/>
      <point x="402" y="547"/>
      <point x="423" y="544"/>
      <point x="421" y="534" type="qcurve"/>
      <point x="414" y="474" type="line"/>
      <point x="407" y="417"/>
      <point x="407" y="358" type="qcurve"/>
      <point x="418" y="359"/>
      <point x="426" y="360" type="qcurve"/>
      <point x="460" y="361" type="line"/>
      <point x="465" y="361"/>
      <point x="471" y="355"/>
      <point x="471" y="347"/>
      <point x="465" y="340"/>
      <point x="461" y="340" type="qcurve"/>
      <point x="427" y="339" type="line"/>
      <point x="419" y="338"/>
      <point x="407" y="337" type="qcurve"/>
      <point x="408" y="279"/>
      <point x="409" y="195" type="qcurve"/>
      <point x="411" y="99"/>
      <point x="412" y="65" type="qcurve"/>
      <point x="413" y="31" type="line"/>
      <point x="413" y="27"/>
      <point x="407" y="20"/>
      <point x="399" y="20"/>
      <point x="392" y="26"/>
      <point x="392" y="30" type="qcurve"/>
      <point x="391" y="64" type="line"/>
      <point x="390" y="98"/>
      <point x="388" y="195" type="qcurve"/>
      <point x="387" y="278"/>
      <point x="386" y="335" type="qcurve"/>
      <point x="357" y="331"/>
      <point x="316" y="324" type="qcurve"/>
      <point x="239" y="310"/>
      <point x="149" y="280" type="qcurve"/>
      <point x="110" y="266"/>
      <point x="87" y="259" type="qcurve"/>
      <point x="101" y="159"/>
      <point x="115" y="97" type="qcurve"/>
      <point x="131" y="25"/>
      <point x="135" y="9" type="qcurve"/>
      <point x="140" y="-8" type="line"/>
      <point x="142" y="-18"/>
      <point x="122" y="-24"/>
      <point x="119" y="-14" type="qcurve"/>
      <point x="115" y="3" type="line"/>
      <point x="110" y="20"/>
      <point x="94" y="92" type="qcurve"/>
      <point x="81" y="154"/>
      <point x="67" y="252" type="qcurve"/>
      <point x="54" y="247"/>
      <point x="50" y="246" type="qcurve"/>
      <point x="41" y="243" type="line"/>
      <point x="31" y="240"/>
      <point x="24" y="260"/>
    </contour>
  </outline>
</glyph>
<glyph name="I" format="1">
  <advance width="103"/>
  <unicode hex="0049"/>
  <outline>
    <contour>
      <point x="50" y="599" type="qcurve"/>
      <point x="48" y="592" type="line"/>
      <point x="47" y="584"/>
      <point x="50" y="528" type="qcurve"/>
      <point x="53" y="469"/>
      <point x="64" y="288"/>
      <point x="67" y="174" type="qcurve"/>
      <point x="71" y="60"/>
      <point x="74" y="38" type="qcurve"/>
      <point x="77" y="16" type="line"/>
      <point x="78" y="6"/>
      <point x="57" y="3"/>
      <point x="56" y="13" type="qcurve"/>
      <point x="53" y="35" type="line"/>
      <point x="50" y="58"/>
      <point x="46" y="173" type="qcurve"/>
      <point x="43" y="287"/>
      <point x="38" y="378" type="qcurve"/>
      <point x="32" y="468"/>
      <point x="29" y="527" type="qcurve"/>
      <point x="26" y="588"/>
      <point x="28" y="596" type="qcurve"/>
      <point x="29" y="603" type="line"/>
      <point x="31" y="613"/>
      <point x="52" y="609"/>
    </contour>
  </outline>
</glyph>
<glyph name="J" format="1">
  <advance width="435"/>
  <unicode hex="004A"/>
  <outline>
    <contour>
      <point x="396" y="583" type="qcurve"/>
      <point x="396" y="560" type="line"/>
      <point x="396" y="536"/>
      <point x="400" y="477" type="qcurve"/>
      <point x="404" y="416"/>
      <point x="407" y="327" type="qcurve"/>
      <point x="411" y="238"/>
      <point x="403" y="190" type="qcurve"/>
      <point x="395" y="140"/>
      <point x="372" y="104" type="qcurve"/>
      <point x="349" y="67"/>
      <point x="307" y="46" type="qcurve"/>
      <point x="265" y="26"/>
      <point x="226" y="28" type="qcurve"/>
      <point x="188" y="30"/>
      <point x="152" y="45" type="qcurve"/>
      <point x="116" y="60"/>
      <point x="81" y="97" type="qcurve"/>
      <point x="47" y="134"/>
      <point x="37" y="155" type="qcurve"/>
      <point x="28" y="175" type="line"/>
      <point x="24" y="185"/>
      <point x="43" y="194"/>
      <point x="47" y="184" type="qcurve"/>
      <point x="56" y="164" type="line"/>
      <point x="64" y="146"/>
      <point x="96" y="112" type="qcurve"/>
      <point x="128" y="78"/>
      <point x="160" y="64" type="qcurve"/>
      <point x="193" y="51"/>
      <point x="227" y="49" type="qcurve"/>
      <point x="261" y="47"/>
      <point x="298" y="65" type="qcurve"/>
      <point x="335" y="83"/>
      <point x="355" y="115" type="qcurve"/>
      <point x="375" y="148"/>
      <point x="382" y="193" type="qcurve"/>
      <point x="390" y="239"/>
      <point x="386" y="327" type="qcurve"/>
      <point x="383" y="415"/>
      <point x="379" y="475" type="qcurve"/>
      <point x="375" y="536"/>
      <point x="375" y="560" type="qcurve"/>
      <point x="375" y="584" type="line"/>
      <point x="375" y="588"/>
      <point x="382" y="594"/>
      <point x="390" y="594"/>
      <point x="396" y="588"/>
    </contour>
  </outline>
</glyph>
<glyph name="K" format="1">
  <advance width="498"/>
  <unicode hex="004B"/>
  <outline>
    <contour>
      <point x="369" y="623" type="qcurve"/>
      <point x="326" y="572" type="line"/>
      <point x="283" y="522"/>
      <point x="248" y="474" type="qcurve"/>
      <point x="212" y="427"/>
      <point x="168" y="378" type="qcurve"/>
      <point x="124" y="329"/>
      <point x="94" y="305" type="qcurve"/>
      <point x="84" y="298"/>
      <point x="80" y="292" type="qcurve"/>
      <point x="97" y="284"/>
      <point x="144" y="258" type="qcurve"/>
      <point x="196" y="229"/>
      <point x="245" y="193" type="qcurve"/>
      <point x="294" y="157"/>
      <point x="335" y="126" type="qcurve"/>
      <point x="376" y="95"/>
      <point x="393" y="84" type="qcurve"/>
      <point x="410" y="73"/>
      <point x="438" y="53"/>
      <point x="447" y="46" type="qcurve"/>
      <point x="455" y="39"/>
      <point x="462" y="33" type="qcurve"/>
      <point x="468" y="28" type="line"/>
      <point x="476" y="21"/>
      <point x="462" y="5"/>
      <point x="454" y="12" type="qcurve"/>
      <point x="448" y="18" type="line"/>
      <point x="442" y="23"/>
      <point x="434" y="30" type="qcurve"/>
      <point x="426" y="36"/>
      <point x="398" y="55"/>
      <point x="381" y="67" type="qcurve"/>
      <point x="363" y="78"/>
      <point x="322" y="109" type="qcurve"/>
      <point x="281" y="140"/>
      <point x="233" y="176" type="qcurve"/>
      <point x="185" y="211"/>
      <point x="134" y="240" type="qcurve"/>
      <point x="82" y="268"/>
      <point x="68" y="275" type="qcurve"/>
      <point x="61" y="278"/>
      <point x="56" y="293"/>
      <point x="60" y="300" type="qcurve"/>
      <point x="65" y="309"/>
      <point x="81" y="322" type="qcurve"/>
      <point x="109" y="344"/>
      <point x="152" y="392" type="qcurve"/>
      <point x="196" y="440"/>
      <point x="231" y="487" type="qcurve"/>
      <point x="267" y="535"/>
      <point x="310" y="586" type="qcurve"/>
      <point x="353" y="636" type="line"/>
      <point x="360" y="644"/>
      <point x="376" y="630"/>
    </contour>
    <contour>
      <point x="73" y="623" type="qcurve"/>
      <point x="71" y="615" type="line"/>
      <point x="70" y="608"/>
      <point x="68" y="552" type="qcurve"/>
      <point x="66" y="496"/>
      <point x="54" y="302"/>
      <point x="47" y="145"/>
      <point x="48" y="106" type="qcurve"/>
      <point x="49" y="65" type="line"/>
      <point x="49" y="61"/>
      <point x="43" y="55"/>
      <point x="35" y="55"/>
      <point x="28" y="61"/>
      <point x="28" y="65" type="qcurve"/>
      <point x="27" y="105" type="line"/>
      <point x="26" y="146"/>
      <point x="30" y="225" type="qcurve"/>
      <point x="34" y="304"/>
      <point x="45" y="497"/>
      <point x="47" y="553" type="qcurve"/>
      <point x="49" y="610"/>
      <point x="51" y="620" type="qcurve"/>
      <point x="53" y="628" type="line"/>
      <point x="55" y="638"/>
      <point x="75" y="633"/>
    </contour>
  </outline>
</glyph>
<glyph name="L" format="1">
  <advance width="477"/>
  <unicode hex="004C"/>
  <outline>
    <contour>
      <point x="64" y="616" type="qcurve"/>
      <point x="61" y="602" type="line"/>
      <point x="58" y="589"/>
      <point x="55" y="535" type="qcurve"/>
      <point x="52" y="479"/>
      <point x="50" y="388" type="qcurve"/>
      <point x="47" y="295"/>
      <point x="49" y="217" type="qcurve"/>
      <point x="51" y="141"/>
      <point x="57" y="103" type="qcurve"/>
      <point x="62" y="70"/>
      <point x="79" y="53" type="qcurve"/>
      <point x="97" y="35"/>
      <point x="140" y="24" type="qcurve"/>
      <point x="185" y="13"/>
      <point x="261" y="20" type="qcurve"/>
      <point x="338" y="27"/>
      <point x="380" y="37" type="qcurve"/>
      <point x="424" y="47"/>
      <point x="432" y="47" type="qcurve"/>
      <point x="439" y="48" type="line"/>
      <point x="444" y="48"/>
      <point x="450" y="42"/>
      <point x="450" y="33"/>
      <point x="444" y="27"/>
      <point x="440" y="27" type="qcurve"/>
      <point x="433" y="26" type="line"/>
      <point x="427" y="26"/>
      <point x="385" y="16" type="qcurve"/>
      <point x="342" y="6"/>
      <point x="263" y="-1" type="qcurve"/>
      <point x="184" y="-8"/>
      <point x="135" y="4" type="qcurve"/>
      <point x="86" y="16"/>
      <point x="64" y="38" type="qcurve"/>
      <point x="42" y="60"/>
      <point x="36" y="100" type="qcurve"/>
      <point x="30" y="138"/>
      <point x="28" y="217" type="qcurve"/>
      <point x="26" y="295"/>
      <point x="31" y="481"/>
      <point x="34" y="536" type="qcurve"/>
      <point x="37" y="592"/>
      <point x="40" y="607" type="qcurve"/>
      <point x="44" y="620" type="line"/>
      <point x="46" y="630"/>
      <point x="66" y="626"/>
    </contour>
  </outline>
</glyph>
<glyph name="M" format="1">
  <advance width="661"/>
  <unicode hex="004D"/>
  <outline>
    <contour>
      <point x="33" y="47" type="qcurve"/>
      <point x="30" y="79" type="line"/>
      <point x="28" y="111"/>
      <point x="27" y="188" type="qcurve"/>
      <point x="27" y="264"/>
      <point x="30" y="395"/>
      <point x="32" y="469" type="qcurve"/>
      <point x="34" y="544"/>
      <point x="37" y="582" type="qcurve"/>
      <point x="39" y="619"/>
      <point x="39" y="625" type="qcurve"/>
      <point x="41" y="652"/>
      <point x="72" y="620" type="qcurve"/>
      <point x="86" y="603"/>
      <point x="109" y="571" type="qcurve"/>
      <point x="132" y="539"/>
      <point x="189" y="447"/>
      <point x="214" y="403" type="qcurve"/>
      <point x="239" y="359"/>
      <point x="269" y="311" type="qcurve"/>
      <point x="300" y="263"/>
      <point x="318" y="226" type="qcurve"/>
      <point x="337" y="190"/>
      <point x="350" y="169" type="qcurve"/>
      <point x="360" y="153"/>
      <point x="367" y="141" type="qcurve"/>
      <point x="373" y="161"/>
      <point x="385" y="205" type="qcurve"/>
      <point x="406" y="277"/>
      <point x="461" y="410"/>
      <point x="495" y="478" type="qcurve"/>
      <point x="529" y="546"/>
      <point x="554" y="595" type="qcurve"/>
      <point x="555" y="596"/>
      <point x="559" y="604"/>
      <point x="561" y="607"/>
      <point x="564" y="613"/>
      <point x="566" y="616"/>
      <point x="570" y="621"/>
      <point x="573" y="623"/>
      <point x="577" y="626"/>
      <point x="581" y="627"/>
      <point x="583" y="627" type="qcurve"/>
      <point x="589" y="628"/>
      <point x="597" y="622"/>
      <point x="600" y="610"/>
      <point x="600" y="605"/>
      <point x="600" y="599" type="qcurve"/>
      <point x="601" y="559"/>
      <point x="599" y="506" type="qcurve"/>
      <point x="598" y="454"/>
      <point x="602" y="399" type="qcurve"/>
      <point x="606" y="342"/>
      <point x="611" y="254" type="qcurve"/>
      <point x="616" y="165"/>
      <point x="627" y="82"/>
      <point x="629" y="68" type="qcurve"/>
      <point x="631" y="54"/>
      <point x="632" y="42" type="qcurve"/>
      <point x="632" y="32"/>
      <point x="633" y="17" type="qcurve"/>
      <point x="635" y="3" type="line"/>
      <point x="636" y="-8"/>
      <point x="615" y="-10"/>
      <point x="614" y="1" type="qcurve"/>
      <point x="612" y="16" type="line"/>
      <point x="611" y="31"/>
      <point x="611" y="42" type="qcurve"/>
      <point x="610" y="52"/>
      <point x="608" y="65" type="qcurve"/>
      <point x="606" y="79"/>
      <point x="601" y="121" type="qcurve"/>
      <point x="596" y="163"/>
      <point x="590" y="252" type="qcurve"/>
      <point x="585" y="341"/>
      <point x="581" y="398" type="qcurve"/>
      <point x="577" y="454"/>
      <point x="578" y="507" type="qcurve"/>
      <point x="580" y="557"/>
      <point x="579" y="596" type="qcurve"/>
      <point x="576" y="591"/>
      <point x="573" y="585" type="qcurve"/>
      <point x="548" y="536"/>
      <point x="514" y="469" type="qcurve"/>
      <point x="480" y="402"/>
      <point x="426" y="270"/>
      <point x="405" y="199" type="qcurve"/>
      <point x="385" y="127"/>
      <point x="381" y="119" type="qcurve"/>
      <point x="379" y="115"/>
      <point x="369" y="108"/>
      <point x="363" y="111" type="qcurve"/>
      <point x="358" y="114"/>
      <point x="352" y="124" type="qcurve"/>
      <point x="346" y="136"/>
      <point x="332" y="157" type="qcurve"/>
      <point x="318" y="179"/>
      <point x="300" y="217" type="qcurve"/>
      <point x="282" y="253"/>
      <point x="252" y="300" type="qcurve"/>
      <point x="221" y="348"/>
      <point x="196" y="392" type="qcurve"/>
      <point x="171" y="436"/>
      <point x="115" y="527"/>
      <point x="92" y="558" type="qcurve"/>
      <point x="72" y="585"/>
      <point x="59" y="602" type="qcurve"/>
      <point x="59" y="593"/>
      <point x="57" y="580" type="qcurve"/>
      <point x="55" y="543"/>
      <point x="53" y="469" type="qcurve"/>
      <point x="51" y="394"/>
      <point x="48" y="263"/>
      <point x="49" y="112"/>
      <point x="51" y="81" type="qcurve"/>
      <point x="54" y="49" type="line"/>
      <point x="55" y="38"/>
      <point x="34" y="37"/>
    </contour>
  </outline>
</glyph>
<glyph name="N" format="1">
  <advance width="514"/>
  <unicode hex="004E"/>
  <outline>
    <contour>
      <point x="74" y="596" type="qcurve"/>
      <point x="98" y="557" type="line"/>
      <point x="122" y="518"/>
      <point x="224" y="352"/>
      <point x="266" y="284" type="qcurve"/>
      <point x="307" y="216"/>
      <point x="345" y="161" type="qcurve"/>
      <point x="383" y="107"/>
      <point x="429" y="50"/>
      <point x="438" y="40" type="qcurve"/>
      <point x="439" y="39"/>
      <point x="441" y="37" type="qcurve"/>
      <point x="442" y="50"/>
      <point x="444" y="68" type="qcurve"/>
      <point x="448" y="114"/>
      <point x="457" y="258"/>
      <point x="458" y="336" type="qcurve"/>
      <point x="460" y="416"/>
      <point x="463" y="474" type="qcurve"/>
      <point x="466" y="532"/>
      <point x="466" y="575" type="qcurve"/>
      <point x="467" y="617"/>
      <point x="466" y="625" type="qcurve"/>
      <point x="465" y="633" type="line"/>
      <point x="465" y="644"/>
      <point x="486" y="645"/>
      <point x="486" y="635" type="qcurve"/>
      <point x="487" y="626" type="line"/>
      <point x="488" y="618"/>
      <point x="487" y="574" type="qcurve"/>
      <point x="487" y="532"/>
      <point x="484" y="473" type="qcurve"/>
      <point x="481" y="415"/>
      <point x="478" y="257"/>
      <point x="469" y="112"/>
      <point x="465" y="66" type="qcurve"/>
      <point x="461" y="19"/>
      <point x="459" y="12" type="qcurve"/>
      <point x="456" y="1"/>
      <point x="437" y="4"/>
      <point x="434" y="10" type="qcurve"/>
      <point x="431" y="17"/>
      <point x="423" y="26" type="qcurve"/>
      <point x="414" y="37"/>
      <point x="390" y="65" type="qcurve"/>
      <point x="366" y="94"/>
      <point x="328" y="149" type="qcurve"/>
      <point x="289" y="204"/>
      <point x="248" y="273" type="qcurve"/>
      <point x="207" y="342"/>
      <point x="105" y="506"/>
      <point x="80" y="545" type="qcurve"/>
      <point x="56" y="585" type="line"/>
      <point x="50" y="593"/>
      <point x="68" y="605"/>
    </contour>
    <contour>
      <point x="52" y="594" type="qcurve"/>
      <point x="50" y="545" type="line"/>
      <point x="49" y="496"/>
      <point x="48" y="401" type="qcurve"/>
      <point x="47" y="306"/>
      <point x="52" y="194" type="qcurve"/>
      <point x="58" y="81"/>
      <point x="58" y="53" type="qcurve"/>
      <point x="58" y="26"/>
      <point x="59" y="19" type="qcurve"/>
      <point x="60" y="12" type="line"/>
      <point x="61" y="2"/>
      <point x="40" y="-1"/>
      <point x="39" y="10" type="qcurve"/>
      <point x="38" y="17" type="line"/>
      <point x="37" y="25"/>
      <point x="37" y="53" type="qcurve"/>
      <point x="37" y="81"/>
      <point x="31" y="193" type="qcurve"/>
      <point x="26" y="305"/>
      <point x="27" y="401" type="qcurve"/>
      <point x="28" y="497"/>
      <point x="29" y="546" type="qcurve"/>
      <point x="31" y="594" type="line"/>
      <point x="31" y="599"/>
      <point x="37" y="605"/>
      <point x="46" y="605"/>
      <point x="52" y="598"/>
    </contour>
  </outline>
</glyph>
<glyph name="O" format="1">
  <advance width="522"/>
  <unicode hex="004F"/>
  <outline>
    <contour>
      <point x="230" y="595" type="qcurve"/>
      <point x="204" y="587"/>
      <point x="180" y="574" type="qcurve"/>
      <point x="142" y="552"/>
      <point x="60" y="433"/>
      <point x="51" y="380" type="qcurve"/>
      <point x="41" y="327"/>
      <point x="64" y="266" type="qcurve"/>
      <point x="86" y="204"/>
      <point x="126" y="150" type="qcurve"/>
      <point x="165" y="97"/>
      <point x="208" y="70" type="qcurve"/>
      <point x="250" y="43"/>
      <point x="290" y="44" type="qcurve"/>
      <point x="330" y="44"/>
      <point x="364" y="69" type="qcurve"/>
      <point x="400" y="94"/>
      <point x="449" y="168"/>
      <point x="462" y="232" type="qcurve"/>
      <point x="476" y="298"/>
      <point x="472" y="393"/>
      <point x="454" y="455" type="qcurve"/>
      <point x="436" y="515"/>
      <point x="409" y="545" type="qcurve"/>
      <point x="383" y="574"/>
      <point x="313" y="576" type="qcurve"/>
      <point x="238" y="578" type="line"/>
      <point x="234" y="578"/>
      <point x="228" y="584"/>
      <point x="228" y="589" type="qcurve"/>
      <point x="228" y="592"/>
    </contour>
    <contour>
      <point x="246" y="599" type="qcurve"/>
      <point x="314" y="597" type="line"/>
      <point x="393" y="595"/>
      <point x="425" y="559" type="qcurve"/>
      <point x="455" y="526"/>
      <point x="474" y="461" type="qcurve"/>
      <point x="493" y="397"/>
      <point x="497" y="296"/>
      <point x="483" y="228" type="qcurve"/>
      <point x="469" y="160"/>
      <point x="415" y="79"/>
      <point x="376" y="52" type="qcurve"/>
      <point x="336" y="23"/>
      <point x="290" y="23" type="qcurve"/>
      <point x="244" y="22"/>
      <point x="197" y="52" type="qcurve"/>
      <point x="150" y="81"/>
      <point x="109" y="138" type="qcurve"/>
      <point x="68" y="194"/>
      <point x="44" y="259" type="qcurve"/>
      <point x="20" y="325"/>
      <point x="30" y="383" type="qcurve"/>
      <point x="40" y="441"/>
      <point x="127" y="568"/>
      <point x="170" y="592" type="qcurve"/>
      <point x="200" y="609"/>
      <point x="233" y="617" type="qcurve"/>
      <point x="247" y="621"/>
      <point x="261" y="622" type="qcurve"/>
      <point x="309" y="628"/>
      <point x="345" y="624" type="qcurve"/>
      <point x="381" y="620"/>
      <point x="394" y="616" type="qcurve"/>
      <point x="407" y="613" type="line"/>
      <point x="418" y="611"/>
      <point x="413" y="590"/>
      <point x="402" y="593" type="qcurve"/>
      <point x="389" y="596" type="line"/>
      <point x="377" y="599"/>
      <point x="343" y="603" type="qcurve"/>
      <point x="309" y="607"/>
      <point x="264" y="602" type="qcurve"/>
      <point x="255" y="601"/>
    </contour>
  </outline>
</glyph>
<glyph name="P" format="1">
  <advance width="492"/>
  <unicode hex="0050"/>
  <outline>
    <contour>
      <point x="56" y="608" type="qcurve"/>
      <point x="53" y="570" type="line"/>
      <point x="62" y="578"/>
      <point x="86" y="595" type="qcurve"/>
      <point x="116" y="615"/>
      <point x="219" y="640"/>
      <point x="272" y="633" type="qcurve"/>
      <point x="325" y="627"/>
      <point x="365" y="601" type="qcurve"/>
      <point x="404" y="575"/>
      <point x="427" y="544" type="qcurve"/>
      <point x="451" y="513"/>
      <point x="461" y="473" type="qcurve"/>
      <point x="471" y="432"/>
      <point x="460" y="400" type="qcurve"/>
      <point x="449" y="369"/>
      <point x="421" y="339" type="qcurve"/>
      <point x="393" y="310"/>
      <point x="354" y="292" type="qcurve"/>
      <point x="315" y="275"/>
      <point x="275" y="269" type="qcurve"/>
      <point x="236" y="263"/>
      <point x="140" y="259"/>
      <point x="106" y="261" type="qcurve"/>
      <point x="75" y="262"/>
      <point x="60" y="264" type="qcurve"/>
      <point x="61" y="254"/>
      <point x="62" y="244" type="qcurve"/>
      <point x="70" y="162"/>
      <point x="77" y="99" type="qcurve"/>
      <point x="85" y="36"/>
      <point x="89" y="16" type="qcurve"/>
      <point x="94" y="-5" type="line"/>
      <point x="96" y="-16"/>
      <point x="76" y="-20"/>
      <point x="74" y="-10" type="qcurve"/>
      <point x="69" y="11" type="line"/>
      <point x="64" y="33"/>
      <point x="57" y="97" type="qcurve"/>
      <point x="49" y="160"/>
      <point x="41" y="242" type="qcurve"/>
      <point x="39" y="254"/>
      <point x="38" y="267" type="qcurve"/>
      <point x="31" y="270"/>
      <point x="32" y="277" type="qcurve"/>
      <point x="33" y="282"/>
      <point x="37" y="285" type="qcurve"/>
      <point x="31" y="343"/>
      <point x="29" y="398" type="qcurve"/>
      <point x="25" y="473"/>
      <point x="30" y="542" type="qcurve"/>
      <point x="35" y="610" type="line"/>
      <point x="36" y="620"/>
      <point x="57" y="619"/>
    </contour>
    <contour>
      <point x="58" y="285" type="qcurve"/>
      <point x="59" y="285" type="line"/>
      <point x="74" y="283"/>
      <point x="140" y="280"/>
      <point x="234" y="284"/>
      <point x="272" y="290" type="qcurve"/>
      <point x="310" y="295"/>
      <point x="346" y="311" type="qcurve"/>
      <point x="380" y="327"/>
      <point x="431" y="380"/>
      <point x="440" y="407" type="qcurve"/>
      <point x="449" y="433"/>
      <point x="440" y="468" type="qcurve"/>
      <point x="432" y="503"/>
      <point x="411" y="531" type="qcurve"/>
      <point x="389" y="559"/>
      <point x="353" y="583" type="qcurve"/>
      <point x="318" y="607"/>
      <point x="269" y="612" type="qcurve"/>
      <point x="220" y="618"/>
      <point x="124" y="596"/>
      <point x="98" y="578" type="qcurve"/>
      <point x="72" y="560"/>
      <point x="66" y="553" type="qcurve"/>
      <point x="60" y="546" type="line"/>
      <point x="56" y="543"/>
      <point x="51" y="543" type="qcurve"/>
      <point x="51" y="540" type="line"/>
      <point x="46" y="473"/>
      <point x="50" y="399" type="qcurve"/>
      <point x="52" y="344"/>
    </contour>
  </outline>
</glyph>
<glyph name="Q" format="1">
  <advance width="605"/>
  <unicode hex="0051"/>
  <outline>
    <contour>
      <point x="409" y="140" type="qcurve"/>
      <point x="415" y="130" type="line"/>
      <point x="419" y="121"/>
      <point x="452" y="82" type="qcurve"/>
      <point x="458" y="75"/>
      <point x="460" y="73" type="qcurve"/>
      <point x="475" y="100"/>
      <point x="487" y="137" type="qcurve"/>
      <point x="505" y="190"/>
      <point x="509" y="241" type="qcurve"/>
      <point x="513" y="294"/>
      <point x="510" y="349" type="qcurve"/>
      <point x="508" y="404"/>
      <point x="498" y="450" type="qcurve"/>
      <point x="489" y="495"/>
      <point x="432" y="569"/>
      <point x="394" y="589" type="qcurve"/>
      <point x="378" y="597"/>
      <point x="364" y="602" type="qcurve"/>
      <point x="360" y="603"/>
      <point x="356" y="604" type="qcurve"/>
      <point x="336" y="603" type="line"/>
      <point x="329" y="603"/>
      <point x="323" y="602" type="qcurve"/>
      <point x="293" y="599"/>
      <point x="262" y="594" type="qcurve"/>
      <point x="227" y="589"/>
      <point x="175" y="559" type="qcurve"/>
      <point x="125" y="529"/>
      <point x="96" y="482" type="qcurve"/>
      <point x="66" y="434"/>
      <point x="41" y="308"/>
      <point x="56" y="237" type="qcurve"/>
      <point x="70" y="166"/>
      <point x="92" y="119" type="qcurve"/>
      <point x="115" y="73"/>
      <point x="147" y="41" type="qcurve"/>
      <point x="179" y="10"/>
      <point x="222" y="-3" type="qcurve"/>
      <point x="267" y="-17"/>
      <point x="314" y="-16" type="qcurve"/>
      <point x="360" y="-15"/>
      <point x="391" y="3" type="qcurve"/>
      <point x="423" y="21"/>
      <point x="447" y="52" type="qcurve"/>
      <point x="447" y="53"/>
      <point x="448" y="54" type="qcurve"/>
      <point x="443" y="60"/>
      <point x="436" y="69" type="qcurve"/>
      <point x="402" y="110"/>
      <point x="396" y="121" type="qcurve"/>
      <point x="391" y="131" type="line"/>
      <point x="386" y="140"/>
      <point x="404" y="150"/>
    </contour>
    <contour>
      <point x="282" y="619" type="qcurve"/>
      <point x="282" y="621"/>
      <point x="282" y="622" type="qcurve"/>
      <point x="282" y="627"/>
      <point x="288" y="633"/>
      <point x="293" y="632" type="qcurve"/>
      <point x="326" y="631" type="line"/>
      <point x="341" y="630"/>
      <point x="358" y="626" type="qcurve"/>
      <point x="371" y="627" type="line"/>
      <point x="382" y="627"/>
      <point x="383" y="617" type="qcurve"/>
      <point x="393" y="613"/>
      <point x="404" y="607" type="qcurve"/>
      <point x="446" y="586"/>
      <point x="508" y="504"/>
      <point x="519" y="454" type="qcurve"/>
      <point x="529" y="407"/>
      <point x="531" y="350" type="qcurve"/>
      <point x="534" y="293"/>
      <point x="529" y="240" type="qcurve"/>
      <point x="525" y="185"/>
      <point x="507" y="130" type="qcurve"/>
      <point x="493" y="86"/>
      <point x="474" y="56" type="qcurve"/>
      <point x="497" y="28"/>
      <point x="520" y="1" type="qcurve"/>
      <point x="554" y="-39"/>
      <point x="565" y="-53" type="qcurve"/>
      <point x="576" y="-66" type="line"/>
      <point x="583" y="-75"/>
      <point x="566" y="-88"/>
      <point x="560" y="-80" type="qcurve"/>
      <point x="549" y="-66" type="line"/>
      <point x="537" y="-52"/>
      <point x="504" y="-12" type="qcurve"/>
      <point x="483" y="13"/>
      <point x="462" y="38" type="qcurve"/>
      <point x="436" y="4"/>
      <point x="402" y="-15" type="qcurve"/>
      <point x="366" y="-36"/>
      <point x="314" y="-37" type="qcurve"/>
      <point x="264" y="-38"/>
      <point x="216" y="-23" type="qcurve"/>
      <point x="168" y="-8"/>
      <point x="132" y="26" type="qcurve"/>
      <point x="97" y="60"/>
      <point x="74" y="110" type="qcurve"/>
      <point x="50" y="159"/>
      <point x="35" y="233" type="qcurve"/>
      <point x="20" y="308"/>
      <point x="46" y="442"/>
      <point x="78" y="493" type="qcurve"/>
      <point x="110" y="544"/>
      <point x="165" y="577" type="qcurve"/>
      <point x="219" y="609"/>
      <point x="259" y="615" type="qcurve"/>
      <point x="270" y="617"/>
    </contour>
  </outline>
</glyph>
<glyph name="R" format="1">
  <advance width="514"/>
  <unicode hex="0052"/>
  <outline>
    <contour>
      <point x="140" y="312" type="qcurve"/>
      <point x="151" y="312"/>
      <point x="162" y="313" type="qcurve"/>
      <point x="184" y="314"/>
      <point x="210" y="320" type="qcurve"/>
      <point x="252" y="328"/>
      <point x="298" y="364" type="qcurve"/>
      <point x="344" y="399"/>
      <point x="357" y="434" type="qcurve"/>
      <point x="370" y="468"/>
      <point x="341" y="559"/>
      <point x="300" y="585" type="qcurve"/>
      <point x="258" y="611"/>
      <point x="222" y="613" type="qcurve"/>
      <point x="186" y="615"/>
      <point x="86" y="571"/>
      <point x="77" y="560" type="qcurve"/>
      <point x="66" y="546" type="line"/>
      <point x="60" y="538"/>
      <point x="52" y="544" type="qcurve"/>
      <point x="50" y="546"/>
      <point x="49" y="548" type="qcurve"/>
      <point x="47" y="501"/>
      <point x="50" y="407" type="qcurve"/>
      <point x="53" y="313"/>
      <point x="59" y="166"/>
      <point x="62" y="102" type="qcurve"/>
      <point x="65" y="39"/>
      <point x="67" y="23" type="qcurve"/>
      <point x="69" y="6" type="line"/>
      <point x="70" y="-4"/>
      <point x="49" y="-7"/>
      <point x="48" y="4" type="qcurve"/>
      <point x="46" y="21" type="line"/>
      <point x="44" y="38"/>
      <point x="41" y="101" type="qcurve"/>
      <point x="38" y="165"/>
      <point x="32" y="312"/>
      <point x="26" y="501"/>
      <point x="28" y="549" type="qcurve"/>
      <point x="30" y="596" type="line"/>
      <point x="30" y="601"/>
      <point x="37" y="606"/>
      <point x="45" y="606"/>
      <point x="51" y="600"/>
      <point x="51" y="595" type="qcurve"/>
      <point x="49" y="558" type="line"/>
      <point x="50" y="559"/>
      <point x="50" y="559" type="qcurve"/>
      <point x="60" y="573" type="line"/>
      <point x="73" y="588"/>
      <point x="182" y="636"/>
      <point x="223" y="634" type="qcurve"/>
      <point x="264" y="632"/>
      <point x="311" y="603" type="qcurve"/>
      <point x="358" y="573"/>
      <point x="392" y="468"/>
      <point x="377" y="426" type="qcurve"/>
      <point x="362" y="386"/>
      <point x="311" y="347" type="qcurve"/>
      <point x="261" y="308"/>
      <point x="214" y="299" type="qcurve"/>
      <point x="205" y="297"/>
      <point x="195" y="296" type="qcurve"/>
      <point x="213" y="289"/>
      <point x="232" y="280" type="qcurve"/>
      <point x="282" y="257"/>
      <point x="363" y="195"/>
      <point x="443" y="101"/>
      <point x="455" y="80" type="qcurve"/>
      <point x="467" y="60"/>
      <point x="476" y="43" type="qcurve"/>
      <point x="487" y="23"/>
      <point x="487" y="14" type="qcurve"/>
      <point x="488" y="8" type="line"/>
      <point x="488" y="-2"/>
      <point x="467" y="-4"/>
      <point x="467" y="7" type="qcurve"/>
      <point x="466" y="13" type="line"/>
      <point x="466" y="17"/>
      <point x="458" y="33" type="qcurve"/>
      <point x="448" y="50"/>
      <point x="437" y="70" type="qcurve"/>
      <point x="426" y="88"/>
      <point x="348" y="180"/>
      <point x="271" y="239"/>
      <point x="223" y="261" type="qcurve"/>
      <point x="189" y="276"/>
      <point x="161" y="285" type="qcurve"/>
      <point x="149" y="289"/>
      <point x="138" y="291" type="qcurve"/>
      <point x="107" y="293"/>
      <point x="96" y="296" type="qcurve"/>
      <point x="90" y="297"/>
      <point x="82" y="317"/>
      <point x="94" y="320" type="qcurve"/>
      <point x="103" y="321"/>
    </contour>
  </outline>
</glyph>
<glyph name="S" format="1">
  <advance width="452"/>
  <unicode hex="0053"/>
  <outline>
    <contour>
      <point x="370" y="464" type="qcurve"/>
      <point x="363" y="485" type="line"/>
      <point x="357" y="504"/>
      <point x="339" y="538" type="qcurve"/>
      <point x="323" y="571"/>
      <point x="294" y="590" type="qcurve"/>
      <point x="265" y="610"/>
      <point x="212" y="618" type="qcurve"/>
      <point x="160" y="627"/>
      <point x="134" y="614" type="qcurve"/>
      <point x="107" y="600"/>
      <point x="88" y="575" type="qcurve"/>
      <point x="69" y="549"/>
      <point x="60" y="517" type="qcurve"/>
      <point x="51" y="486"/>
      <point x="63" y="451" type="qcurve"/>
      <point x="74" y="416"/>
      <point x="94" y="395" type="qcurve"/>
      <point x="112" y="375"/>
      <point x="155" y="364" type="qcurve"/>
      <point x="200" y="351"/>
      <point x="233" y="344" type="qcurve"/>
      <point x="267" y="336"/>
      <point x="301" y="320" type="qcurve"/>
      <point x="336" y="303"/>
      <point x="366" y="267" type="qcurve"/>
      <point x="395" y="232"/>
      <point x="408" y="209" type="qcurve"/>
      <point x="421" y="184"/>
      <point x="425" y="154" type="qcurve"/>
      <point x="428" y="122"/>
      <point x="417" y="103" type="qcurve"/>
      <point x="406" y="84"/>
      <point x="325" y="31"/>
      <point x="281" y="24" type="qcurve"/>
      <point x="238" y="18"/>
      <point x="192" y="25" type="qcurve"/>
      <point x="146" y="33"/>
      <point x="78" y="78"/>
      <point x="53" y="117" type="qcurve"/>
      <point x="29" y="156"/>
      <point x="28" y="184" type="qcurve"/>
      <point x="27" y="209" type="line"/>
      <point x="27" y="213"/>
      <point x="33" y="219"/>
      <point x="41" y="220"/>
      <point x="48" y="214"/>
      <point x="48" y="209" type="qcurve"/>
      <point x="49" y="184" type="line"/>
      <point x="49" y="162"/>
      <point x="71" y="128" type="qcurve"/>
      <point x="93" y="93"/>
      <point x="154" y="53"/>
      <point x="196" y="46" type="qcurve"/>
      <point x="238" y="39"/>
      <point x="278" y="45" type="qcurve"/>
      <point x="317" y="51"/>
      <point x="390" y="98"/>
      <point x="398" y="113" type="qcurve"/>
      <point x="406" y="127"/>
      <point x="404" y="152" type="qcurve"/>
      <point x="401" y="178"/>
      <point x="390" y="199" type="qcurve"/>
      <point x="378" y="220"/>
      <point x="350" y="254" type="qcurve"/>
      <point x="323" y="286"/>
      <point x="292" y="301" type="qcurve"/>
      <point x="260" y="316"/>
      <point x="228" y="323" type="qcurve"/>
      <point x="194" y="331"/>
      <point x="149" y="343" type="qcurve"/>
      <point x="101" y="356"/>
      <point x="78" y="381" type="qcurve"/>
      <point x="56" y="405"/>
      <point x="43" y="445" type="qcurve"/>
      <point x="29" y="486"/>
      <point x="40" y="523" type="qcurve"/>
      <point x="50" y="558"/>
      <point x="72" y="587" type="qcurve"/>
      <point x="93" y="617"/>
      <point x="125" y="632" type="qcurve"/>
      <point x="157" y="649"/>
      <point x="216" y="639" type="qcurve"/>
      <point x="273" y="630"/>
      <point x="306" y="608" type="qcurve"/>
      <point x="339" y="586"/>
      <point x="358" y="548" type="qcurve"/>
      <point x="377" y="512"/>
      <point x="383" y="491" type="qcurve"/>
      <point x="390" y="471" type="line"/>
      <point x="393" y="461"/>
      <point x="373" y="454"/>
    </contour>
  </outline>
</glyph>
<glyph name="T" format="1">
  <advance width="582"/>
  <unicode hex="0054"/>
  <outline>
    <contour>
      <point x="298" y="568" type="qcurve"/>
      <point x="294" y="544" type="line"/>
      <point x="291" y="520"/>
      <point x="288" y="461" type="qcurve"/>
      <point x="286" y="401"/>
      <point x="287" y="255"/>
      <point x="289" y="197" type="qcurve"/>
      <point x="292" y="139"/>
      <point x="294" y="98" type="qcurve"/>
      <point x="296" y="57"/>
      <point x="297" y="43" type="qcurve"/>
      <point x="299" y="27"/>
      <point x="299" y="17" type="qcurve"/>
      <point x="299" y="8" type="line"/>
      <point x="299" y="4"/>
      <point x="293" y="-2"/>
      <point x="284" y="-2"/>
      <point x="278" y="4"/>
      <point x="278" y="8" type="qcurve"/>
      <point x="278" y="17" type="line"/>
      <point x="278" y="26"/>
      <point x="276" y="40" type="qcurve"/>
      <point x="275" y="55"/>
      <point x="273" y="97" type="qcurve"/>
      <point x="271" y="138"/>
      <point x="268" y="196" type="qcurve"/>
      <point x="266" y="254"/>
      <point x="265" y="401"/>
      <point x="267" y="462" type="qcurve"/>
      <point x="270" y="523"/>
      <point x="274" y="547" type="qcurve"/>
      <point x="278" y="571" type="line"/>
      <point x="279" y="582"/>
      <point x="300" y="578"/>
    </contour>
    <contour>
      <point x="38" y="614" type="qcurve"/>
      <point x="44" y="614" type="line"/>
      <point x="50" y="614"/>
      <point x="76" y="617" type="qcurve"/>
      <point x="104" y="620"/>
      <point x="183" y="621" type="qcurve"/>
      <point x="261" y="623"/>
      <point x="378" y="625"/>
      <point x="474" y="627"/>
      <point x="495" y="628" type="qcurve"/>
      <point x="517" y="629"/>
      <point x="533" y="626" type="qcurve"/>
      <point x="547" y="623" type="line"/>
      <point x="558" y="621"/>
      <point x="554" y="600"/>
      <point x="543" y="602" type="qcurve"/>
      <point x="529" y="605" type="line"/>
      <point x="516" y="608"/>
      <point x="496" y="607" type="qcurve"/>
      <point x="475" y="606"/>
      <point x="426" y="605" type="qcurve"/>
      <point x="378" y="604"/>
      <point x="320" y="603" type="qcurve"/>
      <point x="261" y="602"/>
      <point x="183" y="600" type="qcurve"/>
      <point x="105" y="599"/>
      <point x="79" y="596" type="qcurve"/>
      <point x="50" y="593"/>
      <point x="43" y="593" type="qcurve"/>
      <point x="37" y="593" type="line"/>
      <point x="26" y="594"/>
      <point x="28" y="615"/>
    </contour>
  </outline>
</glyph>
<glyph name="U" format="1">
  <advance width="501"/>
  <unicode hex="0055"/>
  <outline>
    <contour>
      <point x="51" y="660" type="qcurve"/>
      <point x="49" y="639" type="line"/>
      <point x="48" y="618"/>
      <point x="48" y="577" type="qcurve"/>
      <point x="48" y="538"/>
      <point x="50" y="443" type="qcurve"/>
      <point x="51" y="352"/>
      <point x="51" y="307" type="qcurve"/>
      <point x="51" y="262"/>
      <point x="55" y="222" type="qcurve"/>
      <point x="60" y="182"/>
      <point x="68" y="152" type="qcurve"/>
      <point x="77" y="122"/>
      <point x="90" y="95" type="qcurve"/>
      <point x="102" y="70"/>
      <point x="118" y="55" type="qcurve"/>
      <point x="134" y="41"/>
      <point x="158" y="33" type="qcurve"/>
      <point x="183" y="25"/>
      <point x="232" y="23"/>
      <point x="262" y="30" type="qcurve"/>
      <point x="292" y="38"/>
      <point x="321" y="57" type="qcurve"/>
      <point x="350" y="76"/>
      <point x="397" y="122"/>
      <point x="428" y="170"/>
      <point x="439" y="201" type="qcurve"/>
      <point x="449" y="231"/>
      <point x="452" y="266" type="qcurve"/>
      <point x="455" y="301"/>
      <point x="452" y="334" type="qcurve"/>
      <point x="449" y="369"/>
      <point x="443" y="417"/>
      <point x="437" y="452" type="qcurve"/>
      <point x="431" y="487"/>
      <point x="425" y="536"/>
      <point x="422" y="554" type="qcurve"/>
      <point x="420" y="572"/>
      <point x="420" y="584" type="qcurve"/>
      <point x="419" y="595" type="line"/>
      <point x="419" y="599"/>
      <point x="425" y="605"/>
      <point x="434" y="606"/>
      <point x="440" y="600"/>
      <point x="440" y="596" type="qcurve"/>
      <point x="441" y="584" type="line"/>
      <point x="441" y="574"/>
      <point x="443" y="556" type="qcurve"/>
      <point x="445" y="538"/>
      <point x="451" y="490"/>
      <point x="457" y="455" type="qcurve"/>
      <point x="463" y="420"/>
      <point x="470" y="371"/>
      <point x="476" y="301"/>
      <point x="473" y="264" type="qcurve"/>
      <point x="470" y="227"/>
      <point x="447" y="162"/>
      <point x="413" y="108"/>
      <point x="389" y="84" type="qcurve"/>
      <point x="363" y="60"/>
      <point x="332" y="39" type="qcurve"/>
      <point x="301" y="19"/>
      <point x="267" y="10" type="qcurve"/>
      <point x="234" y="2"/>
      <point x="206" y="3" type="qcurve"/>
      <point x="179" y="4"/>
      <point x="151" y="13" type="qcurve"/>
      <point x="123" y="23"/>
      <point x="104" y="40" type="qcurve"/>
      <point x="85" y="56"/>
      <point x="71" y="86" type="qcurve"/>
      <point x="57" y="115"/>
      <point x="48" y="146" type="qcurve"/>
      <point x="39" y="178"/>
      <point x="34" y="220" type="qcurve"/>
      <point x="30" y="261"/>
      <point x="30" y="307" type="qcurve"/>
      <point x="30" y="351"/>
      <point x="27" y="534"/>
      <point x="27" y="577" type="qcurve"/>
      <point x="27" y="620"/>
      <point x="28" y="641" type="qcurve"/>
      <point x="30" y="661" type="line"/>
      <point x="31" y="672"/>
      <point x="52" y="670"/>
    </contour>
  </outline>
</glyph>
<glyph name="V" format="1">
  <advance width="500"/>
  <unicode hex="0056"/>
  <outline>
    <contour>
      <point x="47" y="627" type="qcurve"/>
      <point x="62" y="593" type="line"/>
      <point x="78" y="560"/>
      <point x="102" y="501" type="qcurve"/>
      <point x="126" y="442"/>
      <point x="152" y="374" type="qcurve"/>
      <point x="178" y="305"/>
      <point x="204" y="243" type="qcurve"/>
      <point x="229" y="180"/>
      <point x="242" y="146" type="qcurve"/>
      <point x="252" y="119"/>
      <point x="264" y="88" type="qcurve"/>
      <point x="271" y="70"/>
      <point x="277" y="56" type="qcurve"/>
      <point x="280" y="61"/>
      <point x="283" y="69" type="qcurve"/>
      <point x="296" y="105"/>
      <point x="315" y="154" type="qcurve"/>
      <point x="333" y="201"/>
      <point x="348" y="262" type="qcurve"/>
      <point x="363" y="323"/>
      <point x="387" y="415"/>
      <point x="402" y="468" type="qcurve"/>
      <point x="416" y="522"/>
      <point x="425" y="552" type="qcurve"/>
      <point x="434" y="582"/>
      <point x="445" y="617"/>
      <point x="449" y="630" type="qcurve"/>
      <point x="453" y="641" type="line"/>
      <point x="457" y="651"/>
      <point x="477" y="644"/>
      <point x="473" y="635" type="qcurve"/>
      <point x="469" y="622" type="line"/>
      <point x="465" y="610"/>
      <point x="460" y="594" type="qcurve"/>
      <point x="455" y="577"/>
      <point x="445" y="546" type="qcurve"/>
      <point x="436" y="516"/>
      <point x="407" y="409"/>
      <point x="384" y="318"/>
      <point x="369" y="257" type="qcurve"/>
      <point x="353" y="195"/>
      <point x="335" y="146" type="qcurve"/>
      <point x="316" y="98"/>
      <point x="302" y="61" type="qcurve"/>
      <point x="302" y="60"/>
      <point x="301" y="59" type="qcurve"/>
      <point x="297" y="48"/>
      <point x="292" y="37"/>
      <point x="279" y="27"/>
      <point x="271" y="30" type="qcurve"/>
      <point x="265" y="33"/>
      <point x="261" y="40" type="qcurve"/>
      <point x="254" y="56"/>
      <point x="244" y="81" type="qcurve"/>
      <point x="235" y="105"/>
      <point x="210" y="172"/>
      <point x="159" y="298"/>
      <point x="133" y="367" type="qcurve"/>
      <point x="107" y="435"/>
      <point x="59" y="551"/>
      <point x="43" y="585" type="qcurve"/>
      <point x="28" y="618" type="line"/>
      <point x="24" y="628"/>
      <point x="43" y="637"/>
    </contour>
  </outline>
</glyph>
<glyph name="W" format="1">
  <advance width="709"/>
  <unicode hex="0057"/>
  <outline>
    <contour>
      <point x="48" y="584" type="qcurve"/>
      <point x="53" y="550" type="line"/>
      <point x="57" y="516"/>
      <point x="71" y="461" type="qcurve"/>
      <point x="84" y="405"/>
      <point x="105" y="330" type="qcurve"/>
      <point x="126" y="254"/>
      <point x="139" y="199" type="qcurve"/>
      <point x="153" y="145"/>
      <point x="161" y="119" type="qcurve"/>
      <point x="170" y="94"/>
      <point x="176" y="80" type="qcurve"/>
      <point x="178" y="76"/>
      <point x="180" y="71" type="qcurve"/>
      <point x="182" y="78"/>
      <point x="185" y="87" type="qcurve"/>
      <point x="199" y="128"/>
      <point x="214" y="185" type="qcurve"/>
      <point x="230" y="242"/>
      <point x="250" y="308" type="qcurve"/>
      <point x="269" y="373"/>
      <point x="299" y="483"/>
      <point x="314" y="540" type="qcurve"/>
      <point x="329" y="596"/>
      <point x="330" y="610" type="qcurve"/>
      <point x="332" y="620"/>
      <point x="338" y="623" type="qcurve"/>
      <point x="344" y="624"/>
      <point x="351" y="625"/>
      <point x="357" y="614"/>
      <point x="360" y="608"/>
      <point x="363" y="596"/>
      <point x="363" y="596" type="qcurve"/>
      <point x="373" y="564"/>
      <point x="415" y="436"/>
      <point x="452" y="330"/>
      <point x="482" y="247"/>
      <point x="518" y="159"/>
      <point x="528" y="139" type="qcurve"/>
      <point x="533" y="128"/>
      <point x="538" y="118" type="qcurve"/>
      <point x="539" y="122"/>
      <point x="540" y="126" type="qcurve"/>
      <point x="552" y="162"/>
      <point x="583" y="280"/>
      <point x="604" y="386"/>
      <point x="627" y="517"/>
      <point x="633" y="553" type="qcurve"/>
      <point x="638" y="590"/>
      <point x="646" y="621" type="qcurve"/>
      <point x="653" y="652"/>
      <point x="658" y="663" type="qcurve"/>
      <point x="663" y="672" type="line"/>
      <point x="667" y="682"/>
      <point x="686" y="673"/>
      <point x="682" y="663" type="qcurve"/>
      <point x="677" y="654" type="line"/>
      <point x="673" y="645"/>
      <point x="666" y="616" type="qcurve"/>
      <point x="659" y="586"/>
      <point x="653" y="550" type="qcurve"/>
      <point x="648" y="514"/>
      <point x="625" y="382"/>
      <point x="603" y="276"/>
      <point x="572" y="156"/>
      <point x="560" y="119" type="qcurve"/>
      <point x="560" y="118"/>
      <point x="557" y="109"/>
      <point x="556" y="104"/>
      <point x="552" y="95"/>
      <point x="548" y="92"/>
      <point x="542" y="85"/>
      <point x="537" y="87"/>
      <point x="532" y="87" type="qcurve"/>
      <point x="526" y="89"/>
      <point x="523" y="97" type="qcurve"/>
      <point x="518" y="111"/>
      <point x="509" y="130" type="qcurve"/>
      <point x="499" y="150"/>
      <point x="462" y="240"/>
      <point x="432" y="323"/>
      <point x="395" y="429"/>
      <point x="374" y="494" type="qcurve"/>
      <point x="356" y="549"/>
      <point x="346" y="581" type="qcurve"/>
      <point x="342" y="563"/>
      <point x="335" y="535" type="qcurve"/>
      <point x="320" y="478"/>
      <point x="290" y="367"/>
      <point x="270" y="302" type="qcurve"/>
      <point x="250" y="237"/>
      <point x="235" y="180" type="qcurve"/>
      <point x="219" y="122"/>
      <point x="205" y="80" type="qcurve"/>
      <point x="192" y="39"/>
      <point x="178" y="37" type="qcurve"/>
      <point x="172" y="37"/>
      <point x="168" y="47" type="qcurve"/>
      <point x="164" y="57"/>
      <point x="157" y="71" type="qcurve"/>
      <point x="150" y="86"/>
      <point x="141" y="113" type="qcurve"/>
      <point x="133" y="139"/>
      <point x="119" y="194" type="qcurve"/>
      <point x="105" y="249"/>
      <point x="85" y="324" type="qcurve"/>
      <point x="64" y="400"/>
      <point x="50" y="456" type="qcurve"/>
      <point x="37" y="512"/>
      <point x="32" y="547" type="qcurve"/>
      <point x="27" y="581" type="line"/>
      <point x="26" y="592"/>
      <point x="46" y="595"/>
    </contour>
  </outline>
</glyph>
<glyph name="X" format="1">
  <advance width="465"/>
  <unicode hex="0058"/>
  <outline>
    <contour>
      <point x="422" y="637" type="qcurve"/>
      <point x="400" y="601" type="line"/>
      <point x="379" y="566"/>
      <point x="316" y="453"/>
      <point x="288" y="400" type="qcurve"/>
      <point x="265" y="357"/>
      <point x="240" y="309" type="qcurve"/>
      <point x="248" y="297"/>
      <point x="255" y="284" type="qcurve"/>
      <point x="291" y="223"/>
      <point x="343" y="149"/>
      <point x="366" y="119" type="qcurve"/>
      <point x="388" y="89"/>
      <point x="399" y="75" type="qcurve"/>
      <point x="411" y="60"/>
      <point x="423" y="44" type="qcurve"/>
      <point x="437" y="27" type="line"/>
      <point x="443" y="19"/>
      <point x="427" y="6"/>
      <point x="420" y="14" type="qcurve"/>
      <point x="407" y="31" type="line"/>
      <point x="394" y="48"/>
      <point x="372" y="75"/>
      <point x="326" y="137"/>
      <point x="273" y="212"/>
      <point x="237" y="273" type="qcurve"/>
      <point x="233" y="280"/>
      <point x="229" y="287" type="qcurve"/>
      <point x="228" y="287"/>
      <point x="228" y="286" type="qcurve"/>
      <point x="196" y="225"/>
      <point x="157" y="157"/>
      <point x="116" y="90"/>
      <point x="107" y="76" type="qcurve"/>
      <point x="98" y="62"/>
      <point x="93" y="54" type="qcurve"/>
      <point x="89" y="44"/>
      <point x="84" y="37" type="qcurve"/>
      <point x="80" y="31" type="line"/>
      <point x="75" y="22"/>
      <point x="57" y="33"/>
      <point x="63" y="42" type="qcurve"/>
      <point x="67" y="48" type="line"/>
      <point x="70" y="54"/>
      <point x="75" y="63" type="qcurve"/>
      <point x="80" y="73"/>
      <point x="89" y="87" type="qcurve"/>
      <point x="99" y="101"/>
      <point x="139" y="167"/>
      <point x="177" y="235"/>
      <point x="209" y="296" type="qcurve"/>
      <point x="211" y="298"/>
      <point x="215" y="307"/>
      <point x="216" y="309" type="qcurve"/>
      <point x="190" y="352"/>
      <point x="164" y="395" type="qcurve"/>
      <point x="127" y="456"/>
      <point x="88" y="512" type="qcurve"/>
      <point x="48" y="568"/>
      <point x="38" y="587" type="qcurve"/>
      <point x="28" y="606" type="line"/>
      <point x="23" y="615"/>
      <point x="42" y="625"/>
      <point x="47" y="615" type="qcurve"/>
      <point x="57" y="597" type="line"/>
      <point x="66" y="579"/>
      <point x="105" y="524" type="qcurve"/>
      <point x="144" y="468"/>
      <point x="182" y="406" type="qcurve"/>
      <point x="205" y="368"/>
      <point x="228" y="330" type="qcurve"/>
      <point x="249" y="372"/>
      <point x="269" y="410" type="qcurve"/>
      <point x="297" y="463"/>
      <point x="360" y="576"/>
      <point x="383" y="612" type="qcurve"/>
      <point x="405" y="648" type="line"/>
      <point x="410" y="657"/>
      <point x="428" y="646"/>
    </contour>
  </outline>
</glyph>
<glyph name="Y" format="1">
  <advance width="558"/>
  <unicode hex="0059"/>
  <outline>
    <contour>
      <point x="527" y="619" type="qcurve"/>
      <point x="515" y="610" type="line"/>
      <point x="504" y="602"/>
      <point x="453" y="547"/>
      <point x="390" y="453"/>
      <point x="354" y="370"/>
      <point x="337" y="311" type="qcurve"/>
      <point x="324" y="266"/>
      <point x="315" y="217" type="qcurve"/>
      <point x="316" y="216" type="line"/>
      <point x="322" y="207"/>
      <point x="314" y="201" type="qcurve"/>
      <point x="313" y="200"/>
      <point x="311" y="200" type="qcurve"/>
      <point x="310" y="192"/>
      <point x="309" y="185" type="qcurve"/>
      <point x="298" y="118"/>
      <point x="286" y="45"/>
      <point x="284" y="32" type="qcurve"/>
      <point x="282" y="19"/>
      <point x="282" y="12" type="qcurve"/>
      <point x="282" y="4" type="line"/>
      <point x="281" y="-1"/>
      <point x="275" y="-7"/>
      <point x="266" y="-6"/>
      <point x="260" y="0"/>
      <point x="261" y="4" type="qcurve"/>
      <point x="261" y="12" type="line"/>
      <point x="261" y="21"/>
      <point x="263" y="35" type="qcurve"/>
      <point x="265" y="49"/>
      <point x="277" y="121"/>
      <point x="288" y="188" type="qcurve"/>
      <point x="290" y="200"/>
      <point x="292" y="212" type="qcurve"/>
      <point x="277" y="232" type="line"/>
      <point x="255" y="261"/>
      <point x="233" y="300" type="qcurve"/>
      <point x="211" y="338"/>
      <point x="144" y="449"/>
      <point x="104" y="504" type="qcurve"/>
      <point x="65" y="560"/>
      <point x="47" y="588" type="qcurve"/>
      <point x="29" y="615" type="line"/>
      <point x="23" y="624"/>
      <point x="40" y="636"/>
      <point x="46" y="627" type="qcurve"/>
      <point x="64" y="599" type="line"/>
      <point x="82" y="572"/>
      <point x="121" y="516" type="qcurve"/>
      <point x="161" y="460"/>
      <point x="230" y="348"/>
      <point x="251" y="310" type="qcurve"/>
      <point x="273" y="272"/>
      <point x="294" y="244" type="qcurve"/>
      <point x="298" y="239" type="line"/>
      <point x="306" y="279"/>
      <point x="317" y="316" type="qcurve"/>
      <point x="334" y="377"/>
      <point x="372" y="463"/>
      <point x="436" y="560"/>
      <point x="490" y="617"/>
      <point x="502" y="627" type="qcurve"/>
      <point x="514" y="636" type="line"/>
      <point x="523" y="642"/>
      <point x="535" y="626"/>
    </contour>
  </outline>
</glyph>
<glyph name="Z" format="1">
  <advance width="464"/>
  <unicode hex="005A"/>
  <outline>
    <contour>
      <point x="68" y="582" type="qcurve"/>
      <point x="91" y="590" type="line"/>
      <point x="115" y="598"/>
      <point x="191" y="604" type="qcurve"/>
      <point x="266" y="610"/>
      <point x="306" y="614" type="qcurve"/>
      <point x="345" y="619"/>
      <point x="372" y="620" type="qcurve"/>
      <point x="390" y="621"/>
      <point x="397" y="617" type="qcurve"/>
      <point x="403" y="614"/>
      <point x="405" y="600"/>
      <point x="402" y="597" type="qcurve"/>
      <point x="395" y="587"/>
      <point x="315" y="498"/>
      <point x="241" y="405"/>
      <point x="216" y="366" type="qcurve"/>
      <point x="191" y="328"/>
      <point x="117" y="206"/>
      <point x="89" y="158" type="qcurve"/>
      <point x="62" y="110"/>
      <point x="53" y="92" type="qcurve"/>
      <point x="48" y="80"/>
      <point x="48" y="75" type="qcurve"/>
      <point x="56" y="71"/>
      <point x="85" y="66" type="qcurve"/>
      <point x="124" y="60"/>
      <point x="167" y="60" type="qcurve"/>
      <point x="211" y="60"/>
      <point x="336" y="70"/>
      <point x="380" y="76" type="qcurve"/>
      <point x="425" y="82" type="line"/>
      <point x="436" y="83"/>
      <point x="439" y="62"/>
      <point x="428" y="61" type="qcurve"/>
      <point x="383" y="55" type="line"/>
      <point x="338" y="49"/>
      <point x="275" y="44" type="qcurve"/>
      <point x="212" y="39"/>
      <point x="167" y="39" type="qcurve"/>
      <point x="122" y="39"/>
      <point x="82" y="45" type="qcurve"/>
      <point x="65" y="48"/>
      <point x="51" y="51"/>
      <point x="34" y="58"/>
      <point x="31" y="64" type="qcurve"/>
      <point x="23" y="76"/>
      <point x="34" y="101" type="qcurve"/>
      <point x="43" y="120"/>
      <point x="71" y="168" type="qcurve"/>
      <point x="99" y="216"/>
      <point x="174" y="339"/>
      <point x="199" y="378" type="qcurve"/>
      <point x="224" y="417"/>
      <point x="299" y="511"/>
      <point x="339" y="557" type="qcurve"/>
      <point x="365" y="585"/>
      <point x="377" y="599" type="qcurve"/>
      <point x="374" y="599"/>
      <point x="373" y="599" type="qcurve"/>
      <point x="347" y="598"/>
      <point x="308" y="594" type="qcurve"/>
      <point x="268" y="589"/>
      <point x="193" y="583" type="qcurve"/>
      <point x="119" y="578"/>
      <point x="98" y="570" type="qcurve"/>
      <point x="74" y="562" type="line"/>
      <point x="65" y="559"/>
      <point x="58" y="579"/>
    </contour>
  </outline>
</glyph>
<glyph name="bracketleft" format="1">
  <advance width="271"/>
  <unicode hex="005B"/>
  <outline>
    <contour>
      <point x="176" y="690" type="qcurve"/>
      <point x="169" y="687" type="line"/>
      <point x="162" y="685"/>
      <point x="142" y="679" type="qcurve"/>
      <point x="123" y="672"/>
      <point x="99" y="659" type="qcurve"/>
      <point x="76" y="646"/>
      <point x="66" y="628" type="qcurve"/>
      <point x="56" y="609"/>
      <point x="51" y="544" type="qcurve"/>
      <point x="47" y="477"/>
      <point x="49" y="415" type="qcurve"/>
      <point x="51" y="352"/>
      <point x="53" y="205"/>
      <point x="57" y="66"/>
      <point x="68" y="-52"/>
      <point x="71" y="-80"/>
      <point x="71" y="-89" type="qcurve"/>
      <point x="71" y="-93"/>
      <point x="76" y="-98" type="qcurve"/>
      <point x="83" y="-103"/>
      <point x="118" y="-100" type="qcurve"/>
      <point x="159" y="-98"/>
      <point x="196" y="-94" type="qcurve"/>
      <point x="233" y="-91" type="line"/>
      <point x="244" y="-90"/>
      <point x="246" y="-111"/>
      <point x="235" y="-112" type="qcurve"/>
      <point x="198" y="-115" type="line"/>
      <point x="161" y="-118"/>
      <point x="119" y="-121" type="qcurve"/>
      <point x="73" y="-125"/>
      <point x="50" y="-103"/>
      <point x="50" y="-89" type="qcurve"/>
      <point x="50" y="-81"/>
      <point x="49" y="-68" type="qcurve"/>
      <point x="48" y="-54"/>
      <point x="42" y="5" type="qcurve"/>
      <point x="36" y="64"/>
      <point x="34" y="135" type="qcurve"/>
      <point x="32" y="204"/>
      <point x="30" y="352"/>
      <point x="28" y="414" type="qcurve"/>
      <point x="26" y="477"/>
      <point x="30" y="545" type="qcurve"/>
      <point x="35" y="616"/>
      <point x="48" y="638" type="qcurve"/>
      <point x="61" y="662"/>
      <point x="88" y="677" type="qcurve"/>
      <point x="114" y="691"/>
      <point x="135" y="699" type="qcurve"/>
      <point x="155" y="705"/>
      <point x="163" y="708" type="qcurve"/>
      <point x="171" y="710" type="line"/>
      <point x="181" y="713"/>
      <point x="186" y="692"/>
    </contour>
  </outline>
</glyph>
<glyph name="backslash" format="1">
  <advance width="421"/>
  <unicode hex="005C"/>
  <outline>
    <contour>
      <point x="47" y="643" type="qcurve"/>
      <point x="70" y="600" type="line"/>
      <point x="94" y="557"/>
      <point x="142" y="459" type="qcurve"/>
      <point x="191" y="362"/>
      <point x="291" y="178"/>
      <point x="327" y="107" type="qcurve"/>
      <point x="363" y="35"/>
      <point x="374" y="5" type="qcurve"/>
      <point x="386" y="-25"/>
      <point x="390" y="-35" type="qcurve"/>
      <point x="394" y="-46" type="line"/>
      <point x="398" y="-55"/>
      <point x="379" y="-63"/>
      <point x="375" y="-54" type="qcurve"/>
      <point x="370" y="-44" type="line"/>
      <point x="366" y="-33"/>
      <point x="355" y="-3" type="qcurve"/>
      <point x="343" y="27"/>
      <point x="308" y="97" type="qcurve"/>
      <point x="272" y="168"/>
      <point x="222" y="260" type="qcurve"/>
      <point x="172" y="353"/>
      <point x="124" y="450" type="qcurve"/>
      <point x="75" y="547"/>
      <point x="52" y="590" type="qcurve"/>
      <point x="28" y="633" type="line"/>
      <point x="23" y="643"/>
      <point x="42" y="653"/>
    </contour>
  </outline>
</glyph>
<glyph name="bracketright" format="1">
  <advance width="259"/>
  <unicode hex="005D"/>
  <outline>
    <contour>
      <point x="99" y="682" type="qcurve"/>
      <point x="122" y="685" type="line"/>
      <point x="145" y="688"/>
      <point x="167" y="687" type="qcurve"/>
      <point x="190" y="686"/>
      <point x="211" y="669"/>
      <point x="216" y="649" type="qcurve"/>
      <point x="220" y="632"/>
      <point x="223" y="581" type="qcurve"/>
      <point x="226" y="531"/>
      <point x="229" y="470" type="qcurve"/>
      <point x="231" y="409"/>
      <point x="231" y="358" type="qcurve"/>
      <point x="231" y="307"/>
      <point x="233" y="204"/>
      <point x="232" y="108"/>
      <point x="231" y="80" type="qcurve"/>
      <point x="230" y="51"/>
      <point x="230" y="17" type="qcurve"/>
      <point x="230" y="-35" type="line"/>
      <point x="230" y="-53"/>
      <point x="231" y="-62" type="qcurve"/>
      <point x="232" y="-69"/>
      <point x="225" y="-79"/>
      <point x="208" y="-87"/>
      <point x="199" y="-91"/>
      <point x="186" y="-95" type="qcurve"/>
      <point x="147" y="-108"/>
      <point x="105" y="-124" type="qcurve"/>
      <point x="63" y="-140"/>
      <point x="52" y="-144" type="qcurve"/>
      <point x="41" y="-148" type="line"/>
      <point x="31" y="-151"/>
      <point x="24" y="-131"/>
      <point x="34" y="-128" type="qcurve"/>
      <point x="45" y="-124" type="line"/>
      <point x="56" y="-120"/>
      <point x="98" y="-104" type="qcurve"/>
      <point x="140" y="-88"/>
      <point x="179" y="-75" type="qcurve"/>
      <point x="203" y="-67"/>
      <point x="210" y="-62" type="qcurve"/>
      <point x="209" y="-52"/>
      <point x="209" y="-35" type="qcurve"/>
      <point x="209" y="17" type="line"/>
      <point x="209" y="51"/>
      <point x="210" y="80" type="qcurve"/>
      <point x="211" y="109"/>
      <point x="211" y="156" type="qcurve"/>
      <point x="212" y="204"/>
      <point x="211" y="255" type="qcurve"/>
      <point x="210" y="307"/>
      <point x="210" y="358" type="qcurve"/>
      <point x="210" y="408"/>
      <point x="205" y="530"/>
      <point x="202" y="580" type="qcurve"/>
      <point x="199" y="629"/>
      <point x="196" y="644" type="qcurve"/>
      <point x="193" y="657"/>
      <point x="182" y="665"/>
      <point x="166" y="666" type="qcurve"/>
      <point x="146" y="667"/>
      <point x="125" y="664" type="qcurve"/>
      <point x="102" y="661" type="line"/>
      <point x="92" y="660"/>
      <point x="89" y="681"/>
    </contour>
  </outline>
</glyph>
<glyph name="asciicircum" format="1">
  <advance width="278"/>
  <unicode hex="005E"/>
  <outline>
    <contour>
      <point x="115" y="595" type="qcurve"/>
      <point x="111" y="578" type="line"/>
      <point x="110" y="575"/>
      <point x="109" y="571" type="qcurve"/>
      <point x="120" y="577"/>
      <point x="128" y="566" type="qcurve"/>
      <point x="132" y="559"/>
      <point x="148" y="531" type="qcurve"/>
      <point x="163" y="504"/>
      <point x="183" y="471" type="qcurve"/>
      <point x="204" y="436"/>
      <point x="227" y="398" type="qcurve"/>
      <point x="250" y="359" type="line"/>
      <point x="256" y="350"/>
      <point x="238" y="339"/>
      <point x="232" y="348" type="qcurve"/>
      <point x="209" y="387" type="line"/>
      <point x="186" y="425"/>
      <point x="165" y="459" type="qcurve"/>
      <point x="145" y="493"/>
      <point x="129" y="521" type="qcurve"/>
      <point x="123" y="533"/>
      <point x="118" y="541" type="qcurve"/>
      <point x="115" y="529"/>
      <point x="111" y="509" type="qcurve"/>
      <point x="105" y="476"/>
      <point x="92" y="431" type="qcurve"/>
      <point x="80" y="385"/>
      <point x="62" y="352" type="qcurve"/>
      <point x="62" y="352"/>
      <point x="57" y="341"/>
      <point x="53" y="336"/>
      <point x="45" y="326"/>
      <point x="38" y="329"/>
      <point x="32" y="331" type="qcurve"/>
      <point x="26" y="336"/>
      <point x="28" y="349" type="qcurve"/>
      <point x="32" y="371"/>
      <point x="45" y="415" type="qcurve"/>
      <point x="57" y="459"/>
      <point x="87" y="565"/>
      <point x="90" y="582" type="qcurve"/>
      <point x="94" y="600" type="line"/>
      <point x="97" y="610"/>
      <point x="117" y="605"/>
    </contour>
  </outline>
</glyph>
<glyph name="underscore" format="1">
  <advance width="374"/>
  <unicode hex="005F"/>
  <outline>
    <contour>
      <point x="37" y="-26" type="qcurve"/>
      <point x="66" y="-25" type="line"/>
      <point x="94" y="-25"/>
      <point x="153" y="-24" type="qcurve"/>
      <point x="211" y="-22"/>
      <point x="244" y="-19" type="qcurve"/>
      <point x="278" y="-15"/>
      <point x="292" y="-13" type="qcurve"/>
      <point x="307" y="-11"/>
      <point x="317" y="-12" type="qcurve"/>
      <point x="326" y="-13"/>
      <point x="332" y="-13" type="qcurve"/>
      <point x="339" y="-14" type="line"/>
      <point x="349" y="-16"/>
      <point x="346" y="-36"/>
      <point x="336" y="-35" type="qcurve"/>
      <point x="330" y="-34" type="line"/>
      <point x="324" y="-34"/>
      <point x="315" y="-33" type="qcurve"/>
      <point x="308" y="-32"/>
      <point x="295" y="-34" type="qcurve"/>
      <point x="281" y="-36"/>
      <point x="246" y="-40" type="qcurve"/>
      <point x="212" y="-43"/>
      <point x="153" y="-45" type="qcurve"/>
      <point x="95" y="-46"/>
      <point x="66" y="-46" type="qcurve"/>
      <point x="38" y="-47" type="line"/>
      <point x="33" y="-47"/>
      <point x="27" y="-41"/>
      <point x="27" y="-32"/>
      <point x="33" y="-26"/>
    </contour>
  </outline>
</glyph>
<glyph name="grave" format="1">
  <advance width="150"/>
  <unicode hex="0060"/>
  <outline>
    <contour>
      <point x="47" y="684" type="qcurve"/>
      <point x="50" y="676" type="line"/>
      <point x="53" y="669"/>
      <point x="60" y="659" type="qcurve"/>
      <point x="68" y="649"/>
      <point x="86" y="627" type="qcurve"/>
      <point x="104" y="605"/>
      <point x="113" y="594" type="qcurve"/>
      <point x="121" y="583" type="line"/>
      <point x="128" y="575"/>
      <point x="111" y="562"/>
      <point x="105" y="570" type="qcurve"/>
      <point x="96" y="581" type="line"/>
      <point x="88" y="592"/>
      <point x="70" y="614" type="qcurve"/>
      <point x="52" y="636"/>
      <point x="43" y="647" type="qcurve"/>
      <point x="35" y="659"/>
      <point x="31" y="668" type="qcurve"/>
      <point x="28" y="676" type="line"/>
      <point x="24" y="686"/>
      <point x="43" y="694"/>
    </contour>
  </outline>
</glyph>
<glyph name="a" format="1">
  <advance width="430"/>
  <unicode hex="0061"/>
  <outline>
    <contour>
      <point x="237" y="416" type="qcurve"/>
      <point x="231" y="421"/>
      <point x="225" y="423" type="qcurve"/>
      <point x="209" y="430"/>
      <point x="144" y="420"/>
      <point x="113" y="395" type="qcurve"/>
      <point x="82" y="371"/>
      <point x="69" y="342" type="qcurve"/>
      <point x="55" y="312"/>
      <point x="51" y="271" type="qcurve"/>
      <point x="47" y="229"/>
      <point x="50" y="141"/>
      <point x="56" y="110" type="qcurve"/>
      <point x="62" y="80"/>
      <point x="73" y="66" type="qcurve"/>
      <point x="83" y="54"/>
      <point x="100" y="53" type="qcurve"/>
      <point x="117" y="53"/>
      <point x="132" y="70" type="qcurve"/>
      <point x="149" y="91"/>
      <point x="160" y="122" type="qcurve"/>
      <point x="172" y="156"/>
      <point x="182" y="200" type="qcurve"/>
      <point x="193" y="244"/>
      <point x="204" y="291" type="qcurve"/>
      <point x="215" y="338"/>
      <point x="224" y="369" type="qcurve"/>
      <point x="233" y="399"/>
      <point x="237" y="414" type="qcurve"/>
      <point x="237" y="415"/>
    </contour>
    <contour>
      <point x="260" y="387" type="line"/>
      <point x="258" y="349"/>
      <point x="259" y="321" type="qcurve"/>
      <point x="260" y="292"/>
      <point x="262" y="253" type="qcurve"/>
      <point x="265" y="213"/>
      <point x="267" y="183" type="qcurve"/>
      <point x="268" y="154"/>
      <point x="283" y="94"/>
      <point x="291" y="73" type="qcurve"/>
      <point x="300" y="52"/>
      <point x="310" y="42" type="qcurve"/>
      <point x="317" y="34"/>
      <point x="328" y="34" type="qcurve"/>
      <point x="341" y="35"/>
      <point x="352" y="46" type="qcurve"/>
      <point x="364" y="58"/>
      <point x="374" y="76" type="qcurve"/>
      <point x="384" y="96" type="line"/>
      <point x="389" y="105"/>
      <point x="408" y="96"/>
      <point x="403" y="86" type="qcurve"/>
      <point x="392" y="67" type="line"/>
      <point x="381" y="45"/>
      <point x="366" y="31" type="qcurve"/>
      <point x="350" y="14"/>
      <point x="329" y="13" type="qcurve"/>
      <point x="309" y="12"/>
      <point x="294" y="28" type="qcurve"/>
      <point x="282" y="41"/>
      <point x="272" y="65" type="qcurve"/>
      <point x="262" y="87"/>
      <point x="248" y="151"/>
      <point x="246" y="182" type="qcurve"/>
      <point x="244" y="212"/>
      <point x="241" y="252" type="qcurve"/>
      <point x="239" y="291"/>
      <point x="238" y="320" type="qcurve"/>
      <point x="238" y="329"/>
      <point x="238" y="339" type="qcurve"/>
      <point x="232" y="315"/>
      <point x="225" y="286" type="qcurve"/>
      <point x="214" y="239"/>
      <point x="203" y="195" type="qcurve"/>
      <point x="192" y="150"/>
      <point x="180" y="116" type="qcurve"/>
      <point x="168" y="80"/>
      <point x="148" y="57" type="qcurve"/>
      <point x="126" y="32"/>
      <point x="99" y="32" type="qcurve"/>
      <point x="72" y="33"/>
      <point x="56" y="53" type="qcurve"/>
      <point x="42" y="72"/>
      <point x="35" y="106" type="qcurve"/>
      <point x="29" y="139"/>
      <point x="26" y="230"/>
      <point x="30" y="273" type="qcurve"/>
      <point x="35" y="318"/>
      <point x="50" y="351" type="qcurve"/>
      <point x="65" y="384"/>
      <point x="100" y="412" type="qcurve"/>
      <point x="135" y="440"/>
      <point x="212" y="451"/>
      <point x="233" y="443" type="qcurve"/>
      <point x="253" y="434"/>
      <point x="268" y="412" type="qcurve"/>
      <point x="281" y="392" type="line"/>
      <point x="287" y="383"/>
      <point x="269" y="372"/>
      <point x="264" y="381" type="qcurve"/>
    </contour>
  </outline>
</glyph>
<glyph name="b" format="1">
  <advance width="451"/>
  <unicode hex="0062"/>
  <outline>
    <contour>
      <point x="130" y="111" type="qcurve"/>
      <point x="133" y="91"/>
      <point x="135" y="74" type="qcurve"/>
      <point x="135" y="72"/>
      <point x="135" y="69" type="qcurve"/>
      <point x="143" y="68"/>
      <point x="150" y="67" type="qcurve"/>
      <point x="178" y="62"/>
      <point x="205" y="60" type="qcurve"/>
      <point x="231" y="58"/>
      <point x="247" y="60" type="qcurve"/>
      <point x="263" y="62"/>
      <point x="284" y="72" type="qcurve"/>
      <point x="305" y="83"/>
      <point x="351" y="120"/>
      <point x="370" y="147" type="qcurve"/>
      <point x="390" y="174"/>
      <point x="406" y="241"/>
      <point x="402" y="273" type="qcurve"/>
      <point x="397" y="306"/>
      <point x="378" y="345" type="qcurve"/>
      <point x="359" y="384"/>
      <point x="343" y="406" type="qcurve"/>
      <point x="327" y="427"/>
      <point x="304" y="444" type="qcurve"/>
      <point x="284" y="460"/>
      <point x="249" y="461"/>
      <point x="229" y="448" type="qcurve"/>
      <point x="208" y="434"/>
      <point x="185" y="405" type="qcurve"/>
      <point x="162" y="376"/>
      <point x="149" y="341" type="qcurve"/>
      <point x="136" y="305"/>
      <point x="131" y="269" type="qcurve"/>
      <point x="126" y="233"/>
      <point x="126" y="192" type="qcurve"/>
      <point x="126" y="151"/>
    </contour>
    <contour>
      <point x="115" y="51" type="qcurve"/>
      <point x="102" y="54"/>
      <point x="90" y="56" type="qcurve"/>
      <point x="62" y="62"/>
      <point x="48" y="66" type="qcurve"/>
      <point x="35" y="70" type="line"/>
      <point x="25" y="73"/>
      <point x="30" y="93"/>
      <point x="40" y="90" type="qcurve"/>
      <point x="54" y="86" type="line"/>
      <point x="67" y="82"/>
      <point x="94" y="77" type="qcurve"/>
      <point x="103" y="75"/>
      <point x="113" y="73" type="qcurve"/>
      <point x="111" y="90"/>
      <point x="109" y="109" type="qcurve"/>
      <point x="106" y="135"/>
      <point x="100" y="168" type="qcurve"/>
      <point x="99" y="176"/>
      <point x="98" y="183" type="qcurve"/>
      <point x="90" y="235"/>
      <point x="84" y="284" type="qcurve"/>
      <point x="77" y="340"/>
      <point x="75" y="393" type="qcurve"/>
      <point x="74" y="446"/>
      <point x="75" y="504" type="qcurve"/>
      <point x="76" y="562"/>
      <point x="79" y="598" type="qcurve"/>
      <point x="83" y="634"/>
      <point x="85" y="644" type="qcurve"/>
      <point x="87" y="653" type="line"/>
      <point x="89" y="664"/>
      <point x="110" y="660"/>
      <point x="108" y="649" type="qcurve"/>
      <point x="106" y="640" type="line"/>
      <point x="104" y="631"/>
      <point x="97" y="561"/>
      <point x="96" y="503" type="qcurve"/>
      <point x="95" y="446"/>
      <point x="96" y="393" type="qcurve"/>
      <point x="98" y="341"/>
      <point x="104" y="286" type="qcurve"/>
      <point x="106" y="271"/>
      <point x="108" y="255" type="qcurve"/>
      <point x="109" y="264"/>
      <point x="110" y="272" type="qcurve"/>
      <point x="116" y="310"/>
      <point x="129" y="348" type="qcurve"/>
      <point x="143" y="386"/>
      <point x="194" y="450"/>
      <point x="218" y="466" type="qcurve"/>
      <point x="243" y="482"/>
      <point x="267" y="481" type="qcurve"/>
      <point x="291" y="481"/>
      <point x="317" y="461" type="qcurve"/>
      <point x="342" y="442"/>
      <point x="359" y="418" type="qcurve"/>
      <point x="377" y="395"/>
      <point x="397" y="354" type="qcurve"/>
      <point x="418" y="312"/>
      <point x="423" y="276" type="qcurve"/>
      <point x="428" y="239"/>
      <point x="409" y="165"/>
      <point x="387" y="135" type="qcurve"/>
      <point x="366" y="106"/>
      <point x="317" y="65"/>
      <point x="293" y="54" type="qcurve"/>
      <point x="269" y="41"/>
      <point x="250" y="39" type="qcurve"/>
      <point x="232" y="37"/>
      <point x="203" y="39" type="qcurve"/>
      <point x="175" y="41"/>
      <point x="147" y="46" type="qcurve"/>
      <point x="142" y="47"/>
      <point x="137" y="48" type="qcurve"/>
      <point x="138" y="43"/>
      <point x="138" y="39" type="qcurve"/>
      <point x="140" y="20"/>
      <point x="140" y="13" type="qcurve"/>
      <point x="140" y="13"/>
      <point x="128" y="4" type="qcurve"/>
      <point x="121" y="2"/>
      <point x="119" y="7" type="qcurve"/>
      <point x="119" y="9"/>
      <point x="118" y="20" type="qcurve"/>
      <point x="118" y="27"/>
      <point x="117" y="37" type="qcurve"/>
      <point x="117" y="41"/>
      <point x="116" y="44" type="qcurve"/>
      <point x="116" y="47"/>
    </contour>
  </outline>
</glyph>
<glyph name="c" format="1">
  <advance width="404"/>
  <unicode hex="0063"/>
  <outline>
    <contour>
      <point x="357" y="300" type="qcurve"/>
      <point x="347" y="323" type="line"/>
      <point x="337" y="346"/>
      <point x="326" y="366" type="qcurve"/>
      <point x="317" y="385"/>
      <point x="297" y="405" type="qcurve"/>
      <point x="279" y="423"/>
      <point x="241" y="428" type="qcurve"/>
      <point x="201" y="433"/>
      <point x="130" y="413"/>
      <point x="116" y="403" type="qcurve"/>
      <point x="103" y="393"/>
      <point x="88" y="375" type="qcurve"/>
      <point x="73" y="358"/>
      <point x="63" y="330" type="qcurve"/>
      <point x="53" y="300"/>
      <point x="50" y="270" type="qcurve"/>
      <point x="46" y="240"/>
      <point x="57" y="171"/>
      <point x="73" y="138" type="qcurve"/>
      <point x="89" y="104"/>
      <point x="107" y="80" type="qcurve"/>
      <point x="123" y="57"/>
      <point x="135" y="50" type="qcurve"/>
      <point x="146" y="42"/>
      <point x="163" y="39" type="qcurve"/>
      <point x="181" y="36"/>
      <point x="193" y="37" type="qcurve"/>
      <point x="206" y="39"/>
      <point x="218" y="44" type="qcurve"/>
      <point x="230" y="49"/>
      <point x="244" y="57" type="qcurve"/>
      <point x="259" y="66"/>
      <point x="267" y="74" type="qcurve"/>
      <point x="276" y="82"/>
      <point x="283" y="91" type="qcurve"/>
      <point x="290" y="100"/>
      <point x="296" y="112" type="qcurve"/>
      <point x="303" y="125"/>
      <point x="311" y="141"/>
      <point x="314" y="147" type="qcurve"/>
      <point x="317" y="153" type="line"/>
      <point x="321" y="162"/>
      <point x="340" y="153"/>
      <point x="336" y="144" type="qcurve"/>
      <point x="333" y="138" type="line"/>
      <point x="330" y="131"/>
      <point x="322" y="115"/>
      <point x="315" y="102" type="qcurve"/>
      <point x="307" y="88"/>
      <point x="299" y="78" type="qcurve"/>
      <point x="291" y="68"/>
      <point x="281" y="59" type="qcurve"/>
      <point x="271" y="49"/>
      <point x="255" y="39" type="qcurve"/>
      <point x="239" y="30"/>
      <point x="225" y="24" type="qcurve"/>
      <point x="212" y="19"/>
      <point x="196" y="17" type="qcurve"/>
      <point x="181" y="14"/>
      <point x="160" y="18" type="qcurve"/>
      <point x="138" y="22"/>
      <point x="123" y="32" type="qcurve"/>
      <point x="109" y="42"/>
      <point x="90" y="68" type="qcurve"/>
      <point x="71" y="93"/>
      <point x="54" y="129" type="qcurve"/>
      <point x="36" y="165"/>
      <point x="25" y="240"/>
      <point x="29" y="273" type="qcurve"/>
      <point x="33" y="305"/>
      <point x="44" y="336" type="qcurve"/>
      <point x="55" y="369"/>
      <point x="72" y="389" type="qcurve"/>
      <point x="88" y="409"/>
      <point x="104" y="420" type="qcurve"/>
      <point x="120" y="432"/>
      <point x="199" y="454"/>
      <point x="243" y="449" type="qcurve"/>
      <point x="289" y="443"/>
      <point x="312" y="419" type="qcurve"/>
      <point x="334" y="397"/>
      <point x="345" y="375" type="qcurve"/>
      <point x="356" y="355"/>
      <point x="366" y="332" type="qcurve"/>
      <point x="376" y="309" type="line"/>
      <point x="380" y="299"/>
      <point x="361" y="291"/>
    </contour>
  </outline>
</glyph>
<glyph name="d" format="1">
  <advance width="479"/>
  <unicode hex="0064"/>
  <outline>
    <contour>
      <point x="303" y="425" type="qcurve"/>
      <point x="286" y="433"/>
      <point x="242" y="429" type="qcurve"/>
      <point x="199" y="426"/>
      <point x="153" y="394" type="qcurve"/>
      <point x="107" y="362"/>
      <point x="85" y="326" type="qcurve"/>
      <point x="63" y="289"/>
      <point x="44" y="201"/>
      <point x="50" y="158" type="qcurve"/>
      <point x="56" y="115"/>
      <point x="64" y="92" type="qcurve"/>
      <point x="72" y="70"/>
      <point x="90" y="48" type="qcurve"/>
      <point x="107" y="28"/>
      <point x="130" y="28" type="qcurve"/>
      <point x="153" y="28"/>
      <point x="180" y="57" type="qcurve"/>
      <point x="209" y="88"/>
      <point x="235" y="141" type="qcurve"/>
      <point x="261" y="194"/>
      <point x="270" y="243" type="qcurve"/>
      <point x="280" y="294"/>
      <point x="296" y="390" type="qcurve"/>
      <point x="300" y="408"/>
    </contour>
    <contour>
      <point x="327" y="399" type="qcurve"/>
      <point x="327" y="390"/>
      <point x="326" y="377"/>
      <point x="326" y="371" type="qcurve"/>
      <point x="326" y="326"/>
      <point x="328" y="270" type="qcurve"/>
      <point x="331" y="214"/>
      <point x="334" y="181" type="qcurve"/>
      <point x="338" y="149"/>
      <point x="346" y="120" type="qcurve"/>
      <point x="354" y="92"/>
      <point x="363" y="81" type="qcurve"/>
      <point x="370" y="72"/>
      <point x="379" y="72" type="qcurve"/>
      <point x="390" y="73"/>
      <point x="401" y="84" type="qcurve"/>
      <point x="414" y="98"/>
      <point x="424" y="114" type="qcurve"/>
      <point x="433" y="131" type="line"/>
      <point x="439" y="140"/>
      <point x="457" y="129"/>
      <point x="452" y="120" type="qcurve"/>
      <point x="442" y="103" type="line"/>
      <point x="431" y="85"/>
      <point x="416" y="70" type="qcurve"/>
      <point x="399" y="52"/>
      <point x="380" y="51" type="qcurve"/>
      <point x="360" y="50"/>
      <point x="346" y="68" type="qcurve"/>
      <point x="335" y="83"/>
      <point x="326" y="114" type="qcurve"/>
      <point x="317" y="145"/>
      <point x="310" y="212"/>
      <point x="307" y="269" type="qcurve"/>
      <point x="306" y="296"/>
      <point x="306" y="321" type="qcurve"/>
      <point x="297" y="271"/>
      <point x="291" y="239" type="qcurve"/>
      <point x="281" y="187"/>
      <point x="227" y="76"/>
      <point x="196" y="42" type="qcurve"/>
      <point x="162" y="7"/>
      <point x="130" y="7" type="qcurve"/>
      <point x="97" y="7"/>
      <point x="74" y="35" type="qcurve"/>
      <point x="53" y="60"/>
      <point x="44" y="85" type="qcurve"/>
      <point x="36" y="110"/>
      <point x="30" y="156" type="qcurve"/>
      <point x="23" y="202"/>
      <point x="44" y="297"/>
      <point x="67" y="336" type="qcurve"/>
      <point x="91" y="376"/>
      <point x="141" y="412" type="qcurve"/>
      <point x="191" y="447"/>
      <point x="241" y="450" type="qcurve"/>
      <point x="285" y="453"/>
      <point x="306" y="447" type="qcurve"/>
      <point x="307" y="451"/>
      <point x="307" y="453" type="qcurve"/>
      <point x="307" y="463"/>
      <point x="307" y="475" type="qcurve"/>
      <point x="309" y="534"/>
      <point x="311" y="591" type="qcurve"/>
      <point x="313" y="647"/>
      <point x="315" y="673" type="qcurve"/>
      <point x="315" y="683"/>
      <point x="328" y="694" type="qcurve"/>
      <point x="337" y="701"/>
      <point x="338" y="689" type="qcurve"/>
      <point x="339" y="679"/>
      <point x="341" y="636" type="qcurve"/>
      <point x="343" y="592"/>
      <point x="339" y="537" type="qcurve"/>
      <point x="336" y="503"/>
      <point x="328" y="451" type="qcurve"/>
      <point x="328" y="444"/>
      <point x="327" y="435" type="qcurve"/>
      <point x="335" y="428"/>
      <point x="338" y="421" type="qcurve"/>
      <point x="343" y="411" type="line"/>
      <point x="347" y="402"/>
      <point x="338" y="397" type="qcurve"/>
      <point x="332" y="395"/>
    </contour>
  </outline>
</glyph>
<glyph name="e" format="1">
  <advance width="411"/>
  <unicode hex="0065"/>
  <outline>
    <contour>
      <point x="48" y="249" type="qcurve"/>
      <point x="52" y="253"/>
      <point x="57" y="252" type="qcurve"/>
      <point x="63" y="252" type="line"/>
      <point x="70" y="251"/>
      <point x="123" y="254"/>
      <point x="175" y="261" type="qcurve"/>
      <point x="226" y="268"/>
      <point x="251" y="278" type="qcurve"/>
      <point x="276" y="288"/>
      <point x="289" y="301" type="qcurve"/>
      <point x="303" y="313"/>
      <point x="311" y="327" type="qcurve"/>
      <point x="318" y="339"/>
      <point x="317" y="353" type="qcurve"/>
      <point x="315" y="368"/>
      <point x="309" y="383" type="qcurve"/>
      <point x="302" y="397"/>
      <point x="282" y="416" type="qcurve"/>
      <point x="262" y="435"/>
      <point x="238" y="439" type="qcurve"/>
      <point x="213" y="444"/>
      <point x="172" y="429" type="qcurve"/>
      <point x="131" y="414"/>
      <point x="110" y="395" type="qcurve"/>
      <point x="88" y="374"/>
      <point x="60" y="326"/>
      <point x="53" y="298" type="qcurve"/>
      <point x="47" y="273"/>
    </contour>
    <contour>
      <point x="49" y="234" type="qcurve"/>
      <point x="52" y="210"/>
      <point x="61" y="187" type="qcurve"/>
      <point x="71" y="158"/>
      <point x="97" y="123" type="qcurve"/>
      <point x="122" y="88"/>
      <point x="144" y="66" type="qcurve"/>
      <point x="166" y="44"/>
      <point x="183" y="35" type="qcurve"/>
      <point x="198" y="27"/>
      <point x="217" y="27" type="qcurve"/>
      <point x="237" y="27"/>
      <point x="256" y="34" type="qcurve"/>
      <point x="274" y="40"/>
      <point x="298" y="55"/>
      <point x="331" y="89"/>
      <point x="341" y="104" type="qcurve"/>
      <point x="352" y="121"/>
      <point x="358" y="131" type="qcurve"/>
      <point x="365" y="142" type="line"/>
      <point x="370" y="151"/>
      <point x="388" y="140"/>
      <point x="383" y="131" type="qcurve"/>
      <point x="376" y="121" type="line"/>
      <point x="370" y="109"/>
      <point x="359" y="93" type="qcurve"/>
      <point x="347" y="76"/>
      <point x="311" y="39"/>
      <point x="283" y="21"/>
      <point x="262" y="14" type="qcurve"/>
      <point x="241" y="6"/>
      <point x="217" y="6" type="qcurve"/>
      <point x="193" y="6"/>
      <point x="173" y="17" type="qcurve"/>
      <point x="153" y="27"/>
      <point x="129" y="51" type="qcurve"/>
      <point x="106" y="74"/>
      <point x="80" y="111" type="qcurve"/>
      <point x="53" y="148"/>
      <point x="30" y="211"/>
      <point x="25" y="271"/>
      <point x="40" y="334"/>
      <point x="72" y="388"/>
      <point x="95" y="410" type="qcurve"/>
      <point x="120" y="433"/>
      <point x="165" y="449" type="qcurve"/>
      <point x="211" y="465"/>
      <point x="241" y="460" type="qcurve"/>
      <point x="272" y="454"/>
      <point x="296" y="431" type="qcurve"/>
      <point x="319" y="409"/>
      <point x="328" y="392" type="qcurve"/>
      <point x="336" y="374"/>
      <point x="338" y="355" type="qcurve"/>
      <point x="340" y="334"/>
      <point x="329" y="316" type="qcurve"/>
      <point x="319" y="300"/>
      <point x="303" y="285" type="qcurve"/>
      <point x="287" y="270"/>
      <point x="259" y="259" type="qcurve"/>
      <point x="231" y="248"/>
      <point x="178" y="240" type="qcurve"/>
      <point x="125" y="233"/>
      <point x="69" y="230"/>
      <point x="62" y="231" type="qcurve"/>
      <point x="55" y="231" type="line"/>
      <point x="52" y="231"/>
    </contour>
  </outline>
</glyph>
<glyph name="f" format="1">
  <advance width="413"/>
  <unicode hex="0066"/>
  <outline>
    <contour>
      <point x="33" y="406" type="qcurve"/>
      <point x="55" y="417" type="line"/>
      <point x="78" y="430"/>
      <point x="123" y="442" type="qcurve"/>
      <point x="146" y="449"/>
      <point x="165" y="453" type="qcurve"/>
      <point x="165" y="489"/>
      <point x="169" y="509" type="qcurve"/>
      <point x="174" y="533"/>
      <point x="187" y="565" type="qcurve"/>
      <point x="200" y="598"/>
      <point x="220" y="616" type="qcurve"/>
      <point x="240" y="634"/>
      <point x="287" y="652"/>
      <point x="312" y="651" type="qcurve"/>
      <point x="338" y="651"/>
      <point x="360" y="641" type="qcurve"/>
      <point x="380" y="632" type="line"/>
      <point x="389" y="628"/>
      <point x="381" y="609"/>
      <point x="371" y="613" type="qcurve"/>
      <point x="351" y="622" type="line"/>
      <point x="334" y="630"/>
      <point x="312" y="630" type="qcurve"/>
      <point x="290" y="631"/>
      <point x="251" y="616"/>
      <point x="235" y="600" type="qcurve"/>
      <point x="218" y="585"/>
      <point x="206" y="557" type="qcurve"/>
      <point x="194" y="527"/>
      <point x="190" y="505" type="qcurve"/>
      <point x="186" y="488"/>
      <point x="186" y="457" type="qcurve"/>
      <point x="193" y="458"/>
      <point x="199" y="459" type="qcurve"/>
      <point x="230" y="464"/>
      <point x="240" y="464" type="qcurve"/>
      <point x="249" y="463"/>
      <point x="276" y="464" type="qcurve"/>
      <point x="303" y="465"/>
      <point x="332" y="466" type="qcurve"/>
      <point x="361" y="467" type="line"/>
      <point x="365" y="467"/>
      <point x="372" y="461"/>
      <point x="372" y="453"/>
      <point x="366" y="446"/>
      <point x="362" y="446" type="qcurve"/>
      <point x="333" y="445" type="line"/>
      <point x="304" y="444"/>
      <point x="249" y="442"/>
      <point x="240" y="443" type="qcurve"/>
      <point x="231" y="443"/>
      <point x="202" y="439" type="qcurve"/>
      <point x="194" y="438"/>
      <point x="186" y="436" type="qcurve"/>
      <point x="186" y="389"/>
      <point x="188" y="348" type="qcurve"/>
      <point x="191" y="305"/>
      <point x="191" y="264" type="qcurve"/>
      <point x="190" y="222"/>
      <point x="191" y="202" type="qcurve"/>
      <point x="191" y="182"/>
      <point x="193" y="164" type="qcurve"/>
      <point x="196" y="145"/>
      <point x="197" y="134" type="qcurve"/>
      <point x="198" y="122"/>
      <point x="202" y="98" type="qcurve"/>
      <point x="206" y="74"/>
      <point x="206" y="62" type="qcurve"/>
      <point x="206" y="51"/>
      <point x="206" y="41" type="qcurve"/>
      <point x="206" y="24" type="line"/>
      <point x="206" y="16"/>
      <point x="205" y="7" type="qcurve"/>
      <point x="203" y="-1" type="line"/>
      <point x="202" y="-11"/>
      <point x="181" y="-7"/>
      <point x="183" y="3" type="qcurve"/>
      <point x="184" y="11" type="line"/>
      <point x="185" y="18"/>
      <point x="185" y="24" type="qcurve"/>
      <point x="185" y="41" type="line"/>
      <point x="185" y="50"/>
      <point x="185" y="61" type="qcurve"/>
      <point x="185" y="72"/>
      <point x="181" y="95" type="qcurve"/>
      <point x="177" y="120"/>
      <point x="176" y="132" type="qcurve"/>
      <point x="175" y="143"/>
      <point x="173" y="161" type="qcurve"/>
      <point x="170" y="180"/>
      <point x="170" y="201" type="qcurve"/>
      <point x="169" y="222"/>
      <point x="170" y="264" type="qcurve"/>
      <point x="170" y="305"/>
      <point x="168" y="346" type="qcurve"/>
      <point x="165" y="386"/>
      <point x="165" y="431" type="qcurve"/>
      <point x="148" y="428"/>
      <point x="129" y="422" type="qcurve"/>
      <point x="86" y="410"/>
      <point x="65" y="399" type="qcurve"/>
      <point x="42" y="387" type="line"/>
      <point x="33" y="382"/>
      <point x="23" y="401"/>
    </contour>
  </outline>
</glyph>
<glyph name="g" format="1">
  <advance width="387"/>
  <unicode hex="0067"/>
  <outline>
    <contour>
      <point x="286" y="178" type="qcurve"/>
      <point x="277" y="174" type="line"/>
      <point x="200" y="136"/>
      <point x="137" y="73" type="qcurve"/>
      <point x="75" y="12"/>
      <point x="43" y="-87"/>
      <point x="50" y="-122" type="qcurve"/>
      <point x="56" y="-155"/>
      <point x="78" y="-173" type="qcurve"/>
      <point x="101" y="-191"/>
      <point x="148" y="-195" type="qcurve"/>
      <point x="196" y="-200"/>
      <point x="230" y="-186" type="qcurve"/>
      <point x="263" y="-172"/>
      <point x="279" y="-146" type="qcurve"/>
      <point x="295" y="-120"/>
      <point x="299" y="-79" type="qcurve"/>
      <point x="302" y="-37"/>
      <point x="297" y="17" type="qcurve"/>
      <point x="292" y="72"/>
      <point x="288" y="118" type="qcurve"/>
      <point x="286" y="147"/>
    </contour>
    <contour>
      <point x="291" y="457" type="qcurve"/>
      <point x="241" y="467" type="line"/>
      <point x="193" y="477"/>
      <point x="134" y="462"/>
      <point x="97" y="432" type="qcurve"/>
      <point x="61" y="402"/>
      <point x="45" y="338"/>
      <point x="58" y="306" type="qcurve"/>
      <point x="70" y="275"/>
      <point x="101" y="263" type="qcurve"/>
      <point x="133" y="250"/>
      <point x="168" y="264" type="qcurve"/>
      <point x="205" y="278"/>
      <point x="227" y="307" type="qcurve"/>
      <point x="249" y="338"/>
      <point x="259" y="364" type="qcurve"/>
      <point x="270" y="390"/>
      <point x="288" y="448"/>
      <point x="290" y="454" type="qcurve"/>
      <point x="291" y="456"/>
    </contour>
    <contour>
      <point x="304" y="466" type="qcurve"/>
      <point x="313" y="459"/>
      <point x="312" y="450" type="qcurve"/>
      <point x="312" y="442"/>
      <point x="308" y="353"/>
      <point x="306" y="270"/>
      <point x="306" y="217" type="qcurve"/>
      <point x="306" y="212" type="line"/>
      <point x="346" y="232" type="line"/>
      <point x="355" y="236"/>
      <point x="365" y="217"/>
      <point x="355" y="213" type="qcurve"/>
      <point x="306" y="189" type="line"/>
      <point x="307" y="152"/>
      <point x="309" y="120" type="qcurve"/>
      <point x="312" y="74"/>
      <point x="318" y="19" type="qcurve"/>
      <point x="323" y="-37"/>
      <point x="319" y="-81" type="qcurve"/>
      <point x="316" y="-127"/>
      <point x="297" y="-157" type="qcurve"/>
      <point x="278" y="-188"/>
      <point x="238" y="-205" type="qcurve"/>
      <point x="200" y="-221"/>
      <point x="146" y="-216" type="qcurve"/>
      <point x="92" y="-211"/>
      <point x="65" y="-189" type="qcurve"/>
      <point x="37" y="-167"/>
      <point x="29" y="-126" type="qcurve"/>
      <point x="22" y="-86"/>
      <point x="56" y="23"/>
      <point x="122" y="88" type="qcurve"/>
      <point x="188" y="153"/>
      <point x="267" y="193" type="qcurve"/>
      <point x="285" y="202" type="line"/>
      <point x="285" y="210"/>
      <point x="285" y="217" type="qcurve"/>
      <point x="285" y="271"/>
      <point x="286" y="312" type="qcurve"/>
      <point x="287" y="345"/>
      <point x="288" y="381" type="qcurve"/>
      <point x="283" y="368"/>
      <point x="279" y="356" type="qcurve"/>
      <point x="268" y="328"/>
      <point x="244" y="295" type="qcurve"/>
      <point x="219" y="261"/>
      <point x="176" y="244" type="qcurve"/>
      <point x="132" y="228"/>
      <point x="93" y="243" type="qcurve"/>
      <point x="54" y="259"/>
      <point x="39" y="298" type="qcurve"/>
      <point x="23" y="337"/>
      <point x="43" y="414"/>
      <point x="84" y="448" type="qcurve"/>
      <point x="124" y="481"/>
      <point x="158" y="490" type="qcurve"/>
      <point x="193" y="498"/>
      <point x="245" y="488" type="qcurve"/>
      <point x="296" y="478" type="line"/>
      <point x="306" y="476"/>
    </contour>
  </outline>
</glyph>
